{"glyphs":{"0":{"ha":828,"x_min":163,"x_max":835,"o":"m 424 -17 q 268 37 329 -17 q 185 163 207 90 q 163 328 163 236 q 175 506 163 418 q 218 683 188 594 q 294 838 249 771 q 413 947 340 906 q 574 989 485 989 q 729 935 668 989 q 813 809 790 882 q 835 644 835 736 q 822 466 835 554 q 779 290 810 378 q 703 134 749 201 q 585 25 657 67 q 424 -17 513 -17 m 431 71 q 563 117 506 71 q 653 231 621 164 q 705 381 685 297 q 731 525 725 464 q 738 635 738 586 q 724 762 738 706 q 671 860 711 818 q 567 901 631 901 q 434 855 492 901 q 344 742 376 808 q 292 592 313 675 q 266 447 272 508 q 260 338 260 386 q 273 210 260 267 q 326 113 286 154 q 431 71 367 71 z "},"1":{"ha":447,"x_min":194,"x_max":481,"o":"m 213 0 l 353 796 l 194 796 l 204 851 q 421 972 363 851 l 481 972 l 310 0 l 213 0 z "},"2":{"ha":801,"x_min":96,"x_max":832,"o":"m 96 0 q 133 131 106 69 q 191 233 161 193 q 274 317 221 274 q 360 383 326 361 q 454 442 393 404 q 542 496 518 481 q 613 547 565 511 q 681 607 661 582 q 717 669 700 632 q 735 747 735 707 q 687 858 735 814 q 556 901 639 901 q 325 744 390 901 l 246 783 q 365 931 279 872 q 560 989 450 989 q 758 922 683 989 q 832 751 832 854 q 824 689 832 719 q 808 635 817 658 q 778 584 800 611 q 744 540 757 557 q 697 497 731 524 q 650 460 664 471 q 595 423 636 449 q 542 390 554 397 q 485 356 531 382 q 309 229 374 289 q 222 93 244 169 l 724 93 l 707 0 l 96 0 z "},"3":{"ha":789,"x_min":111,"x_max":792,"o":"m 418 -17 q 204 54 281 -17 q 111 213 128 125 l 199 242 q 418 71 244 71 q 584 129 518 71 q 650 294 650 188 q 603 418 650 374 q 469 463 557 463 l 399 463 l 414 550 l 471 550 q 632 606 569 550 q 694 751 694 661 q 650 860 694 819 q 532 901 606 901 q 317 754 374 901 l 229 783 q 340 930 261 871 q 535 989 418 989 q 722 926 651 989 q 792 761 792 863 q 621 506 792 586 q 710 428 674 485 q 747 299 747 371 q 653 68 747 153 q 418 -17 558 -17 z "},"4":{"ha":785,"x_min":86,"x_max":790,"o":"m 494 0 l 540 263 l 86 263 l 96 314 l 703 972 l 763 972 l 653 349 l 790 349 l 775 263 l 638 263 l 592 0 l 494 0 m 556 349 l 632 781 l 239 349 l 556 349 z "},"5":{"ha":839,"x_min":113,"x_max":849,"o":"m 418 -17 q 230 28 311 -17 q 113 125 149 72 l 179 189 q 429 71 278 71 q 630 142 553 71 q 707 331 707 213 q 659 481 707 421 q 510 540 611 540 q 290 442 371 540 l 213 468 l 376 972 l 849 972 l 833 883 l 438 883 l 328 556 q 532 628 414 628 q 728 551 653 628 q 804 342 804 474 q 702 83 804 183 q 418 -17 600 -17 z "},"6":{"ha":783,"x_min":122,"x_max":751,"o":"m 400 -17 q 195 66 268 -17 q 122 271 122 149 q 303 722 122 511 q 733 993 485 932 l 719 907 q 446 756 565 863 q 269 514 326 650 q 493 603 354 603 q 679 529 607 603 q 751 343 751 456 q 653 84 751 185 q 400 -17 554 -17 m 404 71 q 585 144 514 71 q 656 331 656 218 q 605 465 656 415 q 471 515 554 515 q 291 442 363 515 q 219 256 219 369 q 268 122 219 174 q 404 71 317 71 z "},"7":{"ha":667,"x_min":211,"x_max":783,"o":"m 219 0 q 363 465 264 250 q 656 889 461 679 l 211 889 l 225 972 l 783 972 l 772 908 q 318 0 404 544 l 219 0 z "},"8":{"ha":799,"x_min":136,"x_max":794,"o":"m 422 -17 q 211 56 286 -17 q 136 246 136 129 q 194 437 136 353 q 361 551 253 521 q 297 613 328 569 q 265 717 265 656 q 344 908 265 828 q 554 989 422 989 q 726 924 658 989 q 794 761 794 860 q 751 619 794 681 q 632 529 708 557 q 728 445 694 503 q 763 319 763 388 q 667 78 763 172 q 422 -17 571 -17 m 511 574 q 647 624 592 574 q 701 757 701 675 q 660 862 701 822 q 549 901 618 901 q 413 849 467 901 q 358 718 358 797 q 399 615 358 657 q 511 574 439 574 m 428 71 q 597 137 528 71 q 665 315 665 203 q 615 444 665 393 q 476 496 565 496 q 303 428 372 496 q 233 251 233 360 q 285 119 233 168 q 428 71 338 71 z "},"9":{"ha":783,"x_min":188,"x_max":817,"o":"m 228 -17 l 242 69 q 510 224 388 110 q 671 463 632 338 q 572 394 633 419 q 438 368 510 368 q 260 438 333 368 q 188 621 188 507 q 294 883 188 778 q 556 989 400 989 q 750 908 683 989 q 817 697 817 826 q 646 250 817 457 q 228 -17 475 43 m 461 450 q 644 526 569 450 q 719 714 719 601 q 674 849 719 797 q 544 901 628 901 q 360 824 436 901 q 283 635 283 746 q 331 502 283 554 q 461 450 378 450 z "}," ":{"ha":307,"x_min":0,"x_max":0,"o":""},"!":{"ha":389,"x_min":122,"x_max":421,"o":"m 236 268 l 271 688 l 325 989 l 421 989 l 367 688 l 251 268 l 236 268 m 192 -19 q 142 3 161 -19 q 122 56 122 25 q 153 124 122 93 q 222 156 183 156 q 273 133 253 156 q 293 81 293 111 q 262 12 293 43 q 192 -19 231 -19 z "},"\"":{"ha":543,"x_min":222,"x_max":619,"o":"m 222 601 l 265 972 l 382 972 l 292 601 l 222 601 m 458 601 l 501 972 l 619 972 l 529 601 l 458 601 z "},"#":{"ha":943,"x_min":140,"x_max":975,"o":"m 214 0 l 306 283 l 140 283 l 172 371 l 332 371 l 415 618 l 258 618 l 286 703 l 439 703 l 542 972 l 619 972 l 531 703 l 718 703 l 806 972 l 897 972 l 810 703 l 975 703 l 947 618 l 785 618 l 701 371 l 858 371 l 831 283 l 675 283 l 583 0 l 492 0 l 583 283 l 396 283 l 303 0 l 214 0 m 421 371 l 610 371 l 693 618 l 504 618 l 421 371 z "},"$":{"ha":819,"x_min":133,"x_max":808,"o":"m 336 -136 l 357 -12 q 206 53 265 0 q 133 181 146 107 l 226 214 q 295 111 243 149 q 426 74 347 74 q 595 127 533 74 q 657 278 657 181 q 635 362 657 325 q 577 423 613 399 q 499 468 542 447 q 415 511 457 489 q 337 560 372 533 q 279 628 301 586 q 257 725 257 671 q 333 900 257 826 q 533 986 410 974 l 553 1096 l 647 1096 l 628 985 q 753 934 706 975 q 808 835 801 893 l 717 804 q 664 872 706 846 q 556 899 622 899 q 410 857 464 899 q 356 744 356 815 q 397 653 356 692 q 498 587 439 614 q 615 528 557 560 q 715 439 674 497 q 757 300 757 381 q 672 81 757 165 q 451 -14 586 -3 l 431 -136 l 336 -136 z "},"%":{"ha":1215,"x_min":218,"x_max":1165,"o":"m 390 494 q 260 552 303 494 q 218 690 218 610 q 244 823 218 757 q 333 939 271 889 q 478 989 394 989 q 607 931 565 989 q 649 793 649 874 q 624 660 649 726 q 537 544 599 594 q 390 494 475 494 m 333 -17 l 238 -17 l 1053 989 l 1149 989 l 333 -17 m 404 575 q 518 638 475 575 q 561 786 561 700 q 536 875 561 842 q 463 908 511 908 q 348 847 389 908 q 307 697 307 785 q 331 609 307 643 q 404 575 356 575 m 908 -17 q 778 40 819 -17 q 736 178 736 97 q 804 382 736 286 q 996 478 872 478 q 1124 421 1082 478 q 1165 283 1165 364 q 1150 184 1165 235 q 1106 88 1135 133 q 1025 13 1076 42 q 908 -17 974 -17 m 922 64 q 1036 126 993 64 q 1079 274 1079 188 q 1054 363 1079 329 q 981 397 1029 397 q 865 335 906 397 q 824 188 824 274 q 849 98 824 132 q 922 64 874 64 z "},"&":{"ha":900,"x_min":115,"x_max":858,"o":"m 743 0 l 663 126 q 335 -17 511 -17 q 174 42 233 -17 q 115 196 115 100 q 185 393 115 315 q 397 547 256 471 q 319 753 319 678 q 396 924 319 858 q 579 989 472 989 q 708 940 658 989 q 757 815 757 892 q 699 664 757 729 q 525 532 642 599 l 682 279 q 760 443 736 360 l 847 443 q 731 204 813 310 l 858 0 l 743 0 m 408 768 q 486 593 408 719 q 665 796 665 693 q 635 874 665 844 q 558 903 606 903 q 451 865 493 903 q 408 768 408 826 m 368 71 q 492 105 426 71 q 617 199 558 139 l 436 483 q 260 356 314 413 q 207 222 207 300 q 251 113 207 154 q 368 71 296 71 z "},"'":{"ha":306,"x_min":222,"x_max":382,"o":"m 265 972 l 382 972 l 292 601 l 222 601 l 265 972 z "},"(":{"ha":483,"x_min":176,"x_max":569,"o":"m 258 -181 q 176 204 176 -31 q 481 989 176 679 l 569 989 q 492 894 532 950 q 397 738 451 838 q 306 503 342 639 q 271 222 271 367 q 297 -19 271 89 q 349 -181 322 -126 l 258 -181 z "},")":{"ha":483,"x_min":71,"x_max":444,"o":"m 71 -181 q 350 563 350 156 q 320 822 350 701 q 263 989 290 943 l 353 989 q 419 817 393 925 q 444 583 444 708 q 421 323 444 443 q 353 110 397 203 q 264 -50 310 17 q 160 -181 218 -117 l 71 -181 z "},"*":{"ha":743,"x_min":221,"x_max":781,"o":"m 508 546 l 485 657 l 424 546 l 314 418 l 250 478 l 357 600 l 447 678 l 349 685 l 221 732 l 268 824 l 389 779 l 472 711 l 471 826 l 499 982 l 592 982 l 564 826 l 518 711 l 625 779 l 765 824 l 781 732 l 633 685 l 529 678 l 597 600 l 661 478 l 576 418 l 508 546 z "},"+":{"ha":910,"x_min":208,"x_max":861,"o":"m 583 428 l 583 150 l 483 150 l 483 428 l 208 428 l 208 522 l 483 522 l 483 803 l 583 803 l 583 522 l 861 522 l 861 428 l 583 428 z "},",":{"ha":331,"x_min":79,"x_max":267,"o":"m 103 -196 l 79 -189 q 175 -26 156 -128 q 115 -6 138 -26 q 92 47 92 14 q 121 122 92 93 q 189 151 150 151 q 244 128 222 151 q 267 61 267 104 q 221 -86 267 -18 q 103 -196 175 -154 z "},"-":{"ha":567,"x_min":200,"x_max":514,"o":"m 200 367 l 217 461 l 514 461 l 497 367 l 200 367 z "},".":{"ha":331,"x_min":93,"x_max":264,"o":"m 163 -19 q 113 3 132 -19 q 93 56 93 25 q 124 124 93 93 q 193 156 154 156 q 244 133 224 156 q 264 81 264 111 q 233 12 264 43 q 163 -19 201 -19 z "},"/":{"ha":678,"x_min":-17,"x_max":804,"o":"m -17 -181 l 714 989 l 804 989 l 74 -181 l -17 -181 z "},":":{"ha":331,"x_min":93,"x_max":354,"o":"m 253 496 q 203 518 222 496 q 183 571 183 540 q 214 640 183 608 q 283 671 244 671 q 334 649 314 671 q 354 596 354 626 q 324 527 354 558 q 253 496 293 496 m 163 -19 q 113 3 132 -19 q 93 56 93 25 q 124 124 93 93 q 193 156 154 156 q 244 133 224 156 q 264 81 264 111 q 233 12 264 43 q 163 -19 201 -19 z "},";":{"ha":331,"x_min":79,"x_max":354,"o":"m 253 496 q 203 518 222 496 q 183 571 183 540 q 214 640 183 608 q 283 671 244 671 q 334 649 314 671 q 354 596 354 626 q 324 527 354 558 q 253 496 293 496 m 103 -196 l 79 -189 q 131 -124 104 -168 q 168 -25 158 -81 q 113 -5 135 -25 q 92 47 92 15 q 121 122 92 93 q 189 151 150 151 q 244 128 222 151 q 267 61 267 104 q 221 -86 267 -18 q 103 -196 175 -154 z "},"<":{"ha":910,"x_min":214,"x_max":867,"o":"m 867 167 l 214 429 l 214 521 l 867 785 l 867 692 l 321 476 l 867 261 l 867 167 z "},"=":{"ha":910,"x_min":208,"x_max":861,"o":"m 208 539 l 208 632 l 861 632 l 861 539 l 208 539 m 208 318 l 208 411 l 861 411 l 861 318 l 208 318 z "},">":{"ha":910,"x_min":204,"x_max":857,"o":"m 857 429 l 204 167 l 204 258 l 750 476 l 204 692 l 204 785 l 857 521 l 857 429 z "},"?":{"ha":731,"x_min":181,"x_max":783,"o":"m 350 264 l 353 278 q 408 412 368 354 q 494 505 449 469 q 584 574 540 540 q 656 653 628 607 q 685 761 685 700 q 644 860 685 821 q 526 899 603 899 q 360 840 426 899 q 275 678 293 782 l 181 678 q 307 903 206 817 q 543 989 408 989 q 721 928 658 989 q 783 775 783 867 q 762 654 783 707 q 707 571 740 601 q 633 508 674 540 q 556 449 593 475 q 490 378 519 422 q 449 278 460 333 l 446 264 l 350 264 m 346 -19 q 294 3 314 -19 q 275 56 275 25 q 306 124 275 93 q 376 156 336 156 q 426 133 407 156 q 446 81 446 111 q 415 12 446 43 q 346 -19 385 -19 z "},"@":{"ha":1094,"x_min":154,"x_max":1122,"o":"m 544 -17 q 263 89 372 -17 q 154 375 154 194 q 242 692 154 549 q 465 912 329 835 q 747 989 600 989 q 1020 893 918 989 q 1122 643 1122 797 q 1033 348 1122 474 q 833 222 944 222 q 725 328 728 222 q 636 242 688 275 q 535 210 585 210 q 420 265 464 210 q 376 401 376 319 q 463 635 376 536 q 675 735 550 735 q 770 699 735 735 q 806 601 806 663 l 844 717 l 929 717 l 819 394 q 813 349 813 374 q 861 299 813 299 q 986 405 931 299 q 1042 636 1042 511 q 956 832 1042 761 q 736 903 871 903 q 382 755 519 903 q 244 393 244 607 q 328 161 244 253 q 564 69 413 69 q 760 96 678 69 l 724 4 q 544 -17 649 -17 m 569 294 q 706 367 649 294 q 763 531 763 439 q 669 650 763 650 q 529 577 585 650 q 474 411 474 504 q 499 326 474 358 q 569 294 525 294 z "},"A":{"ha":885,"x_min":75,"x_max":804,"o":"m 75 0 l 569 972 l 647 972 l 804 0 l 710 0 l 669 251 l 304 251 l 178 0 l 75 0 m 347 338 l 657 338 l 596 726 q 583 814 586 785 q 543 726 578 801 l 347 338 z "},"B":{"ha":857,"x_min":139,"x_max":864,"o":"m 310 972 l 614 972 q 804 910 744 972 q 864 756 864 847 q 843 648 864 696 q 790 572 822 600 q 725 527 757 543 q 663 506 693 511 q 777 433 735 492 q 819 294 819 374 q 802 190 819 239 q 748 96 785 140 q 642 26 711 51 q 478 0 572 0 l 139 0 l 310 972 m 517 547 q 704 601 639 547 q 769 744 769 656 q 607 885 769 885 l 392 885 l 332 547 l 517 547 m 488 88 q 608 108 558 88 q 682 164 658 129 q 715 231 706 199 q 725 299 725 264 q 518 463 725 463 l 318 463 l 251 88 l 488 88 z "},"C":{"ha":860,"x_min":168,"x_max":913,"o":"m 496 -17 q 310 44 388 -17 q 201 193 233 104 q 168 386 168 282 q 224 678 168 542 q 392 901 279 814 q 651 989 504 989 q 818 942 751 989 q 913 832 885 896 l 833 788 q 756 872 800 842 q 639 901 713 901 q 478 856 551 901 q 360 736 406 810 q 290 574 315 663 q 265 397 265 486 q 325 167 265 263 q 501 71 385 71 q 733 196 636 71 l 813 157 q 496 -17 701 -17 z "},"D":{"ha":906,"x_min":139,"x_max":911,"o":"m 310 972 l 556 972 q 722 936 650 972 q 833 839 793 900 q 892 710 872 778 q 911 567 911 642 q 897 416 911 490 q 844 265 882 342 q 748 130 806 188 q 596 36 690 72 q 383 0 501 0 l 139 0 l 310 972 m 406 88 q 568 118 496 88 q 685 198 640 149 q 760 312 731 247 q 802 440 790 376 q 814 567 814 503 q 750 790 814 696 q 560 885 686 885 l 392 885 l 251 88 l 406 88 z "},"E":{"ha":796,"x_min":139,"x_max":843,"o":"m 139 0 l 310 972 l 843 972 l 829 885 l 392 885 l 332 547 l 628 547 l 611 460 l 317 460 l 251 88 l 718 88 l 703 0 l 139 0 z "},"F":{"ha":754,"x_min":139,"x_max":857,"o":"m 139 0 l 310 972 l 857 972 l 843 885 l 392 885 l 332 547 l 636 547 l 619 460 l 317 460 l 236 0 l 139 0 z "},"G":{"ha":915,"x_min":168,"x_max":914,"o":"m 492 -17 q 251 96 333 -17 q 168 367 168 208 q 187 550 168 461 q 245 719 206 639 q 340 858 285 799 q 476 953 396 918 q 649 989 556 989 q 821 942 756 989 q 914 832 886 894 l 828 786 q 631 901 771 901 q 431 819 517 901 q 306 621 346 738 q 265 379 265 504 q 324 160 265 249 q 496 71 382 71 q 666 136 597 71 q 754 313 735 201 l 764 371 l 596 371 l 611 457 l 882 457 l 860 335 q 730 72 828 160 q 492 -17 632 -17 z "},"H":{"ha":925,"x_min":139,"x_max":960,"o":"m 139 0 l 310 972 l 407 972 l 333 551 l 789 551 l 863 972 l 960 972 l 789 0 l 692 0 l 772 460 l 318 460 l 238 0 l 139 0 z "},"I":{"ha":375,"x_min":139,"x_max":407,"o":"m 139 0 l 310 972 l 407 972 l 236 0 l 139 0 z "},"J":{"ha":717,"x_min":81,"x_max":746,"o":"m 313 -17 q 166 31 228 -17 q 81 151 104 78 l 161 185 q 314 71 204 71 q 456 125 401 71 q 532 308 510 179 l 649 972 l 746 972 l 628 301 q 586 159 614 219 q 528 66 558 99 q 458 14 499 33 q 385 -11 418 -6 q 313 -17 353 -17 z "},"K":{"ha":858,"x_min":139,"x_max":883,"o":"m 682 0 l 489 554 l 297 350 l 236 0 l 139 0 l 310 972 l 407 972 l 324 497 l 769 972 l 883 972 l 561 631 l 782 0 l 682 0 z "},"L":{"ha":751,"x_min":139,"x_max":714,"o":"m 139 0 l 310 972 l 407 972 l 253 93 l 714 93 l 697 0 l 139 0 z "},"M":{"ha":1071,"x_min":139,"x_max":1106,"o":"m 522 -17 l 371 667 q 361 717 364 696 q 353 664 357 688 l 236 0 l 139 0 l 310 972 l 400 972 l 549 289 q 563 221 558 249 q 599 285 578 251 l 1013 972 l 1106 972 l 935 0 l 838 0 l 956 668 q 967 724 963 708 q 939 674 965 719 l 522 -17 z "},"N":{"ha":940,"x_min":139,"x_max":975,"o":"m 139 0 l 310 972 l 400 972 l 713 224 l 736 167 q 746 222 744 213 l 878 972 l 975 972 l 804 0 l 706 0 l 417 692 l 375 792 q 357 690 360 707 l 236 0 l 139 0 z "},"O":{"ha":961,"x_min":167,"x_max":967,"o":"m 489 -17 q 247 93 326 -17 q 167 367 167 203 q 197 581 167 474 q 283 781 226 688 q 433 931 339 874 q 646 989 528 989 q 832 931 757 989 q 937 790 907 872 q 967 606 967 707 q 949 435 967 521 q 892 267 931 349 q 799 123 854 186 q 664 22 744 60 q 489 -17 583 -17 m 489 71 q 658 120 582 71 q 778 249 733 169 q 846 421 822 329 q 869 606 869 513 q 849 747 869 683 q 775 856 828 811 q 646 901 722 901 q 477 852 553 901 q 356 723 401 803 q 288 551 311 643 q 264 367 264 460 q 319 156 264 240 q 489 71 375 71 z "},"P":{"ha":831,"x_min":139,"x_max":903,"o":"m 139 0 l 310 972 l 646 972 q 839 903 775 972 q 903 738 903 833 q 883 618 903 675 q 825 512 864 561 q 719 433 786 463 q 563 404 651 404 l 307 404 l 236 0 l 139 0 m 574 486 q 751 560 692 486 q 810 731 810 633 q 771 841 810 792 q 644 890 732 890 l 392 890 l 321 486 l 574 486 z "},"Q":{"ha":961,"x_min":167,"x_max":967,"o":"m 726 -90 l 671 25 q 489 -17 588 -17 q 247 93 326 -17 q 167 367 167 203 q 197 581 167 474 q 283 781 226 688 q 433 931 339 874 q 646 989 528 989 q 832 931 757 989 q 937 790 907 872 q 967 606 967 707 q 909 304 967 453 q 743 71 851 156 l 801 -53 l 726 -90 m 489 71 q 633 106 567 71 l 583 213 l 658 250 l 703 156 q 826 355 783 231 q 869 606 869 479 q 849 747 869 683 q 775 856 828 811 q 646 901 722 901 q 477 852 553 901 q 356 723 401 803 q 288 551 311 643 q 264 367 264 460 q 319 156 264 240 q 489 71 375 71 z "},"R":{"ha":879,"x_min":139,"x_max":894,"o":"m 894 729 q 824 538 894 619 q 617 442 753 457 l 771 0 l 671 0 l 519 438 l 313 438 l 236 0 l 139 0 l 310 972 l 615 972 q 749 950 692 972 q 836 890 806 928 q 881 813 867 853 q 894 729 894 772 m 568 525 q 747 585 692 525 q 801 726 801 646 q 758 838 801 792 q 617 885 715 885 l 392 885 l 329 525 l 568 525 z "},"S":{"ha":793,"x_min":126,"x_max":790,"o":"m 704 803 q 533 901 654 901 q 392 858 444 901 q 340 744 340 814 q 382 649 340 689 q 483 583 424 610 q 601 523 542 556 q 701 431 660 490 q 743 286 743 371 q 650 63 743 142 q 410 -17 557 -17 q 226 39 301 -17 q 126 181 150 94 l 215 215 q 418 71 268 71 q 583 124 524 71 q 643 278 643 178 q 602 388 643 342 q 502 465 561 435 q 384 526 443 494 q 284 610 325 557 q 243 736 243 663 q 325 917 243 846 q 540 989 407 989 q 701 946 635 989 q 790 840 767 903 l 704 803 z "},"T":{"ha":768,"x_min":238,"x_max":858,"o":"m 589 885 l 433 0 l 336 0 l 492 885 l 238 885 l 251 972 l 858 972 l 844 885 l 589 885 z "},"U":{"ha":908,"x_min":185,"x_max":949,"o":"m 471 -17 q 263 53 340 -17 q 185 263 185 124 q 194 371 185 317 l 300 972 l 397 972 l 290 363 q 282 267 282 310 q 474 71 282 71 q 645 135 575 71 q 744 361 715 200 l 851 972 l 949 972 l 842 361 q 717 72 807 161 q 471 -17 626 -17 z "},"V":{"ha":856,"x_min":244,"x_max":951,"o":"m 394 0 l 244 972 l 344 972 l 451 226 q 457 172 457 188 q 476 218 464 193 l 843 972 l 951 972 l 463 0 l 394 0 z "},"W":{"ha":1104,"x_min":242,"x_max":1206,"o":"m 242 0 l 242 972 l 336 972 l 336 276 l 336 210 q 365 275 356 253 l 678 972 l 751 972 l 819 265 l 825 207 q 844 261 840 249 l 1101 972 l 1206 972 l 847 0 l 761 0 l 686 717 l 682 756 q 664 717 669 729 l 328 0 l 242 0 z "},"X":{"ha":751,"x_min":60,"x_max":838,"o":"m 60 0 l 418 515 l 250 972 l 343 972 l 475 597 l 732 972 l 838 972 l 510 503 l 693 0 l 601 0 l 453 418 l 167 0 l 60 0 z "},"Y":{"ha":824,"x_min":232,"x_max":933,"o":"m 363 0 l 431 389 l 232 972 l 331 972 l 490 472 l 833 972 l 933 972 l 522 379 l 456 0 l 363 0 z "},"Z":{"ha":851,"x_min":94,"x_max":928,"o":"m 94 0 l 107 68 l 793 886 l 282 886 l 296 972 l 928 972 l 915 901 l 236 86 l 772 86 l 757 0 l 94 0 z "},"[":{"ha":535,"x_min":136,"x_max":622,"o":"m 136 -181 l 343 989 l 622 989 l 606 901 l 419 901 l 244 -93 l 431 -93 l 415 -181 l 136 -181 z "},"\\":{"ha":678,"x_min":190,"x_max":597,"o":"m 507 -181 l 190 989 l 281 989 l 597 -181 l 507 -181 z "},"]":{"ha":535,"x_min":56,"x_max":542,"o":"m 56 -181 l 71 -93 l 257 -93 l 432 901 l 246 901 l 263 989 l 542 989 l 335 -181 l 56 -181 z "},"^":{"ha":910,"x_min":238,"x_max":850,"o":"m 754 503 l 607 868 l 333 503 l 238 503 l 578 989 l 679 989 l 850 503 l 754 503 z "},"_":{"ha":736,"x_min":-15,"x_max":683,"o":"m -15 -246 l 3 -139 l 683 -139 l 665 -246 l -15 -246 z "},"`":{"ha":476,"x_min":189,"x_max":483,"o":"m 389 800 l 189 1017 l 332 1017 l 483 800 l 389 800 z "},"a":{"ha":711,"x_min":114,"x_max":693,"o":"m 513 0 l 522 58 q 318 -17 431 -17 q 169 39 224 -17 q 114 188 114 94 q 200 390 114 322 q 404 458 286 458 q 583 406 508 458 l 594 468 q 601 528 601 503 q 486 642 601 642 q 261 565 379 642 l 249 649 q 493 726 381 726 q 633 682 574 726 q 693 539 693 638 q 686 472 693 511 l 603 0 l 513 0 m 335 68 q 449 99 392 68 q 543 172 506 129 l 567 313 q 403 374 490 374 q 261 329 318 374 q 204 197 204 285 q 238 104 204 140 q 335 68 272 68 z "},"b":{"ha":750,"x_min":118,"x_max":750,"o":"m 408 -17 q 226 65 296 -17 l 215 0 l 118 0 l 288 961 l 392 1003 l 329 653 q 518 726 414 726 q 685 651 621 726 q 750 449 750 575 q 655 110 750 238 q 408 -17 560 -17 m 403 71 q 588 176 522 71 q 653 442 653 281 q 613 587 653 535 q 499 639 572 639 q 394 610 444 639 q 310 538 343 581 l 246 175 q 308 101 268 131 q 403 71 349 71 z "},"c":{"ha":646,"x_min":125,"x_max":676,"o":"m 354 -17 q 188 61 251 -17 q 125 271 125 139 q 219 602 125 478 q 467 726 313 726 q 601 688 544 726 q 676 578 658 649 l 586 543 q 457 639 561 639 q 326 584 381 639 q 249 449 272 529 q 225 271 225 368 q 363 71 225 71 q 533 179 478 71 l 611 146 q 354 -17 531 -17 z "},"d":{"ha":751,"x_min":125,"x_max":811,"o":"m 358 -17 q 188 67 250 -17 q 125 292 125 151 q 225 607 125 488 q 483 726 325 726 q 653 656 592 726 l 707 961 l 811 1003 l 635 0 l 538 0 l 547 60 q 358 -17 475 -17 m 379 71 q 569 181 490 71 l 632 538 q 479 639 589 639 q 294 542 361 639 q 226 288 226 444 q 265 132 226 193 q 379 71 304 71 z "},"e":{"ha":706,"x_min":125,"x_max":717,"o":"m 374 -17 q 192 68 260 -17 q 125 281 125 153 q 225 599 125 472 q 475 726 325 726 q 651 663 586 726 q 717 464 717 599 q 690 315 717 403 l 225 315 l 225 296 q 265 132 225 190 q 385 74 306 74 q 549 129 467 74 l 592 58 q 374 -17 492 -17 m 238 403 l 613 403 q 622 472 622 440 q 580 601 622 563 q 475 639 538 639 q 319 571 379 639 q 238 403 260 503 z "},"f":{"ha":435,"x_min":133,"x_max":569,"o":"m 349 622 l 239 0 l 142 0 l 251 622 l 133 622 l 149 710 l 267 710 l 289 838 q 460 989 315 989 q 569 956 514 989 l 556 871 q 463 899 506 899 q 383 815 399 899 l 364 710 l 526 710 l 511 622 l 349 622 z "},"g":{"ha":753,"x_min":125,"x_max":757,"o":"m 231 -219 q 451 -161 385 -211 q 532 -28 517 -111 l 549 68 q 360 -17 475 -17 q 188 65 251 -17 q 125 275 125 147 q 222 600 125 474 q 469 726 318 726 q 650 643 581 726 l 663 710 l 757 710 l 629 -11 q 590 -133 617 -82 q 531 -214 564 -183 q 451 -262 499 -244 q 361 -287 404 -281 q 258 -296 318 -293 l 231 -219 m 385 71 q 492 106 440 71 q 571 190 543 140 l 631 531 q 572 608 615 576 q 472 639 529 639 q 290 535 357 639 q 224 285 224 431 q 268 128 224 186 q 385 71 313 71 z "},"h":{"ha":750,"x_min":118,"x_max":718,"o":"m 118 0 l 288 961 l 392 1003 l 325 629 q 519 726 407 726 q 669 676 621 726 q 718 519 718 626 q 706 393 718 464 l 636 0 l 542 0 l 618 433 q 625 500 625 475 q 496 639 625 639 q 292 436 328 639 l 215 0 l 118 0 z "},"i":{"ha":335,"x_min":118,"x_max":392,"o":"m 318 856 q 279 871 294 856 q 264 910 264 886 q 286 964 264 942 q 336 986 308 986 q 376 971 361 986 q 392 932 392 956 q 369 878 392 900 q 318 856 347 856 m 118 0 l 243 710 l 340 710 l 215 0 l 118 0 z "},"j":{"ha":346,"x_min":-78,"x_max":396,"o":"m 322 856 q 283 871 299 856 q 268 910 268 886 q 290 964 268 942 q 340 986 313 986 q 381 971 365 986 q 396 932 396 956 q 374 878 396 900 q 322 856 351 856 m -47 -300 l -78 -219 q 56 -180 17 -211 q 106 -83 94 -149 l 246 710 l 343 710 l 201 -93 q 118 -250 182 -207 q -47 -300 54 -293 z "},"k":{"ha":685,"x_min":118,"x_max":699,"o":"m 483 511 l 653 0 l 544 0 l 410 442 l 269 313 l 215 0 l 118 0 l 288 961 l 392 1003 l 292 439 l 585 710 l 699 710 l 483 511 z "},"l":{"ha":349,"x_min":125,"x_max":399,"o":"m 125 0 l 294 961 l 399 1003 l 222 0 l 125 0 z "},"m":{"ha":1135,"x_min":118,"x_max":1103,"o":"m 118 0 l 243 710 l 339 710 l 326 640 q 517 726 407 726 q 685 618 643 726 q 906 726 775 726 q 1048 673 993 726 q 1103 528 1103 619 q 1097 472 1103 499 l 1014 0 l 917 0 l 994 443 q 1000 504 1000 472 q 883 639 1000 639 q 762 585 815 639 q 694 446 708 531 l 615 0 l 518 0 l 596 443 q 601 504 601 472 q 483 639 601 639 q 362 585 415 639 q 294 446 308 531 l 215 0 l 118 0 z "},"n":{"ha":750,"x_min":118,"x_max":718,"o":"m 118 0 l 243 710 l 340 710 l 326 632 q 524 726 406 726 q 667 672 617 726 q 718 507 718 617 q 708 393 718 447 l 639 0 l 542 0 l 617 428 q 624 500 624 467 q 592 603 624 567 q 501 639 560 639 q 365 581 424 639 q 290 431 306 524 l 215 0 l 118 0 z "},"o":{"ha":732,"x_min":122,"x_max":733,"o":"m 374 -17 q 185 66 247 -17 q 122 272 122 149 q 145 430 122 351 q 210 576 168 508 q 324 685 253 643 q 482 726 394 726 q 672 642 610 726 q 733 438 733 557 q 711 281 733 358 q 647 135 689 203 q 533 25 604 67 q 374 -17 461 -17 m 374 71 q 520 130 458 71 q 609 269 582 189 q 636 438 636 350 q 598 580 636 521 q 482 639 560 639 q 336 581 399 639 q 247 441 274 522 q 219 272 219 360 q 258 128 219 186 q 374 71 296 71 z "},"p":{"ha":757,"x_min":67,"x_max":757,"o":"m 422 -17 q 226 75 297 -17 l 171 -240 l 67 -282 l 242 710 l 339 710 l 328 646 q 529 726 411 726 q 695 646 633 726 q 757 432 757 565 q 658 107 757 231 q 422 -17 558 -17 m 417 71 q 590 169 524 71 q 656 422 656 267 q 617 581 656 524 q 506 639 579 639 q 307 529 381 639 l 244 181 q 417 71 307 71 z "},"q":{"ha":754,"x_min":124,"x_max":761,"o":"m 356 -17 q 185 58 247 -17 q 124 261 124 132 q 222 595 124 464 q 476 726 321 726 q 653 646 599 726 l 664 710 l 761 710 l 594 -236 l 490 -278 l 551 72 q 356 -17 460 -17 m 375 71 q 571 183 465 71 l 632 529 q 571 612 613 585 q 475 639 529 639 q 296 531 368 639 q 224 269 224 424 q 263 123 224 175 q 375 71 301 71 z "},"r":{"ha":518,"x_min":118,"x_max":607,"o":"m 118 0 l 243 710 l 340 710 l 322 610 q 422 697 368 668 q 524 726 475 726 q 607 697 578 726 l 576 603 q 492 629 536 629 q 369 574 432 629 q 286 401 307 518 l 215 0 l 118 0 z "},"s":{"ha":619,"x_min":97,"x_max":631,"o":"m 331 -17 q 97 107 178 -17 l 171 165 q 333 69 233 69 q 442 101 399 69 q 486 190 486 133 q 453 263 486 232 q 375 315 421 293 q 283 362 329 338 q 205 428 238 386 q 172 531 172 471 q 238 673 172 619 q 404 726 304 726 q 631 618 564 726 l 563 565 q 403 640 501 640 q 303 611 343 640 q 264 533 264 582 q 297 468 264 496 q 376 420 329 440 q 469 374 422 400 q 549 302 517 349 q 582 189 582 256 q 513 40 582 96 q 331 -17 444 -17 z "},"t":{"ha":493,"x_min":147,"x_max":549,"o":"m 292 -17 q 206 17 235 -17 q 178 108 178 51 q 182 156 178 131 l 264 622 l 147 622 l 163 710 l 279 710 l 324 961 l 428 1003 l 376 710 l 549 710 l 533 622 l 361 622 l 285 188 q 279 136 279 151 q 338 75 279 75 q 446 113 388 75 l 417 11 q 292 -17 361 -17 z "},"u":{"ha":749,"x_min":154,"x_max":757,"o":"m 535 0 l 547 68 q 363 -17 483 -17 q 154 203 154 -17 q 164 301 154 239 l 235 710 l 332 710 l 256 276 q 250 214 250 247 q 285 106 250 140 q 378 71 321 71 q 583 274 547 71 l 660 710 l 757 710 l 632 0 l 535 0 z "},"v":{"ha":672,"x_min":176,"x_max":747,"o":"m 301 0 l 176 710 l 272 710 l 351 226 l 363 156 q 399 226 386 201 l 647 710 l 747 710 l 375 0 l 301 0 z "},"w":{"ha":940,"x_min":175,"x_max":1015,"o":"m 226 0 l 175 710 l 268 710 l 296 172 l 299 118 q 322 172 315 157 l 560 710 l 628 710 l 683 172 l 689 118 q 710 172 700 149 l 918 710 l 1015 710 l 728 0 l 633 0 l 572 475 l 565 531 q 538 471 544 486 l 319 0 l 226 0 z "},"x":{"ha":671,"x_min":53,"x_max":725,"o":"m 53 0 l 347 367 l 196 710 l 301 710 l 415 451 l 622 710 l 725 710 l 451 369 l 615 0 l 510 0 l 383 285 l 156 0 l 53 0 z "},"y":{"ha":683,"x_min":142,"x_max":760,"o":"m 654 710 l 760 710 l 240 -269 l 142 -269 l 294 22 l 165 710 l 265 710 l 349 194 q 357 143 357 147 q 385 194 357 150 l 654 710 z "},"z":{"ha":667,"x_min":94,"x_max":692,"o":"m 94 0 l 106 60 l 543 622 l 231 622 l 246 710 l 692 710 l 682 651 l 239 88 l 581 88 l 565 0 l 94 0 z "},"{":{"ha":533,"x_min":165,"x_max":633,"o":"m 426 -181 q 279 -115 333 -172 q 225 50 225 -58 q 233 139 225 92 l 246 210 q 250 254 250 233 q 229 335 250 304 q 171 365 208 365 l 165 365 l 179 444 l 185 444 q 266 488 231 444 q 314 601 301 532 l 336 728 q 439 920 358 851 q 633 989 519 989 l 618 907 q 426 694 464 901 l 407 586 q 347 447 390 490 q 231 404 304 404 l 229 399 q 343 254 343 389 q 335 174 343 222 l 324 114 q 317 46 317 72 q 440 -99 317 -94 l 426 -181 z "},"|":{"ha":389,"x_min":231,"x_max":328,"o":"m 231 -525 l 231 1475 l 328 1475 l 328 -525 l 231 -525 z "},"}":{"ha":533,"x_min":43,"x_max":510,"o":"m 43 -181 l 57 -99 q 249 114 211 -93 l 265 208 q 328 358 283 313 q 446 404 374 404 l 447 410 q 362 452 392 421 q 332 549 332 483 q 340 631 332 583 l 351 694 q 358 765 358 739 q 235 907 358 903 l 250 989 q 400 926 350 982 q 450 756 450 871 q 439 646 450 710 l 432 606 q 425 536 425 571 q 504 443 425 443 l 510 443 l 496 364 l 490 364 q 410 322 444 364 q 363 210 375 279 l 342 94 q 43 -181 293 -181 z "},"~":{"ha":910,"x_min":213,"x_max":865,"o":"m 668 385 q 519 428 610 385 q 385 472 428 472 q 309 449 342 472 q 265 385 276 425 l 213 385 q 275 515 226 464 q 410 565 324 565 q 562 522 469 565 q 693 478 654 478 q 769 502 736 478 q 813 565 801 526 l 865 565 q 801 436 851 488 q 668 385 751 385 z "}," ":{"ha":307,"x_min":0,"x_max":0,"o":""},"¡":{"ha":389,"x_min":94,"x_max":392,"o":"m 290 551 q 240 574 260 551 q 221 626 221 596 q 251 695 221 664 q 321 726 282 726 q 372 704 351 726 q 392 651 392 682 q 361 583 392 614 q 290 551 331 551 m 94 -278 l 146 19 l 261 439 l 276 439 l 242 19 l 190 -278 l 94 -278 z "},"¢":{"ha":711,"x_min":176,"x_max":731,"o":"m 318 -17 l 342 118 q 219 208 263 136 q 176 390 176 281 q 256 699 176 578 q 471 850 335 819 l 496 989 l 589 989 l 564 854 q 731 706 707 840 l 633 669 q 522 761 614 761 q 338 662 401 761 q 275 401 275 563 q 312 260 275 311 q 419 210 349 210 q 511 238 469 210 q 575 317 553 267 l 660 283 q 435 115 588 128 l 411 -17 l 318 -17 z "},"£":{"ha":835,"x_min":142,"x_max":900,"o":"m 142 0 l 161 110 q 285 234 236 142 q 338 417 333 326 l 208 417 l 222 496 l 331 496 q 297 657 297 603 q 391 894 297 799 q 653 989 485 989 q 900 899 806 989 l 849 810 q 807 848 825 833 q 742 879 789 863 q 636 896 694 896 q 463 831 524 896 q 401 671 401 765 q 418 563 401 624 q 436 496 435 503 l 654 496 l 640 417 l 440 417 q 246 90 428 246 l 775 90 l 760 0 l 142 0 z "},"¤":{"ha":876,"x_min":113,"x_max":926,"o":"m 669 185 q 458 119 579 119 q 272 183 338 119 l 169 92 l 113 167 l 219 261 q 197 390 197 310 q 289 665 197 543 l 217 758 l 296 831 l 368 740 q 579 807 465 807 q 767 742 694 807 l 868 831 l 926 754 l 824 664 q 843 539 843 615 q 747 257 843 379 l 822 163 l 743 92 l 669 185 m 475 213 q 667 298 590 213 q 744 511 744 383 q 696 656 744 599 q 564 714 647 714 q 373 627 451 714 q 294 414 294 540 q 343 269 294 325 q 475 213 392 213 z "},"¥":{"ha":774,"x_min":151,"x_max":889,"o":"m 504 429 l 711 429 l 697 346 l 494 346 l 478 254 l 681 254 l 667 171 l 464 171 l 433 0 l 340 0 l 371 171 l 151 171 l 165 254 l 385 254 l 401 346 l 182 346 l 196 429 l 418 429 l 225 972 l 329 972 l 476 522 l 793 972 l 889 972 l 504 429 z "},"¦":{"ha":389,"x_min":236,"x_max":333,"o":"m 236 508 l 236 1146 l 333 1146 l 333 508 l 236 508 m 236 -312 l 236 325 l 333 325 l 333 -312 l 236 -312 z "},"§":{"ha":753,"x_min":93,"x_max":781,"o":"m 353 -167 q 188 -131 257 -167 q 93 -47 119 -96 l 175 18 q 243 -44 196 -15 q 365 -72 290 -72 q 565 69 565 -72 q 552 121 565 97 q 511 163 539 144 q 461 194 483 182 q 401 222 439 206 q 350 244 364 238 q 289 276 311 264 q 242 310 267 289 q 205 357 217 331 q 193 417 193 383 q 230 530 193 482 q 324 596 267 578 q 253 744 253 639 q 340 924 253 860 q 547 989 426 989 q 781 879 713 989 l 697 819 q 529 892 646 892 q 401 860 447 892 q 354 768 354 828 q 367 722 354 743 q 414 681 381 701 q 472 650 447 661 q 550 615 496 639 q 617 584 592 597 q 669 548 642 571 q 710 495 697 525 q 724 425 724 465 q 611 240 724 290 q 667 101 667 190 q 581 -96 667 -25 q 353 -167 496 -167 m 532 283 q 624 399 624 319 q 612 440 624 421 q 587 471 600 458 q 540 500 574 483 q 489 524 507 517 q 426 549 471 531 q 331 508 365 539 q 296 435 296 478 q 308 394 296 413 q 349 359 321 375 q 400 333 378 343 q 467 308 422 324 q 532 283 511 292 z "},"¨":{"ha":476,"x_min":282,"x_max":632,"o":"m 335 856 q 297 872 313 856 q 282 911 282 888 q 305 964 282 942 q 357 986 328 986 q 395 971 381 986 q 410 932 410 956 q 388 878 410 901 q 335 856 365 856 m 557 856 q 519 872 535 856 q 503 911 503 888 q 526 965 503 943 q 579 986 550 986 q 617 971 603 986 q 632 932 632 956 q 609 878 632 901 q 557 856 586 856 z "},"©":{"ha":1194,"x_min":175,"x_max":1181,"o":"m 1036 128 q 964 56 1036 128 q 678 -17 892 -17 q 319 128 464 -17 q 175 486 175 272 q 319 844 175 700 q 678 989 464 989 q 1036 844 892 989 q 1181 486 1181 700 q 1036 128 1181 272 m 375 181 q 435 119 375 181 q 678 58 496 58 q 979 181 860 58 q 1099 486 1099 303 q 979 791 1099 669 q 678 913 860 913 q 375 790 496 913 q 254 486 254 668 q 375 181 254 303 m 686 192 q 500 270 567 192 q 433 493 433 349 q 503 715 433 633 q 697 796 572 796 q 903 643 847 796 l 815 607 q 685 706 782 706 q 563 652 597 706 q 528 493 528 599 q 563 331 528 382 q 689 279 599 279 q 828 392 806 279 l 907 360 q 826 235 885 279 q 686 192 767 192 z "},"ª":{"ha":646,"x_min":179,"x_max":681,"o":"m 517 393 l 525 436 q 356 379 446 379 q 229 424 279 379 q 179 542 179 468 q 260 713 179 653 q 439 772 340 772 q 579 740 513 772 l 582 757 q 589 817 589 799 q 472 904 589 904 q 307 853 381 904 l 299 935 q 500 989 376 989 q 626 955 572 989 q 681 840 681 921 q 671 758 681 815 l 607 393 l 517 393 m 379 461 q 464 481 418 461 q 540 525 510 500 l 563 653 q 433 689 504 689 q 324 656 371 689 q 278 556 278 622 q 305 487 278 513 q 379 461 332 461 z "},"«":{"ha":704,"x_min":138,"x_max":775,"o":"m 278 0 l 138 356 l 403 710 l 507 710 l 242 351 l 382 0 l 278 0 m 543 0 l 403 356 l 668 710 l 775 710 l 510 351 l 650 0 l 543 0 z "},"¬":{"ha":910,"x_min":207,"x_max":860,"o":"m 760 244 l 760 550 l 207 550 l 207 643 l 860 643 l 860 244 l 760 244 z "},"­":{"ha":567,"x_min":200,"x_max":514,"o":"m 200 367 l 217 461 l 514 461 l 497 367 l 200 367 z "},"®":{"ha":1194,"x_min":174,"x_max":1179,"o":"m 1035 128 q 963 56 1035 128 q 676 -17 890 -17 q 318 128 463 -17 q 174 486 174 272 q 318 844 174 700 q 676 989 463 989 q 1035 844 890 989 q 1179 486 1179 700 q 1035 128 1179 272 m 374 181 q 434 119 374 181 q 676 58 494 58 q 978 181 858 58 q 1097 486 1097 303 q 978 791 1097 669 q 676 913 858 913 q 374 790 494 913 q 253 486 253 668 q 374 181 253 303 m 465 190 l 465 778 l 753 778 q 873 725 832 778 q 914 608 914 672 q 874 492 914 544 q 768 431 835 440 l 910 190 l 810 190 l 678 429 l 556 429 l 556 190 l 465 190 m 556 507 l 756 507 q 807 535 788 507 q 826 606 826 564 q 808 667 826 639 q 756 694 789 694 l 556 694 l 556 507 z "},"¯":{"ha":476,"x_min":218,"x_max":674,"o":"m 218 846 l 233 931 l 674 931 l 658 846 l 218 846 z "},"°":{"ha":586,"x_min":215,"x_max":674,"o":"m 404 625 q 269 681 322 625 q 215 819 215 736 q 297 1010 215 933 q 486 1088 378 1088 q 622 1033 569 1088 q 674 894 674 978 q 592 704 674 783 q 404 625 511 625 m 422 721 q 528 768 485 721 q 572 883 572 815 q 544 964 572 933 q 469 994 515 994 q 362 949 408 994 q 315 835 315 903 q 345 753 315 786 q 422 721 375 721 z "},"±":{"ha":910,"x_min":213,"x_max":865,"o":"m 588 518 l 588 285 l 488 285 l 488 518 l 213 518 l 213 611 l 488 611 l 488 844 l 588 844 l 588 611 l 865 611 l 865 518 l 588 518 m 213 0 l 213 93 l 865 93 l 865 0 l 213 0 z "},"²":{"ha":522,"x_min":176,"x_max":624,"o":"m 176 617 q 201 697 185 660 q 235 757 218 733 q 290 810 253 781 q 348 853 326 839 q 422 900 369 868 q 513 974 485 939 q 540 1060 540 1008 q 519 1117 540 1092 q 451 1142 497 1142 q 322 1044 360 1142 l 258 1074 q 457 1213 314 1213 q 579 1171 535 1213 q 624 1061 624 1129 q 581 933 624 983 q 426 819 538 883 q 282 690 319 758 l 558 690 l 544 617 l 176 617 z "},"³":{"ha":519,"x_min":192,"x_max":619,"o":"m 271 778 q 381 672 293 672 q 473 706 439 672 q 507 792 507 739 q 487 854 507 828 q 431 881 467 881 l 385 881 l 397 950 l 426 950 q 505 985 478 950 q 532 1065 532 1019 q 513 1120 532 1097 q 456 1143 493 1143 q 385 1118 419 1143 q 328 1054 350 1093 l 261 1079 q 352 1175 294 1138 q 474 1213 410 1213 q 579 1178 539 1213 q 619 1083 619 1143 q 591 990 619 1035 q 518 928 563 946 q 574 884 553 915 q 594 811 594 853 q 531 660 594 717 q 369 603 467 603 q 251 641 296 603 q 192 746 206 679 l 271 778 z "},"´":{"ha":476,"x_min":344,"x_max":714,"o":"m 440 800 l 344 800 l 572 1017 l 714 1017 l 440 800 z "},"µ":{"ha":749,"x_min":64,"x_max":757,"o":"m 538 0 l 553 81 q 361 -17 481 -17 q 277 5 315 -17 q 222 69 239 26 l 168 -240 l 64 -282 l 239 710 l 336 710 l 260 279 q 251 197 251 226 q 282 108 251 146 q 382 71 313 71 q 511 120 454 71 q 586 274 568 169 l 663 710 l 757 710 l 632 0 l 538 0 z "},"¶":{"ha":874,"x_min":176,"x_max":903,"o":"m 358 -278 l 475 386 q 248 460 319 386 q 176 635 176 533 q 196 753 176 696 q 256 860 215 810 q 368 942 296 911 q 536 972 440 972 l 903 972 l 707 -142 l 604 -186 l 792 875 l 656 875 l 460 -233 l 358 -278 z "},"·":{"ha":331,"x_min":167,"x_max":336,"o":"m 235 397 q 185 419 204 397 q 167 472 167 442 q 197 541 167 510 q 267 572 228 572 q 317 550 297 572 q 336 497 336 528 q 306 428 336 460 q 235 397 275 397 z "},"¸":{"ha":476,"x_min":83,"x_max":364,"o":"m 197 -325 q 83 -275 122 -325 l 146 -237 q 197 -258 164 -258 q 253 -237 229 -258 q 276 -185 276 -217 q 257 -138 276 -156 q 206 -121 238 -121 q 157 -128 171 -121 l 143 -107 l 256 14 l 311 14 l 242 -76 q 335 -105 306 -76 q 364 -176 364 -133 q 317 -285 364 -244 q 197 -325 269 -325 z "},"¹":{"ha":296,"x_min":219,"x_max":403,"o":"m 219 617 l 299 1067 l 236 1067 l 247 1126 q 349 1203 311 1126 l 403 1203 l 299 617 l 219 617 z "},"º":{"ha":654,"x_min":188,"x_max":708,"o":"m 393 378 q 242 440 297 378 q 188 611 188 503 q 276 885 188 782 q 501 989 364 989 q 653 926 599 989 q 708 754 708 863 q 622 480 708 582 q 393 378 535 378 m 408 468 q 561 543 508 468 q 614 744 614 618 q 581 858 614 818 q 485 899 549 899 q 338 825 394 899 q 282 626 282 751 q 315 510 282 553 q 408 468 349 468 z "},"»":{"ha":704,"x_min":54,"x_max":692,"o":"m 54 0 l 319 356 l 179 710 l 283 710 l 424 356 l 158 0 l 54 0 m 319 0 l 585 356 l 444 710 l 551 710 l 692 356 l 426 0 l 319 0 z "},"¼":{"ha":964,"x_min":38,"x_max":944,"o":"m 38 -17 l 853 989 l 944 989 l 129 -17 l 38 -17 m 194 393 l 274 843 l 211 843 l 222 903 q 322 979 285 903 l 378 979 l 275 393 l 194 393 m 726 0 l 753 150 l 474 150 l 481 192 l 850 588 l 913 588 l 849 226 l 918 226 l 904 150 l 835 150 l 808 0 l 726 0 m 767 226 l 808 465 l 596 226 l 767 226 z "},"½":{"ha":1032,"x_min":38,"x_max":1006,"o":"m 38 -17 l 853 989 l 944 989 l 129 -17 l 38 -17 m 194 393 l 274 843 l 211 843 l 222 903 q 322 979 285 903 l 378 979 l 275 393 l 194 393 m 640 457 q 839 596 696 596 q 961 554 917 596 q 1006 444 1006 513 q 963 317 1006 367 q 808 203 919 267 q 664 74 701 142 l 940 74 l 926 0 l 558 0 q 583 80 567 43 q 617 140 600 117 q 672 193 635 164 q 730 237 708 222 q 804 283 751 251 q 894 357 867 322 q 922 443 922 392 q 901 500 922 475 q 833 525 879 525 q 704 428 742 525 l 640 457 z "},"¾":{"ha":1164,"x_min":151,"x_max":1143,"o":"m 329 376 q 210 415 256 376 q 151 519 165 453 l 231 551 q 342 446 254 446 q 433 480 399 446 q 467 567 467 514 q 447 630 467 603 q 390 657 426 657 l 344 657 l 357 726 l 386 726 q 465 761 438 726 q 493 842 493 796 q 474 897 493 874 q 417 919 454 919 q 288 831 342 919 l 222 856 q 313 951 254 914 q 435 989 371 989 q 540 954 500 989 q 581 860 581 919 q 552 766 581 810 q 478 704 524 722 q 554 588 554 678 q 490 434 554 492 q 329 376 426 376 m 236 -17 l 1051 989 l 1143 989 l 328 -17 l 236 -17 m 925 0 l 951 150 l 672 150 l 679 192 l 1049 588 l 1111 588 l 1047 226 l 1117 226 l 1103 150 l 1033 150 l 1007 0 l 925 0 m 965 226 l 1007 465 l 794 226 l 965 226 z "},"¿":{"ha":731,"x_min":75,"x_max":678,"o":"m 482 551 q 432 574 451 551 q 413 626 413 596 q 443 695 413 664 q 513 726 474 726 q 564 704 544 726 q 583 651 583 682 q 553 583 583 614 q 482 551 522 551 m 315 -278 q 138 -217 200 -278 q 75 -64 75 -156 q 97 57 75 4 q 151 140 118 110 q 225 203 185 171 q 302 263 265 236 q 369 333 339 289 q 410 433 399 378 l 413 447 l 508 447 l 506 433 q 450 299 490 357 q 364 206 410 242 q 274 138 318 171 q 202 58 231 104 q 174 -50 174 11 q 215 -149 174 -110 q 332 -187 256 -187 q 499 -129 432 -187 q 583 33 565 -71 l 678 33 q 551 -192 653 -106 q 315 -278 450 -278 z "},"À":{"ha":885,"x_min":75,"x_max":804,"o":"m 585 1021 l 385 1238 l 528 1238 l 679 1021 l 585 1021 m 75 0 l 569 972 l 647 972 l 804 0 l 710 0 l 669 251 l 304 251 l 178 0 l 75 0 m 347 338 l 657 338 l 596 726 q 583 814 586 785 q 543 726 578 801 l 347 338 z "},"Á":{"ha":885,"x_min":75,"x_max":910,"o":"m 636 1021 l 540 1021 l 768 1238 l 910 1238 l 636 1021 m 75 0 l 569 972 l 647 972 l 804 0 l 710 0 l 669 251 l 304 251 l 178 0 l 75 0 m 347 338 l 657 338 l 596 726 q 583 814 586 785 q 543 726 578 801 l 347 338 z "},"Â":{"ha":885,"x_min":75,"x_max":857,"o":"m 769 1021 l 639 1161 l 460 1021 l 374 1021 l 599 1238 l 706 1238 l 857 1021 l 769 1021 m 75 0 l 569 972 l 647 972 l 804 0 l 710 0 l 669 251 l 304 251 l 178 0 l 75 0 m 347 338 l 657 338 l 596 726 q 583 814 586 785 q 543 726 578 801 l 347 338 z "},"Ã":{"ha":885,"x_min":75,"x_max":876,"o":"m 726 1057 q 612 1092 676 1057 q 518 1126 547 1126 q 444 1063 460 1126 l 393 1063 q 543 1215 419 1215 q 657 1180 594 1215 q 750 1144 719 1144 q 797 1162 776 1144 q 826 1210 818 1179 l 876 1210 q 726 1057 849 1057 m 75 0 l 569 972 l 647 972 l 804 0 l 710 0 l 669 251 l 304 251 l 178 0 l 75 0 m 347 338 l 657 338 l 596 726 q 583 814 586 785 q 543 726 578 801 l 347 338 z "},"Ä":{"ha":885,"x_min":75,"x_max":817,"o":"m 519 1076 q 482 1092 497 1076 q 467 1132 467 1108 q 490 1185 467 1163 q 542 1207 513 1207 q 580 1192 565 1207 q 594 1153 594 1176 q 572 1099 594 1122 q 519 1076 550 1076 m 742 1076 q 703 1092 719 1076 q 688 1132 688 1108 q 711 1185 688 1164 q 764 1207 735 1207 q 802 1192 788 1207 q 817 1153 817 1176 q 794 1099 817 1122 q 742 1076 771 1076 m 75 0 l 569 972 l 647 972 l 804 0 l 710 0 l 669 251 l 304 251 l 178 0 l 75 0 m 347 338 l 657 338 l 596 726 q 583 814 586 785 q 543 726 578 801 l 347 338 z "},"Å":{"ha":885,"x_min":75,"x_max":804,"o":"m 661 896 l 804 0 l 710 0 l 669 251 l 304 251 l 178 0 l 75 0 l 531 897 q 465 1015 465 936 q 522 1140 465 1088 q 649 1193 578 1193 q 740 1155 703 1193 q 776 1061 776 1117 q 743 963 776 1008 q 661 896 710 918 m 636 1121 q 572 1094 600 1121 q 544 1024 544 1067 q 562 973 544 993 q 606 953 579 953 q 671 982 643 953 q 699 1054 699 1011 q 681 1103 699 1085 q 636 1121 664 1121 m 347 338 l 657 338 l 596 726 q 583 814 586 785 q 543 726 578 801 l 347 338 z "},"Æ":{"ha":1168,"x_min":-11,"x_max":1215,"o":"m -11 0 l 703 972 l 1215 972 l 1201 885 l 842 885 l 782 547 l 1014 547 l 997 460 l 767 460 l 701 88 l 1090 88 l 1075 0 l 589 0 l 633 251 l 288 251 l 106 0 l -11 0 m 350 338 l 649 338 l 746 892 q 689 810 743 886 l 350 338 z "},"Ç":{"ha":860,"x_min":167,"x_max":914,"o":"m 526 -281 q 501 -303 526 -281 q 403 -325 475 -325 q 292 -286 331 -325 l 361 -244 q 406 -258 368 -258 q 464 -235 438 -258 q 490 -181 490 -212 q 469 -139 490 -157 q 419 -121 447 -121 q 371 -128 385 -121 l 357 -107 l 443 -15 q 235 105 303 -4 q 167 367 167 214 q 198 594 167 485 q 288 793 229 704 q 442 935 347 882 q 656 989 538 989 q 826 947 769 989 q 914 832 883 904 l 821 782 q 753 871 793 839 q 640 903 714 903 q 474 853 549 903 q 355 725 399 804 q 288 557 311 646 q 265 379 265 468 q 322 160 265 249 q 493 71 379 71 q 732 194 636 71 l 807 161 q 682 40 760 89 q 501 -15 604 -10 l 457 -76 q 549 -104 519 -76 q 578 -171 578 -132 q 526 -281 578 -236 z "},"È":{"ha":796,"x_min":139,"x_max":843,"o":"m 557 1021 l 357 1238 l 500 1238 l 651 1021 l 557 1021 m 139 0 l 310 972 l 843 972 l 829 885 l 392 885 l 332 547 l 628 547 l 611 460 l 317 460 l 251 88 l 718 88 l 703 0 l 139 0 z "},"É":{"ha":796,"x_min":139,"x_max":882,"o":"m 608 1021 l 513 1021 l 740 1238 l 882 1238 l 608 1021 m 139 0 l 310 972 l 843 972 l 829 885 l 392 885 l 332 547 l 628 547 l 611 460 l 317 460 l 251 88 l 718 88 l 703 0 l 139 0 z "},"Ê":{"ha":796,"x_min":139,"x_max":843,"o":"m 742 1021 l 611 1161 l 432 1021 l 346 1021 l 571 1238 l 678 1238 l 829 1021 l 742 1021 m 139 0 l 310 972 l 843 972 l 829 885 l 392 885 l 332 547 l 628 547 l 611 460 l 317 460 l 251 88 l 718 88 l 703 0 l 139 0 z "},"Ë":{"ha":796,"x_min":139,"x_max":843,"o":"m 492 1076 q 454 1092 469 1076 q 439 1132 439 1108 q 462 1185 439 1163 q 514 1207 485 1207 q 552 1192 538 1207 q 567 1153 567 1176 q 544 1099 567 1122 q 492 1076 522 1076 m 714 1076 q 676 1092 692 1076 q 660 1132 660 1108 q 683 1185 660 1164 q 736 1207 707 1207 q 774 1192 760 1207 q 789 1153 789 1176 q 766 1099 789 1122 q 714 1076 743 1076 m 139 0 l 310 972 l 843 972 l 829 885 l 392 885 l 332 547 l 628 547 l 611 460 l 317 460 l 251 88 l 718 88 l 703 0 l 139 0 z "},"Ì":{"ha":375,"x_min":138,"x_max":432,"o":"m 338 1021 l 138 1238 l 281 1238 l 432 1021 l 338 1021 m 139 0 l 310 972 l 407 972 l 236 0 l 139 0 z "},"Í":{"ha":375,"x_min":139,"x_max":663,"o":"m 389 1021 l 293 1021 l 521 1238 l 663 1238 l 389 1021 m 139 0 l 310 972 l 407 972 l 236 0 l 139 0 z "},"Î":{"ha":375,"x_min":126,"x_max":610,"o":"m 522 1021 l 392 1161 l 213 1021 l 126 1021 l 351 1238 l 458 1238 l 610 1021 l 522 1021 m 139 0 l 310 972 l 407 972 l 236 0 l 139 0 z "},"Ï":{"ha":375,"x_min":139,"x_max":569,"o":"m 272 1076 q 235 1092 250 1076 q 219 1132 219 1108 q 242 1185 219 1163 q 294 1207 265 1207 q 333 1192 318 1207 q 347 1153 347 1176 q 325 1099 347 1122 q 272 1076 303 1076 m 494 1076 q 456 1092 472 1076 q 440 1132 440 1108 q 464 1185 440 1164 q 517 1207 488 1207 q 555 1192 540 1207 q 569 1153 569 1176 q 547 1099 569 1122 q 494 1076 524 1076 m 139 0 l 310 972 l 407 972 l 236 0 l 139 0 z "},"Ð":{"ha":906,"x_min":125,"x_max":911,"o":"m 139 0 l 217 442 l 125 442 l 140 528 l 232 528 l 310 972 l 556 972 q 822 855 732 972 q 911 567 911 738 q 898 423 911 494 q 847 273 885 351 q 753 135 810 194 q 601 38 696 76 q 383 0 506 0 l 139 0 m 251 88 l 406 88 q 570 119 497 88 q 688 199 643 150 q 761 314 732 249 q 802 442 790 379 q 814 567 814 504 q 749 791 814 697 q 560 885 685 885 l 392 885 l 329 528 l 535 528 l 519 442 l 314 442 l 251 88 z "},"Ñ":{"ha":940,"x_min":139,"x_max":975,"o":"m 756 1057 q 642 1092 706 1057 q 547 1126 578 1126 q 474 1063 489 1126 l 422 1063 q 572 1215 449 1215 q 686 1180 622 1215 q 779 1144 750 1144 q 826 1162 806 1144 q 856 1210 847 1179 l 906 1210 q 756 1057 878 1057 m 139 0 l 310 972 l 400 972 l 713 224 l 736 167 q 746 222 744 213 l 878 972 l 975 972 l 804 0 l 706 0 l 417 692 l 375 792 q 357 690 360 707 l 236 0 l 139 0 z "},"Ò":{"ha":961,"x_min":167,"x_max":967,"o":"m 624 1021 l 424 1238 l 567 1238 l 718 1021 l 624 1021 m 489 -17 q 247 93 326 -17 q 167 367 167 203 q 197 581 167 474 q 283 781 226 688 q 433 931 339 874 q 646 989 528 989 q 832 931 757 989 q 937 790 907 872 q 967 606 967 707 q 949 435 967 521 q 892 267 931 349 q 799 123 854 186 q 664 22 744 60 q 489 -17 583 -17 m 489 71 q 658 120 582 71 q 778 249 733 169 q 846 421 822 329 q 869 606 869 513 q 849 747 869 683 q 775 856 828 811 q 646 901 722 901 q 477 852 553 901 q 356 723 401 803 q 288 551 311 643 q 264 367 264 460 q 319 156 264 240 q 489 71 375 71 z "},"Ó":{"ha":961,"x_min":167,"x_max":967,"o":"m 675 1021 l 579 1021 l 807 1238 l 949 1238 l 675 1021 m 489 -17 q 247 93 326 -17 q 167 367 167 203 q 197 581 167 474 q 283 781 226 688 q 433 931 339 874 q 646 989 528 989 q 832 931 757 989 q 937 790 907 872 q 967 606 967 707 q 949 435 967 521 q 892 267 931 349 q 799 123 854 186 q 664 22 744 60 q 489 -17 583 -17 m 489 71 q 658 120 582 71 q 778 249 733 169 q 846 421 822 329 q 869 606 869 513 q 849 747 869 683 q 775 856 828 811 q 646 901 722 901 q 477 852 553 901 q 356 723 401 803 q 288 551 311 643 q 264 367 264 460 q 319 156 264 240 q 489 71 375 71 z "},"Ô":{"ha":961,"x_min":167,"x_max":967,"o":"m 808 1021 l 678 1161 l 499 1021 l 413 1021 l 638 1238 l 744 1238 l 896 1021 l 808 1021 m 489 -17 q 247 93 326 -17 q 167 367 167 203 q 197 581 167 474 q 283 781 226 688 q 433 931 339 874 q 646 989 528 989 q 832 931 757 989 q 937 790 907 872 q 967 606 967 707 q 949 435 967 521 q 892 267 931 349 q 799 123 854 186 q 664 22 744 60 q 489 -17 583 -17 m 489 71 q 658 120 582 71 q 778 249 733 169 q 846 421 822 329 q 869 606 869 513 q 849 747 869 683 q 775 856 828 811 q 646 901 722 901 q 477 852 553 901 q 356 723 401 803 q 288 551 311 643 q 264 367 264 460 q 319 156 264 240 q 489 71 375 71 z "},"Õ":{"ha":961,"x_min":167,"x_max":967,"o":"m 765 1057 q 650 1092 714 1057 q 557 1126 586 1126 q 483 1063 499 1126 l 432 1063 q 582 1215 458 1215 q 696 1180 633 1215 q 789 1144 758 1144 q 836 1162 815 1144 q 865 1210 857 1179 l 915 1210 q 765 1057 888 1057 m 489 -17 q 247 93 326 -17 q 167 367 167 203 q 197 581 167 474 q 283 781 226 688 q 433 931 339 874 q 646 989 528 989 q 832 931 757 989 q 937 790 907 872 q 967 606 967 707 q 949 435 967 521 q 892 267 931 349 q 799 123 854 186 q 664 22 744 60 q 489 -17 583 -17 m 489 71 q 658 120 582 71 q 778 249 733 169 q 846 421 822 329 q 869 606 869 513 q 849 747 869 683 q 775 856 828 811 q 646 901 722 901 q 477 852 553 901 q 356 723 401 803 q 288 551 311 643 q 264 367 264 460 q 319 156 264 240 q 489 71 375 71 z "},"Ö":{"ha":961,"x_min":167,"x_max":967,"o":"m 558 1076 q 521 1092 536 1076 q 506 1132 506 1108 q 528 1185 506 1163 q 581 1207 551 1207 q 619 1192 604 1207 q 633 1153 633 1176 q 611 1099 633 1122 q 558 1076 589 1076 m 781 1076 q 742 1092 758 1076 q 726 1132 726 1108 q 750 1185 726 1164 q 803 1207 774 1207 q 841 1192 826 1207 q 856 1153 856 1176 q 833 1099 856 1122 q 781 1076 810 1076 m 489 -17 q 247 93 326 -17 q 167 367 167 203 q 197 581 167 474 q 283 781 226 688 q 433 931 339 874 q 646 989 528 989 q 832 931 757 989 q 937 790 907 872 q 967 606 967 707 q 949 435 967 521 q 892 267 931 349 q 799 123 854 186 q 664 22 744 60 q 489 -17 583 -17 m 489 71 q 658 120 582 71 q 778 249 733 169 q 846 421 822 329 q 869 606 869 513 q 849 747 869 683 q 775 856 828 811 q 646 901 722 901 q 477 852 553 901 q 356 723 401 803 q 288 551 311 643 q 264 367 264 460 q 319 156 264 240 q 489 71 375 71 z "},"×":{"ha":910,"x_min":231,"x_max":844,"o":"m 540 407 l 303 168 l 231 238 l 472 478 l 232 714 l 300 781 l 538 543 l 775 782 l 844 711 l 606 475 l 843 235 l 778 169 l 540 407 z "},"Ø":{"ha":961,"x_min":107,"x_max":1026,"o":"m 107 -17 l 218 119 q 167 365 167 208 q 195 579 167 474 q 279 778 224 685 q 433 931 335 872 q 656 989 531 989 q 865 914 788 989 l 928 989 l 1026 989 l 915 853 q 967 604 967 764 q 950 435 967 519 q 895 269 933 351 q 802 124 857 186 q 663 22 747 61 q 478 -17 579 -17 q 264 58 346 -17 l 203 -17 l 107 -17 m 288 206 l 803 836 q 639 901 742 901 q 472 852 546 901 q 353 723 397 803 q 287 553 310 643 q 264 371 264 463 q 288 206 264 264 m 493 71 q 662 120 588 71 q 780 249 736 169 q 847 417 824 328 q 869 597 869 507 q 843 767 869 704 l 328 136 q 493 71 386 71 z "},"Ù":{"ha":908,"x_min":185,"x_max":949,"o":"m 599 1021 l 399 1238 l 542 1238 l 693 1021 l 599 1021 m 471 -17 q 263 53 340 -17 q 185 263 185 124 q 194 371 185 317 l 300 972 l 397 972 l 290 363 q 282 267 282 310 q 474 71 282 71 q 645 135 575 71 q 744 361 715 200 l 851 972 l 949 972 l 842 361 q 717 72 807 161 q 471 -17 626 -17 z "},"Ú":{"ha":908,"x_min":185,"x_max":949,"o":"m 650 1021 l 554 1021 l 782 1238 l 924 1238 l 650 1021 m 471 -17 q 263 53 340 -17 q 185 263 185 124 q 194 371 185 317 l 300 972 l 397 972 l 290 363 q 282 267 282 310 q 474 71 282 71 q 645 135 575 71 q 744 361 715 200 l 851 972 l 949 972 l 842 361 q 717 72 807 161 q 471 -17 626 -17 z "},"Û":{"ha":908,"x_min":185,"x_max":949,"o":"m 783 1021 l 653 1161 l 474 1021 l 388 1021 l 613 1238 l 719 1238 l 871 1021 l 783 1021 m 471 -17 q 263 53 340 -17 q 185 263 185 124 q 194 371 185 317 l 300 972 l 397 972 l 290 363 q 282 267 282 310 q 474 71 282 71 q 645 135 575 71 q 744 361 715 200 l 851 972 l 949 972 l 842 361 q 717 72 807 161 q 471 -17 626 -17 z "},"Ü":{"ha":908,"x_min":185,"x_max":949,"o":"m 533 1076 q 496 1092 511 1076 q 481 1132 481 1108 q 503 1185 481 1163 q 556 1207 526 1207 q 594 1192 579 1207 q 608 1153 608 1176 q 586 1099 608 1122 q 533 1076 564 1076 m 756 1076 q 717 1092 733 1076 q 701 1132 701 1108 q 725 1185 701 1164 q 778 1207 749 1207 q 816 1192 801 1207 q 831 1153 831 1176 q 808 1099 831 1122 q 756 1076 785 1076 m 471 -17 q 263 53 340 -17 q 185 263 185 124 q 194 371 185 317 l 300 972 l 397 972 l 290 363 q 282 267 282 310 q 474 71 282 71 q 645 135 575 71 q 744 361 715 200 l 851 972 l 949 972 l 842 361 q 717 72 807 161 q 471 -17 626 -17 z "},"Ý":{"ha":824,"x_min":232,"x_max":933,"o":"m 610 1021 l 514 1021 l 742 1238 l 883 1238 l 610 1021 m 363 0 l 431 389 l 232 972 l 331 972 l 490 472 l 833 972 l 933 972 l 522 379 l 456 0 l 363 0 z "},"Þ":{"ha":831,"x_min":140,"x_max":869,"o":"m 140 0 l 311 972 l 406 972 l 372 779 l 619 779 q 810 713 750 779 q 869 550 869 647 q 849 432 869 490 q 788 322 828 374 q 677 240 747 271 q 518 208 607 208 l 271 208 l 235 0 l 140 0 m 543 296 q 719 367 660 296 q 778 529 778 439 q 739 643 778 594 q 613 692 700 692 l 357 692 l 288 296 l 543 296 z "},"ß":{"ha":757,"x_min":57,"x_max":769,"o":"m 57 -282 l 224 664 q 345 908 253 828 q 546 989 438 989 q 708 931 647 989 q 769 779 769 872 q 726 627 769 694 q 601 535 682 560 q 703 456 668 510 q 738 333 738 401 q 639 83 738 183 q 400 -17 540 -17 q 299 6 338 -17 l 354 81 q 417 71 381 71 q 569 136 500 71 q 639 321 639 201 q 594 437 639 390 q 453 483 550 483 l 447 483 l 463 571 l 468 571 q 617 619 563 571 q 671 768 671 668 q 635 866 671 831 q 529 901 599 901 q 397 844 454 901 q 319 668 340 786 l 161 -232 l 57 -282 z "},"à":{"ha":711,"x_min":114,"x_max":693,"o":"m 475 799 l 275 1015 l 418 1015 l 569 799 l 475 799 m 513 0 l 522 58 q 318 -17 431 -17 q 169 39 224 -17 q 114 188 114 94 q 200 390 114 322 q 404 458 286 458 q 583 406 508 458 l 594 468 q 601 528 601 503 q 486 642 601 642 q 261 565 379 642 l 249 649 q 493 726 381 726 q 633 682 574 726 q 693 539 693 638 q 686 472 693 511 l 603 0 l 513 0 m 335 68 q 449 99 392 68 q 543 172 506 129 l 567 313 q 403 374 490 374 q 261 329 318 374 q 204 197 204 285 q 238 104 204 140 q 335 68 272 68 z "},"á":{"ha":711,"x_min":114,"x_max":800,"o":"m 526 799 l 431 799 l 658 1015 l 800 1015 l 526 799 m 513 0 l 522 58 q 318 -17 431 -17 q 169 39 224 -17 q 114 188 114 94 q 200 390 114 322 q 404 458 286 458 q 583 406 508 458 l 594 468 q 601 528 601 503 q 486 642 601 642 q 261 565 379 642 l 249 649 q 493 726 381 726 q 633 682 574 726 q 693 539 693 638 q 686 472 693 511 l 603 0 l 513 0 m 335 68 q 449 99 392 68 q 543 172 506 129 l 567 313 q 403 374 490 374 q 261 329 318 374 q 204 197 204 285 q 238 104 204 140 q 335 68 272 68 z "},"â":{"ha":711,"x_min":114,"x_max":747,"o":"m 660 799 l 529 939 l 350 799 l 264 799 l 489 1015 l 596 1015 l 747 799 l 660 799 m 513 0 l 522 58 q 318 -17 431 -17 q 169 39 224 -17 q 114 188 114 94 q 200 390 114 322 q 404 458 286 458 q 583 406 508 458 l 594 468 q 601 528 601 503 q 486 642 601 642 q 261 565 379 642 l 249 649 q 493 726 381 726 q 633 682 574 726 q 693 539 693 638 q 686 472 693 511 l 603 0 l 513 0 m 335 68 q 449 99 392 68 q 543 172 506 129 l 567 313 q 403 374 490 374 q 261 329 318 374 q 204 197 204 285 q 238 104 204 140 q 335 68 272 68 z "},"ã":{"ha":711,"x_min":114,"x_max":767,"o":"m 617 835 q 503 869 567 835 q 408 904 439 904 q 335 840 350 904 l 283 840 q 433 993 310 993 q 547 958 483 993 q 640 922 611 922 q 688 940 667 922 q 717 988 708 957 l 767 988 q 617 835 739 835 m 513 0 l 522 58 q 318 -17 431 -17 q 169 39 224 -17 q 114 188 114 94 q 200 390 114 322 q 404 458 286 458 q 583 406 508 458 l 594 468 q 601 528 601 503 q 486 642 601 642 q 261 565 379 642 l 249 649 q 493 726 381 726 q 633 682 574 726 q 693 539 693 638 q 686 472 693 511 l 603 0 l 513 0 m 335 68 q 449 99 392 68 q 543 172 506 129 l 567 313 q 403 374 490 374 q 261 329 318 374 q 204 197 204 285 q 238 104 204 140 q 335 68 272 68 z "},"ä":{"ha":711,"x_min":114,"x_max":707,"o":"m 410 854 q 372 870 388 854 q 357 910 357 886 q 380 963 357 940 q 432 985 403 985 q 470 969 456 985 q 485 931 485 954 q 463 877 485 900 q 410 854 440 854 m 632 854 q 594 870 610 854 q 578 910 578 886 q 601 963 578 942 q 654 985 625 985 q 692 969 678 985 q 707 931 707 954 q 684 877 707 900 q 632 854 661 854 m 513 0 l 522 58 q 318 -17 431 -17 q 169 39 224 -17 q 114 188 114 94 q 200 390 114 322 q 404 458 286 458 q 583 406 508 458 l 594 468 q 601 528 601 503 q 486 642 601 642 q 261 565 379 642 l 249 649 q 493 726 381 726 q 633 682 574 726 q 693 539 693 638 q 686 472 693 511 l 603 0 l 513 0 m 335 68 q 449 99 392 68 q 543 172 506 129 l 567 313 q 403 374 490 374 q 261 329 318 374 q 204 197 204 285 q 238 104 204 140 q 335 68 272 68 z "},"å":{"ha":711,"x_min":114,"x_max":693,"o":"m 504 797 q 413 837 450 797 q 376 932 376 876 q 433 1057 376 1004 q 560 1110 489 1110 q 651 1072 614 1110 q 688 978 688 1033 q 631 851 688 906 q 504 797 574 797 m 517 869 q 582 899 554 869 q 610 971 610 928 q 592 1019 610 1001 q 547 1038 575 1038 q 483 1010 511 1038 q 456 940 456 983 q 473 890 456 910 q 517 869 490 869 m 513 0 l 522 58 q 318 -17 431 -17 q 169 39 224 -17 q 114 188 114 94 q 200 390 114 322 q 404 458 286 458 q 583 406 508 458 l 594 468 q 601 528 601 503 q 486 642 601 642 q 261 565 379 642 l 249 649 q 493 726 381 726 q 633 682 574 726 q 693 539 693 638 q 686 472 693 511 l 603 0 l 513 0 m 335 68 q 449 99 392 68 q 543 172 506 129 l 567 313 q 403 374 490 374 q 261 329 318 374 q 204 197 204 285 q 238 104 204 140 q 335 68 272 68 z "},"æ":{"ha":1150,"x_min":114,"x_max":1163,"o":"m 318 -17 q 169 39 225 -17 q 114 188 114 94 q 198 389 114 319 q 410 458 282 458 q 583 406 510 458 l 594 468 q 601 525 601 503 q 486 642 601 642 q 261 565 379 642 l 249 649 q 493 726 381 726 q 614 692 565 726 q 679 603 663 658 q 921 726 772 726 q 1101 659 1039 726 q 1163 467 1163 592 q 1136 315 1163 413 l 672 315 q 671 290 671 303 q 713 130 671 186 q 831 74 754 74 q 994 129 914 74 l 1038 58 q 819 -17 936 -17 q 684 26 743 -17 q 600 142 625 68 q 318 -17 486 -17 m 683 403 l 1058 403 q 1068 483 1068 443 q 1027 599 1068 558 q 921 639 986 639 q 774 579 839 639 q 683 403 710 519 m 335 68 q 576 215 460 68 q 572 258 572 254 q 571 308 571 279 q 403 374 497 374 q 260 330 317 374 q 204 197 204 286 q 238 104 204 140 q 335 68 272 68 z "},"ç":{"ha":643,"x_min":125,"x_max":674,"o":"m 282 -325 q 172 -286 208 -325 l 240 -244 q 286 -258 249 -258 q 345 -235 318 -258 q 372 -181 372 -212 q 350 -139 372 -157 q 300 -121 328 -121 q 250 -128 265 -121 l 238 -107 l 322 -15 q 177 63 229 -10 q 125 257 125 136 q 224 598 125 469 q 482 726 322 726 q 609 688 558 726 q 674 578 660 649 l 583 543 q 463 639 564 639 q 323 583 379 639 q 244 447 267 528 q 222 263 222 365 q 257 122 222 172 q 360 71 292 71 q 531 179 472 71 l 608 146 q 516 39 575 81 q 383 -14 457 -3 l 336 -76 q 427 -104 399 -76 q 456 -171 456 -132 q 405 -281 456 -237 q 282 -325 354 -325 z "},"è":{"ha":706,"x_min":125,"x_max":717,"o":"m 458 799 l 258 1015 l 401 1015 l 553 799 l 458 799 m 374 -17 q 192 68 260 -17 q 125 281 125 153 q 225 599 125 472 q 475 726 325 726 q 651 663 586 726 q 717 464 717 599 q 690 315 717 403 l 225 315 l 225 296 q 265 132 225 190 q 385 74 306 74 q 549 129 467 74 l 592 58 q 374 -17 492 -17 m 238 403 l 613 403 q 622 472 622 440 q 580 601 622 563 q 475 639 538 639 q 319 571 379 639 q 238 403 260 503 z "},"é":{"ha":706,"x_min":125,"x_max":783,"o":"m 510 799 l 414 799 l 642 1015 l 783 1015 l 510 799 m 374 -17 q 192 68 260 -17 q 125 281 125 153 q 225 599 125 472 q 475 726 325 726 q 651 663 586 726 q 717 464 717 599 q 690 315 717 403 l 225 315 l 225 296 q 265 132 225 190 q 385 74 306 74 q 549 129 467 74 l 592 58 q 374 -17 492 -17 m 238 403 l 613 403 q 622 472 622 440 q 580 601 622 563 q 475 639 538 639 q 319 571 379 639 q 238 403 260 503 z "},"ê":{"ha":706,"x_min":125,"x_max":731,"o":"m 643 799 l 513 939 l 333 799 l 247 799 l 472 1015 l 579 1015 l 731 799 l 643 799 m 374 -17 q 192 68 260 -17 q 125 281 125 153 q 225 599 125 472 q 475 726 325 726 q 651 663 586 726 q 717 464 717 599 q 690 315 717 403 l 225 315 l 225 296 q 265 132 225 190 q 385 74 306 74 q 549 129 467 74 l 592 58 q 374 -17 492 -17 m 238 403 l 613 403 q 622 472 622 440 q 580 601 622 563 q 475 639 538 639 q 319 571 379 639 q 238 403 260 503 z "},"ë":{"ha":706,"x_min":125,"x_max":717,"o":"m 393 854 q 356 870 371 854 q 340 910 340 886 q 363 963 340 940 q 415 985 386 985 q 453 969 439 985 q 468 931 468 954 q 446 877 468 900 q 393 854 424 854 m 615 854 q 577 870 593 854 q 561 910 561 886 q 585 963 561 942 q 638 985 608 985 q 676 969 661 985 q 690 931 690 954 q 667 877 690 900 q 615 854 644 854 m 374 -17 q 192 68 260 -17 q 125 281 125 153 q 225 599 125 472 q 475 726 325 726 q 651 663 586 726 q 717 464 717 599 q 690 315 717 403 l 225 315 l 225 296 q 265 132 225 190 q 385 74 306 74 q 549 129 467 74 l 592 58 q 374 -17 492 -17 m 238 403 l 613 403 q 622 472 622 440 q 580 601 622 563 q 475 639 538 639 q 319 571 379 639 q 238 403 260 503 z "},"ì":{"ha":335,"x_min":75,"x_max":369,"o":"m 275 799 l 75 1015 l 218 1015 l 369 799 l 275 799 m 118 0 l 243 710 l 336 710 l 211 0 l 118 0 z "},"í":{"ha":335,"x_min":118,"x_max":600,"o":"m 326 799 l 231 799 l 458 1015 l 600 1015 l 326 799 m 118 0 l 243 710 l 336 710 l 211 0 l 118 0 z "},"î":{"ha":335,"x_min":64,"x_max":547,"o":"m 460 799 l 329 939 l 150 799 l 64 799 l 289 1015 l 396 1015 l 547 799 l 460 799 m 118 0 l 243 710 l 336 710 l 211 0 l 118 0 z "},"ï":{"ha":335,"x_min":118,"x_max":507,"o":"m 210 854 q 172 870 188 854 q 157 910 157 886 q 180 963 157 940 q 232 985 203 985 q 270 969 256 985 q 285 931 285 954 q 263 877 285 900 q 210 854 240 854 m 432 854 q 394 870 410 854 q 378 910 378 886 q 401 963 378 942 q 454 985 425 985 q 492 969 478 985 q 507 931 507 954 q 484 877 507 900 q 432 854 461 854 m 118 0 l 243 710 l 336 710 l 211 0 l 118 0 z "},"ð":{"ha":732,"x_min":121,"x_max":739,"o":"m 364 -17 q 185 58 250 -17 q 121 254 121 133 q 224 526 121 419 q 474 633 328 633 q 654 513 614 633 q 547 828 654 728 l 442 731 l 407 778 l 499 865 q 340 915 432 907 l 354 989 q 561 924 478 978 l 651 1010 l 690 961 l 608 886 q 739 510 739 758 q 638 124 739 265 q 364 -17 536 -17 m 379 71 q 546 153 472 71 q 619 351 619 236 q 578 493 619 440 q 463 546 536 546 q 294 463 367 546 q 221 260 221 381 q 261 119 221 168 q 379 71 301 71 z "},"ñ":{"ha":750,"x_min":118,"x_max":776,"o":"m 626 835 q 511 869 575 835 q 418 904 447 904 q 344 840 360 904 l 293 840 q 443 993 319 993 q 557 958 494 993 q 650 922 619 922 q 697 940 676 922 q 726 988 718 957 l 776 988 q 626 835 749 835 m 118 0 l 243 710 l 340 710 l 326 632 q 524 726 406 726 q 667 672 617 726 q 718 507 718 617 q 708 393 718 447 l 639 0 l 542 0 l 617 428 q 624 500 624 467 q 592 603 624 567 q 501 639 560 639 q 365 581 424 639 q 290 431 306 524 l 215 0 l 118 0 z "},"ò":{"ha":732,"x_min":122,"x_max":733,"o":"m 472 799 l 272 1015 l 415 1015 l 567 799 l 472 799 m 374 -17 q 185 66 247 -17 q 122 272 122 149 q 145 430 122 351 q 210 576 168 508 q 324 685 253 643 q 482 726 394 726 q 672 642 610 726 q 733 438 733 557 q 711 281 733 358 q 647 135 689 203 q 533 25 604 67 q 374 -17 461 -17 m 374 71 q 520 130 458 71 q 609 269 582 189 q 636 438 636 350 q 598 580 636 521 q 482 639 560 639 q 336 581 399 639 q 247 441 274 522 q 219 272 219 360 q 258 128 219 186 q 374 71 296 71 z "},"ó":{"ha":732,"x_min":122,"x_max":797,"o":"m 524 799 l 428 799 l 656 1015 l 797 1015 l 524 799 m 374 -17 q 185 66 247 -17 q 122 272 122 149 q 145 430 122 351 q 210 576 168 508 q 324 685 253 643 q 482 726 394 726 q 672 642 610 726 q 733 438 733 557 q 711 281 733 358 q 647 135 689 203 q 533 25 604 67 q 374 -17 461 -17 m 374 71 q 520 130 458 71 q 609 269 582 189 q 636 438 636 350 q 598 580 636 521 q 482 639 560 639 q 336 581 399 639 q 247 441 274 522 q 219 272 219 360 q 258 128 219 186 q 374 71 296 71 z "},"ô":{"ha":732,"x_min":122,"x_max":744,"o":"m 657 799 l 526 939 l 347 799 l 261 799 l 486 1015 l 593 1015 l 744 799 l 657 799 m 374 -17 q 185 66 247 -17 q 122 272 122 149 q 145 430 122 351 q 210 576 168 508 q 324 685 253 643 q 482 726 394 726 q 672 642 610 726 q 733 438 733 557 q 711 281 733 358 q 647 135 689 203 q 533 25 604 67 q 374 -17 461 -17 m 374 71 q 520 130 458 71 q 609 269 582 189 q 636 438 636 350 q 598 580 636 521 q 482 639 560 639 q 336 581 399 639 q 247 441 274 522 q 219 272 219 360 q 258 128 219 186 q 374 71 296 71 z "},"õ":{"ha":732,"x_min":122,"x_max":764,"o":"m 614 835 q 500 869 564 835 q 406 904 436 904 q 332 840 347 904 l 281 840 q 431 993 307 993 q 544 958 481 993 q 638 922 608 922 q 685 940 664 922 q 714 988 706 957 l 764 988 q 614 835 736 835 m 374 -17 q 185 66 247 -17 q 122 272 122 149 q 145 430 122 351 q 210 576 168 508 q 324 685 253 643 q 482 726 394 726 q 672 642 610 726 q 733 438 733 557 q 711 281 733 358 q 647 135 689 203 q 533 25 604 67 q 374 -17 461 -17 m 374 71 q 520 130 458 71 q 609 269 582 189 q 636 438 636 350 q 598 580 636 521 q 482 639 560 639 q 336 581 399 639 q 247 441 274 522 q 219 272 219 360 q 258 128 219 186 q 374 71 296 71 z "},"ö":{"ha":732,"x_min":122,"x_max":733,"o":"m 407 854 q 369 870 385 854 q 354 910 354 886 q 377 963 354 940 q 429 985 400 985 q 467 969 453 985 q 482 931 482 954 q 460 877 482 900 q 407 854 438 854 m 629 854 q 591 870 607 854 q 575 910 575 886 q 599 963 575 942 q 651 985 622 985 q 690 969 675 985 q 704 931 704 954 q 681 877 704 900 q 629 854 658 854 m 374 -17 q 185 66 247 -17 q 122 272 122 149 q 145 430 122 351 q 210 576 168 508 q 324 685 253 643 q 482 726 394 726 q 672 642 610 726 q 733 438 733 557 q 711 281 733 358 q 647 135 689 203 q 533 25 604 67 q 374 -17 461 -17 m 374 71 q 520 130 458 71 q 609 269 582 189 q 636 438 636 350 q 598 580 636 521 q 482 639 560 639 q 336 581 399 639 q 247 441 274 522 q 219 272 219 360 q 258 128 219 186 q 374 71 296 71 z "},"÷":{"ha":910,"x_min":207,"x_max":860,"o":"m 529 696 q 481 715 500 696 q 463 763 463 735 q 482 810 463 789 q 529 831 501 831 q 579 810 558 831 q 600 763 600 789 q 580 715 600 735 q 529 696 560 696 m 207 428 l 207 522 l 860 522 l 860 428 l 207 428 m 529 122 q 481 140 500 122 q 463 186 463 158 q 481 235 463 215 q 529 254 500 254 q 580 234 560 254 q 600 186 600 214 q 580 140 600 158 q 529 122 560 122 z "},"ø":{"ha":732,"x_min":71,"x_max":785,"o":"m 71 -17 l 165 94 q 122 272 122 168 q 145 430 122 351 q 210 576 168 508 q 324 685 253 643 q 482 726 394 726 q 647 667 581 726 l 697 726 l 785 726 l 690 614 q 733 438 733 538 q 711 281 733 358 q 647 135 689 203 q 533 25 604 67 q 374 -17 461 -17 q 207 42 272 -17 l 158 -17 l 71 -17 m 233 176 l 586 594 q 482 639 546 639 q 336 581 399 639 q 247 441 274 522 q 219 272 219 360 q 233 176 219 218 m 374 71 q 520 130 458 71 q 609 269 582 189 q 636 438 636 350 q 621 532 636 492 l 269 114 q 374 71 308 71 z "},"ù":{"ha":749,"x_min":154,"x_max":757,"o":"m 474 799 l 274 1015 l 417 1015 l 568 799 l 474 799 m 535 0 l 547 68 q 363 -17 483 -17 q 154 203 154 -17 q 164 301 154 239 l 235 710 l 332 710 l 256 276 q 250 214 250 247 q 285 106 250 140 q 378 71 321 71 q 583 274 547 71 l 660 710 l 757 710 l 632 0 l 535 0 z "},"ú":{"ha":749,"x_min":154,"x_max":799,"o":"m 525 799 l 429 799 l 657 1015 l 799 1015 l 525 799 m 535 0 l 547 68 q 363 -17 483 -17 q 154 203 154 -17 q 164 301 154 239 l 235 710 l 332 710 l 256 276 q 250 214 250 247 q 285 106 250 140 q 378 71 321 71 q 583 274 547 71 l 660 710 l 757 710 l 632 0 l 535 0 z "},"û":{"ha":749,"x_min":154,"x_max":757,"o":"m 658 799 l 528 939 l 349 799 l 263 799 l 488 1015 l 594 1015 l 746 799 l 658 799 m 535 0 l 547 68 q 363 -17 483 -17 q 154 203 154 -17 q 164 301 154 239 l 235 710 l 332 710 l 256 276 q 250 214 250 247 q 285 106 250 140 q 378 71 321 71 q 583 274 547 71 l 660 710 l 757 710 l 632 0 l 535 0 z "},"ü":{"ha":749,"x_min":154,"x_max":757,"o":"m 408 854 q 371 870 386 854 q 356 910 356 886 q 378 963 356 940 q 431 985 401 985 q 469 969 454 985 q 483 931 483 954 q 461 877 483 900 q 408 854 439 854 m 631 854 q 592 870 608 854 q 576 910 576 886 q 600 963 576 942 q 653 985 624 985 q 691 969 676 985 q 706 931 706 954 q 683 877 706 900 q 631 854 660 854 m 535 0 l 547 68 q 363 -17 483 -17 q 154 203 154 -17 q 164 301 154 239 l 235 710 l 332 710 l 256 276 q 250 214 250 247 q 285 106 250 140 q 378 71 321 71 q 583 274 547 71 l 660 710 l 757 710 l 632 0 l 535 0 z "},"ý":{"ha":683,"x_min":142,"x_max":767,"o":"m 767 1015 l 493 799 l 397 799 l 625 1015 l 767 1015 m 385 194 l 654 710 l 760 710 l 240 -269 l 142 -269 l 294 22 l 165 710 l 265 710 l 349 194 q 357 143 357 147 q 385 194 357 150 z "},"þ":{"ha":757,"x_min":71,"x_max":754,"o":"m 399 -17 q 226 72 283 -17 l 172 -233 l 71 -282 l 288 942 l 389 989 l 328 646 q 383 686 360 671 q 447 714 407 701 q 529 726 486 726 q 695 649 636 726 q 754 444 754 572 q 653 110 754 236 q 399 -17 551 -17 m 403 71 q 588 170 519 71 q 656 429 656 269 q 615 581 656 524 q 503 639 575 639 q 307 529 386 639 l 246 181 q 403 71 310 71 z "},"ÿ":{"ha":683,"x_min":142,"x_max":760,"o":"m 376 854 q 339 870 354 854 q 324 910 324 886 q 347 963 324 940 q 399 985 369 985 q 437 969 422 985 q 451 931 451 954 q 429 877 451 900 q 376 854 407 854 m 599 854 q 560 870 576 854 q 544 910 544 886 q 568 963 544 942 q 621 985 592 985 q 659 969 644 985 q 674 931 674 954 q 651 877 674 900 q 599 854 628 854 m 654 710 l 760 710 l 240 -269 l 142 -269 l 294 22 l 165 710 l 265 710 l 349 194 q 357 143 357 147 q 385 194 357 150 l 654 710 z "},"Ā":{"ha":885,"x_min":75,"x_max":858,"o":"m 403 1067 l 418 1151 l 858 1151 l 843 1067 l 403 1067 m 75 0 l 569 972 l 647 972 l 804 0 l 710 0 l 669 251 l 304 251 l 178 0 l 75 0 m 347 338 l 657 338 l 596 726 q 583 814 586 785 q 543 726 578 801 l 347 338 z "},"ā":{"ha":711,"x_min":114,"x_max":749,"o":"m 293 844 l 308 929 l 749 929 l 733 844 l 293 844 m 513 0 l 522 58 q 318 -17 431 -17 q 169 39 224 -17 q 114 188 114 94 q 200 390 114 322 q 404 458 286 458 q 583 406 508 458 l 594 468 q 601 528 601 503 q 486 642 601 642 q 261 565 379 642 l 249 649 q 493 726 381 726 q 633 682 574 726 q 693 539 693 638 q 686 472 693 511 l 603 0 l 513 0 m 335 68 q 449 99 392 68 q 543 172 506 129 l 567 313 q 403 374 490 374 q 261 329 318 374 q 204 197 204 285 q 238 104 204 140 q 335 68 272 68 z "},"Ă":{"ha":885,"x_min":75,"x_max":888,"o":"m 617 1028 q 460 1078 514 1028 q 407 1201 407 1128 q 411 1251 407 1226 l 499 1251 q 496 1224 496 1232 q 624 1114 496 1114 q 735 1152 685 1114 q 796 1251 785 1190 l 888 1251 q 801 1090 869 1151 q 617 1028 733 1028 m 75 0 l 569 972 l 647 972 l 804 0 l 710 0 l 669 251 l 304 251 l 178 0 l 75 0 m 347 338 l 657 338 l 596 726 q 583 814 586 785 q 543 726 578 801 l 347 338 z "},"ă":{"ha":711,"x_min":114,"x_max":778,"o":"m 507 806 q 351 856 404 806 q 297 979 297 906 q 301 1029 297 1004 l 389 1029 q 386 1001 386 1010 q 514 892 386 892 q 625 930 575 892 q 686 1029 675 968 l 778 1029 q 692 867 760 929 q 507 806 624 806 m 513 0 l 522 58 q 318 -17 431 -17 q 169 39 224 -17 q 114 188 114 94 q 200 390 114 322 q 404 458 286 458 q 583 406 508 458 l 594 468 q 601 528 601 503 q 486 642 601 642 q 261 565 379 642 l 249 649 q 493 726 381 726 q 633 682 574 726 q 693 539 693 638 q 686 472 693 511 l 603 0 l 513 0 m 335 68 q 449 99 392 68 q 543 172 506 129 l 567 313 q 403 374 490 374 q 261 329 318 374 q 204 197 204 285 q 238 104 204 140 q 335 68 272 68 z "},"Ą":{"ha":885,"x_min":75,"x_max":804,"o":"m 638 -325 q 548 -295 583 -325 q 513 -212 513 -265 q 708 0 513 -67 l 668 251 l 304 251 l 178 0 l 75 0 l 569 972 l 647 972 l 804 0 q 597 -193 597 -71 q 615 -240 597 -224 q 658 -256 633 -256 q 736 -224 697 -256 l 781 -264 q 638 -325 719 -325 m 347 338 l 657 338 l 596 726 q 583 814 586 785 q 543 726 578 801 l 347 338 z "},"ą":{"ha":711,"x_min":114,"x_max":693,"o":"m 451 -325 q 363 -295 399 -325 q 328 -212 328 -265 q 513 0 328 -78 l 522 58 q 318 -17 431 -17 q 169 39 224 -17 q 114 188 114 94 q 200 390 114 322 q 404 458 286 458 q 583 406 508 458 l 594 468 q 601 528 601 503 q 486 642 601 642 q 261 565 379 642 l 249 649 q 493 726 381 726 q 633 682 574 726 q 693 539 693 638 q 686 472 693 511 l 603 0 q 456 -92 500 -40 q 411 -193 411 -144 q 429 -240 411 -224 q 472 -256 447 -256 q 551 -224 510 -256 l 594 -264 q 451 -325 533 -325 m 335 68 q 449 99 392 68 q 543 172 506 129 l 567 313 q 403 374 490 374 q 261 329 318 374 q 204 197 204 285 q 238 104 204 140 q 335 68 272 68 z "},"Ć":{"ha":860,"x_min":168,"x_max":953,"o":"m 679 1021 l 583 1021 l 811 1238 l 953 1238 l 679 1021 m 496 -17 q 310 44 388 -17 q 201 193 233 104 q 168 386 168 282 q 224 678 168 542 q 392 901 279 814 q 651 989 504 989 q 818 942 751 989 q 913 832 885 896 l 833 788 q 756 872 800 842 q 639 901 713 901 q 478 856 551 901 q 360 736 406 810 q 290 574 315 663 q 265 397 265 486 q 325 167 265 263 q 501 71 385 71 q 733 196 636 71 l 813 157 q 496 -17 701 -17 z "},"ć":{"ha":646,"x_min":125,"x_max":775,"o":"m 501 799 l 406 799 l 633 1015 l 775 1015 l 501 799 m 354 -17 q 188 61 251 -17 q 125 271 125 139 q 219 602 125 478 q 467 726 313 726 q 601 688 544 726 q 676 578 658 649 l 586 543 q 457 639 561 639 q 326 584 381 639 q 249 449 272 529 q 225 271 225 368 q 363 71 225 71 q 533 179 478 71 l 611 146 q 354 -17 531 -17 z "},"Ĉ":{"ha":860,"x_min":168,"x_max":913,"o":"m 813 1021 l 682 1161 l 503 1021 l 417 1021 l 642 1238 l 749 1238 l 900 1021 l 813 1021 m 496 -17 q 310 44 388 -17 q 201 193 233 104 q 168 386 168 282 q 224 678 168 542 q 392 901 279 814 q 651 989 504 989 q 818 942 751 989 q 913 832 885 896 l 833 788 q 756 872 800 842 q 639 901 713 901 q 478 856 551 901 q 360 736 406 810 q 290 574 315 663 q 265 397 265 486 q 325 167 265 263 q 501 71 385 71 q 733 196 636 71 l 813 157 q 496 -17 701 -17 z "},"ĉ":{"ha":646,"x_min":125,"x_max":722,"o":"m 635 799 l 504 939 l 325 799 l 239 799 l 464 1015 l 571 1015 l 722 799 l 635 799 m 354 -17 q 188 61 251 -17 q 125 271 125 139 q 219 602 125 478 q 467 726 313 726 q 601 688 544 726 q 676 578 658 649 l 586 543 q 457 639 561 639 q 326 584 381 639 q 249 449 272 529 q 225 271 225 368 q 363 71 225 71 q 533 179 478 71 l 611 146 q 354 -17 531 -17 z "},"Ċ":{"ha":860,"x_min":168,"x_max":913,"o":"m 667 1063 q 629 1078 644 1063 q 614 1118 614 1094 q 637 1171 614 1149 q 689 1193 660 1193 q 727 1178 713 1193 q 742 1139 742 1163 q 719 1085 742 1108 q 667 1063 697 1063 m 496 -17 q 310 44 388 -17 q 201 193 233 104 q 168 386 168 282 q 224 678 168 542 q 392 901 279 814 q 651 989 504 989 q 818 942 751 989 q 913 832 885 896 l 833 788 q 756 872 800 842 q 639 901 713 901 q 478 856 551 901 q 360 736 406 810 q 290 574 315 663 q 265 397 265 486 q 325 167 265 263 q 501 71 385 71 q 733 196 636 71 l 813 157 q 496 -17 701 -17 z "},"ċ":{"ha":646,"x_min":125,"x_max":676,"o":"m 489 840 q 451 856 467 840 q 436 896 436 872 q 459 949 436 926 q 511 971 482 971 q 549 956 535 971 q 564 917 564 940 q 542 863 564 886 q 489 840 519 840 m 354 -17 q 188 61 251 -17 q 125 271 125 139 q 219 602 125 478 q 467 726 313 726 q 601 688 544 726 q 676 578 658 649 l 586 543 q 457 639 561 639 q 326 584 381 639 q 249 449 272 529 q 225 271 225 368 q 363 71 225 71 q 533 179 478 71 l 611 146 q 354 -17 531 -17 z "},"Č":{"ha":860,"x_min":168,"x_max":939,"o":"m 713 1021 l 606 1021 l 456 1238 l 542 1238 l 672 1097 l 851 1238 l 939 1238 l 713 1021 m 496 -17 q 310 44 388 -17 q 201 193 233 104 q 168 386 168 282 q 224 678 168 542 q 392 901 279 814 q 651 989 504 989 q 818 942 751 989 q 913 832 885 896 l 833 788 q 756 872 800 842 q 639 901 713 901 q 478 856 551 901 q 360 736 406 810 q 290 574 315 663 q 265 397 265 486 q 325 167 265 263 q 501 71 385 71 q 733 196 636 71 l 813 157 q 496 -17 701 -17 z "},"č":{"ha":646,"x_min":125,"x_max":761,"o":"m 535 799 l 428 799 l 278 1015 l 364 1015 l 494 875 l 674 1015 l 761 1015 l 535 799 m 354 -17 q 188 61 251 -17 q 125 271 125 139 q 219 602 125 478 q 467 726 313 726 q 601 688 544 726 q 676 578 658 649 l 586 543 q 457 639 561 639 q 326 584 381 639 q 249 449 272 529 q 225 271 225 368 q 363 71 225 71 q 533 179 478 71 l 611 146 q 354 -17 531 -17 z "},"Ď":{"ha":906,"x_min":139,"x_max":911,"o":"m 644 1021 l 538 1021 l 388 1238 l 474 1238 l 604 1097 l 783 1238 l 871 1238 l 644 1021 m 310 972 l 556 972 q 722 936 650 972 q 833 839 793 900 q 892 710 872 778 q 911 567 911 642 q 897 416 911 490 q 844 265 882 342 q 748 130 806 188 q 596 36 690 72 q 383 0 501 0 l 139 0 l 310 972 m 406 88 q 568 118 496 88 q 685 198 640 149 q 760 312 731 247 q 802 440 790 376 q 814 567 814 503 q 750 790 814 696 q 560 885 686 885 l 392 885 l 251 88 l 406 88 z "},"ď":{"ha":974,"x_min":125,"x_max":1082,"o":"m 358 -17 q 188 67 250 -17 q 125 292 125 151 q 225 607 125 488 q 483 726 325 726 q 653 656 592 726 l 707 961 l 811 1003 l 635 0 l 538 0 l 547 60 q 358 -17 475 -17 m 1082 989 l 1079 974 q 919 672 1043 779 l 896 692 q 947 819 919 731 q 989 989 975 908 l 1082 989 m 379 71 q 569 181 490 71 l 632 538 q 479 639 589 639 q 294 542 361 639 q 226 288 226 444 q 265 132 226 193 q 379 71 304 71 z "},"Đ":{"ha":906,"x_min":125,"x_max":911,"o":"m 139 0 l 217 442 l 125 442 l 140 528 l 232 528 l 310 972 l 556 972 q 822 855 732 972 q 911 567 911 738 q 898 423 911 494 q 847 273 885 351 q 753 135 810 194 q 601 38 696 76 q 383 0 506 0 l 139 0 m 251 88 l 406 88 q 570 119 497 88 q 688 199 643 150 q 761 314 732 249 q 802 442 790 379 q 814 567 814 504 q 749 791 814 697 q 560 885 685 885 l 392 885 l 329 528 l 535 528 l 519 442 l 314 442 l 251 88 z "},"đ":{"ha":751,"x_min":125,"x_max":874,"o":"m 771 768 l 636 0 l 539 0 l 550 61 q 358 -17 474 -17 q 188 65 251 -17 q 125 283 125 146 q 224 567 125 456 q 476 679 322 679 q 647 613 578 679 l 675 768 l 485 768 l 500 856 l 690 856 l 708 961 l 813 1003 l 786 856 l 874 856 l 858 768 l 771 768 m 381 71 q 483 100 432 71 q 571 182 533 129 l 625 489 q 472 592 579 592 q 291 506 357 592 q 225 279 225 419 q 267 132 225 193 q 381 71 308 71 z "},"Ē":{"ha":796,"x_min":139,"x_max":843,"o":"m 375 1067 l 390 1151 l 831 1151 l 815 1067 l 375 1067 m 139 0 l 310 972 l 843 972 l 829 885 l 392 885 l 332 547 l 628 547 l 611 460 l 317 460 l 251 88 l 718 88 l 703 0 l 139 0 z "},"ē":{"ha":706,"x_min":125,"x_max":732,"o":"m 276 844 l 292 929 l 732 929 l 717 844 l 276 844 m 374 -17 q 192 68 260 -17 q 125 281 125 153 q 225 599 125 472 q 475 726 325 726 q 651 663 586 726 q 717 464 717 599 q 690 315 717 403 l 225 315 l 225 296 q 265 132 225 190 q 385 74 306 74 q 549 129 467 74 l 592 58 q 374 -17 492 -17 m 238 403 l 613 403 q 622 472 622 440 q 580 601 622 563 q 475 639 538 639 q 319 571 379 639 q 238 403 260 503 z "},"Ĕ":{"ha":796,"x_min":139,"x_max":860,"o":"m 589 1028 q 433 1078 486 1028 q 379 1201 379 1128 q 383 1251 379 1226 l 471 1251 q 468 1224 468 1232 q 596 1114 468 1114 q 707 1152 657 1114 q 768 1251 757 1190 l 860 1251 q 774 1090 842 1151 q 589 1028 706 1028 m 139 0 l 310 972 l 843 972 l 829 885 l 392 885 l 332 547 l 628 547 l 611 460 l 317 460 l 251 88 l 718 88 l 703 0 l 139 0 z "},"ĕ":{"ha":706,"x_min":125,"x_max":761,"o":"m 490 806 q 334 856 388 806 q 281 979 281 906 q 285 1029 281 1004 l 372 1029 q 369 1001 369 1010 q 497 892 369 892 q 608 930 558 892 q 669 1029 658 968 l 761 1029 q 675 867 743 929 q 490 806 607 806 m 374 -17 q 192 68 260 -17 q 125 281 125 153 q 225 599 125 472 q 475 726 325 726 q 651 663 586 726 q 717 464 717 599 q 690 315 717 403 l 225 315 l 225 296 q 265 132 225 190 q 385 74 306 74 q 549 129 467 74 l 592 58 q 374 -17 492 -17 m 238 403 l 613 403 q 622 472 622 440 q 580 601 622 563 q 475 639 538 639 q 319 571 379 639 q 238 403 260 503 z "},"Ė":{"ha":796,"x_min":139,"x_max":843,"o":"m 596 1063 q 558 1078 574 1063 q 543 1118 543 1094 q 566 1171 543 1149 q 618 1193 589 1193 q 656 1178 642 1193 q 671 1139 671 1163 q 649 1085 671 1108 q 596 1063 626 1063 m 139 0 l 310 972 l 843 972 l 829 885 l 392 885 l 332 547 l 628 547 l 611 460 l 317 460 l 251 88 l 718 88 l 703 0 l 139 0 z "},"ė":{"ha":706,"x_min":125,"x_max":717,"o":"m 497 840 q 460 856 475 840 q 444 896 444 872 q 467 949 444 926 q 519 971 490 971 q 558 956 543 971 q 572 917 572 940 q 550 863 572 886 q 497 840 528 840 m 374 -17 q 192 68 260 -17 q 125 281 125 153 q 225 599 125 472 q 475 726 325 726 q 651 663 586 726 q 717 464 717 599 q 690 315 717 403 l 225 315 l 225 296 q 265 132 225 190 q 385 74 306 74 q 549 129 467 74 l 592 58 q 374 -17 492 -17 m 238 403 l 613 403 q 622 472 622 440 q 580 601 622 563 q 475 639 538 639 q 319 571 379 639 q 238 403 260 503 z "},"Ę":{"ha":796,"x_min":140,"x_max":843,"o":"m 468 -325 q 378 -295 414 -325 q 343 -212 343 -265 q 526 0 343 -75 l 140 0 l 311 972 l 843 972 l 828 879 l 390 879 l 332 549 l 628 549 l 611 457 l 315 457 l 251 93 l 719 93 l 703 0 l 654 0 q 502 -62 576 0 q 428 -193 428 -124 q 446 -240 428 -224 q 489 -256 464 -256 q 567 -224 528 -256 l 611 -264 q 468 -325 550 -325 z "},"ę":{"ha":706,"x_min":125,"x_max":717,"o":"m 331 -325 q 241 -295 276 -325 q 206 -212 206 -265 q 361 -17 206 -97 q 332 -14 351 -17 q 180 85 235 3 q 125 281 125 167 q 225 599 125 472 q 475 726 325 726 q 651 663 586 726 q 717 464 717 599 q 690 315 717 403 l 225 315 l 225 296 q 265 132 225 190 q 385 74 306 74 q 549 129 467 74 l 592 58 q 478 -6 553 29 q 408 -40 432 -26 q 351 -76 383 -53 q 305 -128 319 -100 q 290 -193 290 -157 q 308 -240 290 -224 q 351 -256 326 -256 q 431 -224 389 -256 l 474 -264 q 331 -325 413 -325 m 238 403 l 613 403 q 622 472 622 440 q 580 601 622 563 q 475 639 538 639 q 319 571 379 639 q 238 403 260 503 z "},"Ě":{"ha":796,"x_min":139,"x_max":868,"o":"m 642 1021 l 535 1021 l 385 1238 l 471 1238 l 601 1097 l 781 1238 l 868 1238 l 642 1021 m 139 0 l 310 972 l 843 972 l 829 885 l 392 885 l 332 547 l 628 547 l 611 460 l 317 460 l 251 88 l 718 88 l 703 0 l 139 0 z "},"ě":{"ha":706,"x_min":125,"x_max":769,"o":"m 543 799 l 436 799 l 286 1015 l 372 1015 l 503 875 l 682 1015 l 769 1015 l 543 799 m 374 -17 q 192 68 260 -17 q 125 281 125 153 q 225 599 125 472 q 475 726 325 726 q 651 663 586 726 q 717 464 717 599 q 690 315 717 403 l 225 315 l 225 296 q 265 132 225 190 q 385 74 306 74 q 549 129 467 74 l 592 58 q 374 -17 492 -17 m 238 403 l 613 403 q 622 472 622 440 q 580 601 622 563 q 475 639 538 639 q 319 571 379 639 q 238 403 260 503 z "},"Ĝ":{"ha":915,"x_min":168,"x_max":914,"o":"m 806 1021 l 675 1161 l 496 1021 l 410 1021 l 635 1238 l 742 1238 l 893 1021 l 806 1021 m 492 -17 q 251 96 333 -17 q 168 367 168 208 q 187 550 168 461 q 245 719 206 639 q 340 858 285 799 q 476 953 396 918 q 649 989 556 989 q 821 942 756 989 q 914 832 886 894 l 828 786 q 631 901 771 901 q 431 819 517 901 q 306 621 346 738 q 265 379 265 504 q 324 160 265 249 q 496 71 382 71 q 666 136 597 71 q 754 313 735 201 l 764 371 l 596 371 l 611 457 l 882 457 l 860 335 q 730 72 828 160 q 492 -17 632 -17 z "},"ĝ":{"ha":753,"x_min":125,"x_max":757,"o":"m 643 799 l 513 939 l 333 799 l 247 799 l 472 1015 l 579 1015 l 731 799 l 643 799 m 231 -219 q 451 -161 385 -211 q 532 -28 517 -111 l 549 68 q 360 -17 475 -17 q 188 65 251 -17 q 125 275 125 147 q 222 600 125 474 q 469 726 318 726 q 650 643 581 726 l 663 710 l 757 710 l 629 -11 q 590 -133 617 -82 q 531 -214 564 -183 q 451 -262 499 -244 q 361 -287 404 -281 q 258 -296 318 -293 l 231 -219 m 385 71 q 492 106 440 71 q 571 190 543 140 l 631 531 q 572 608 615 576 q 472 639 529 639 q 290 535 357 639 q 224 285 224 431 q 268 128 224 186 q 385 71 313 71 z "},"Ğ":{"ha":915,"x_min":168,"x_max":924,"o":"m 653 1028 q 497 1078 550 1028 q 443 1201 443 1128 q 447 1251 443 1226 l 535 1251 q 532 1224 532 1232 q 660 1114 532 1114 q 771 1152 721 1114 q 832 1251 821 1190 l 924 1251 q 838 1090 906 1151 q 653 1028 769 1028 m 492 -17 q 251 96 333 -17 q 168 367 168 208 q 187 550 168 461 q 245 719 206 639 q 340 858 285 799 q 476 953 396 918 q 649 989 556 989 q 821 942 756 989 q 914 832 886 894 l 828 786 q 631 901 771 901 q 431 819 517 901 q 306 621 346 738 q 265 379 265 504 q 324 160 265 249 q 496 71 382 71 q 666 136 597 71 q 754 313 735 201 l 764 371 l 596 371 l 611 457 l 882 457 l 860 335 q 730 72 828 160 q 492 -17 632 -17 z "},"ğ":{"ha":753,"x_min":125,"x_max":761,"o":"m 490 806 q 334 856 388 806 q 281 979 281 906 q 285 1029 281 1004 l 372 1029 q 369 1001 369 1010 q 497 892 369 892 q 608 930 558 892 q 669 1029 658 968 l 761 1029 q 675 867 743 929 q 490 806 607 806 m 231 -219 q 451 -161 385 -211 q 532 -28 517 -111 l 549 68 q 360 -17 475 -17 q 188 65 251 -17 q 125 275 125 147 q 222 600 125 474 q 469 726 318 726 q 650 643 581 726 l 663 710 l 757 710 l 629 -11 q 590 -133 617 -82 q 531 -214 564 -183 q 451 -262 499 -244 q 361 -287 404 -281 q 258 -296 318 -293 l 231 -219 m 385 71 q 492 106 440 71 q 571 190 543 140 l 631 531 q 572 608 615 576 q 472 639 529 639 q 290 535 357 639 q 224 285 224 431 q 268 128 224 186 q 385 71 313 71 z "},"Ġ":{"ha":915,"x_min":168,"x_max":914,"o":"m 660 1063 q 622 1078 638 1063 q 607 1118 607 1094 q 630 1171 607 1149 q 682 1193 653 1193 q 720 1178 706 1193 q 735 1139 735 1163 q 713 1085 735 1108 q 660 1063 690 1063 m 492 -17 q 251 96 333 -17 q 168 367 168 208 q 187 550 168 461 q 245 719 206 639 q 340 858 285 799 q 476 953 396 918 q 649 989 556 989 q 821 942 756 989 q 914 832 886 894 l 828 786 q 631 901 771 901 q 431 819 517 901 q 306 621 346 738 q 265 379 265 504 q 324 160 265 249 q 496 71 382 71 q 666 136 597 71 q 754 313 735 201 l 764 371 l 596 371 l 611 457 l 882 457 l 860 335 q 730 72 828 160 q 492 -17 632 -17 z "},"ġ":{"ha":753,"x_min":125,"x_max":757,"o":"m 497 840 q 460 856 475 840 q 444 896 444 872 q 467 949 444 926 q 519 971 490 971 q 558 956 543 971 q 572 917 572 940 q 550 863 572 886 q 497 840 528 840 m 231 -219 q 451 -161 385 -211 q 532 -28 517 -111 l 549 68 q 360 -17 475 -17 q 188 65 251 -17 q 125 275 125 147 q 222 600 125 474 q 469 726 318 726 q 650 643 581 726 l 663 710 l 757 710 l 629 -11 q 590 -133 617 -82 q 531 -214 564 -183 q 451 -262 499 -244 q 361 -287 404 -281 q 258 -296 318 -293 l 231 -219 m 385 71 q 492 106 440 71 q 571 190 543 140 l 631 531 q 572 608 615 576 q 472 639 529 639 q 290 535 357 639 q 224 285 224 431 q 268 128 224 186 q 385 71 313 71 z "},"Ģ":{"ha":915,"x_min":168,"x_max":914,"o":"m 492 -17 q 251 96 333 -17 q 168 367 168 208 q 187 550 168 461 q 245 719 206 639 q 340 858 285 799 q 476 953 396 918 q 649 989 556 989 q 821 942 756 989 q 914 832 886 894 l 828 786 q 631 901 771 901 q 431 819 517 901 q 306 621 346 738 q 265 379 265 504 q 324 160 265 249 q 496 71 382 71 q 666 136 597 71 q 754 313 735 201 l 764 371 l 596 371 l 611 457 l 882 457 l 860 335 q 730 72 828 160 q 492 -17 632 -17 m 410 -339 l 386 -332 q 457 -229 439 -294 q 411 -212 426 -229 q 396 -169 396 -194 q 422 -106 396 -131 q 481 -81 449 -81 q 522 -99 506 -81 q 539 -149 539 -118 q 410 -339 539 -267 z "},"ģ":{"ha":753,"x_min":125,"x_max":757,"o":"m 506 836 q 458 856 476 836 q 440 914 440 875 q 473 1010 440 960 q 568 1096 506 1060 l 596 1088 q 525 985 543 1050 q 570 967 554 985 q 586 925 586 949 q 562 860 586 883 q 506 836 538 836 m 231 -219 q 451 -161 385 -211 q 532 -28 517 -111 l 549 68 q 360 -17 475 -17 q 188 65 251 -17 q 125 275 125 147 q 222 600 125 474 q 469 726 318 726 q 650 643 581 726 l 663 710 l 757 710 l 629 -11 q 590 -133 617 -82 q 531 -214 564 -183 q 451 -262 499 -244 q 361 -287 404 -281 q 258 -296 318 -293 l 231 -219 m 385 71 q 492 106 440 71 q 571 190 543 140 l 631 531 q 572 608 615 576 q 472 639 529 639 q 290 535 357 639 q 224 285 224 431 q 268 128 224 186 q 385 71 313 71 z "},"Ĥ":{"ha":925,"x_min":139,"x_max":960,"o":"m 797 1021 l 667 1161 l 488 1021 l 401 1021 l 626 1238 l 733 1238 l 885 1021 l 797 1021 m 139 0 l 310 972 l 407 972 l 333 551 l 789 551 l 863 972 l 960 972 l 789 0 l 692 0 l 772 460 l 318 460 l 238 0 l 139 0 z "},"ĥ":{"ha":750,"x_min":118,"x_max":782,"o":"m 694 1063 l 564 1203 l 385 1063 l 299 1063 l 524 1279 l 631 1279 l 782 1063 l 694 1063 m 118 0 l 288 961 l 392 1003 l 325 629 q 519 726 407 726 q 669 676 621 726 q 718 519 718 626 q 706 393 718 464 l 636 0 l 542 0 l 618 433 q 625 500 625 475 q 496 639 625 639 q 292 436 328 639 l 215 0 l 118 0 z "},"Ħ":{"ha":925,"x_min":139,"x_max":1056,"o":"m 692 0 l 772 460 l 318 460 l 236 0 l 139 0 l 268 739 l 150 739 l 165 831 l 285 831 l 310 972 l 407 972 l 382 831 l 838 831 l 863 972 l 960 972 l 935 831 l 1056 831 l 1040 739 l 919 739 l 789 0 l 692 0 m 789 551 l 822 739 l 367 739 l 333 551 l 789 551 z "},"ħ":{"ha":750,"x_min":118,"x_max":710,"o":"m 542 0 l 610 386 q 617 453 617 428 q 489 592 617 592 q 283 389 319 592 l 215 0 l 118 0 l 254 768 l 168 768 l 183 856 l 269 856 l 288 961 l 392 1003 l 365 856 l 575 856 l 560 768 l 350 768 l 317 582 q 513 679 397 679 q 661 630 613 679 q 710 474 710 581 q 697 346 710 419 l 636 0 l 542 0 z "},"Ĩ":{"ha":375,"x_min":139,"x_max":629,"o":"m 479 1057 q 365 1092 428 1057 q 271 1126 301 1126 q 197 1063 213 1126 l 146 1063 q 296 1215 172 1215 q 410 1180 347 1215 q 503 1144 472 1144 q 550 1162 529 1144 q 579 1210 571 1179 l 629 1210 q 479 1057 601 1057 m 139 0 l 310 972 l 407 972 l 236 0 l 139 0 z "},"ĩ":{"ha":335,"x_min":83,"x_max":567,"o":"m 417 835 q 303 869 367 835 q 208 904 239 904 q 135 840 150 904 l 83 840 q 233 993 110 993 q 347 958 283 993 q 440 922 411 922 q 488 940 467 922 q 517 988 508 957 l 567 988 q 417 835 539 835 m 118 0 l 243 710 l 336 710 l 211 0 l 118 0 z "},"Ī":{"ha":375,"x_min":139,"x_max":611,"o":"m 156 1067 l 171 1151 l 611 1151 l 596 1067 l 156 1067 m 139 0 l 310 972 l 407 972 l 236 0 l 139 0 z "},"ī":{"ha":335,"x_min":93,"x_max":549,"o":"m 93 844 l 108 929 l 549 929 l 533 844 l 93 844 m 118 0 l 243 710 l 336 710 l 211 0 l 118 0 z "},"Ĭ":{"ha":375,"x_min":139,"x_max":640,"o":"m 369 1028 q 213 1078 267 1028 q 160 1201 160 1128 q 164 1251 160 1226 l 251 1251 q 249 1224 249 1232 q 376 1114 249 1114 q 488 1152 438 1114 q 549 1251 538 1190 l 640 1251 q 554 1090 622 1151 q 369 1028 486 1028 m 139 0 l 310 972 l 407 972 l 236 0 l 139 0 z "},"ĭ":{"ha":335,"x_min":97,"x_max":578,"o":"m 307 806 q 151 856 204 806 q 97 979 97 906 q 101 1029 97 1004 l 189 1029 q 186 1001 186 1010 q 314 892 186 892 q 425 930 375 892 q 486 1029 475 968 l 578 1029 q 492 867 560 929 q 307 806 424 806 m 118 0 l 243 710 l 336 710 l 211 0 l 118 0 z "},"Į":{"ha":375,"x_min":-46,"x_max":406,"o":"m 79 -325 q -10 -295 25 -325 q -46 -212 -46 -265 q 6 -85 -46 -139 q 140 0 58 -32 l 311 972 l 406 972 l 235 0 q 90 -83 143 -31 q 38 -193 38 -136 q 56 -240 38 -224 q 99 -256 74 -256 q 178 -224 139 -256 l 222 -264 q 79 -325 158 -325 z "},"į":{"ha":338,"x_min":-64,"x_max":396,"o":"m 321 856 q 283 871 297 856 q 268 910 268 886 q 291 963 268 940 q 343 986 314 986 q 381 970 365 986 q 396 931 396 954 q 373 877 396 899 q 321 856 350 856 m 61 -325 q -28 -295 7 -325 q -64 -212 -64 -265 q 122 0 -64 -71 l 247 710 l 342 710 l 217 0 q 72 -83 124 -31 q 21 -193 21 -135 q 39 -240 21 -224 q 82 -256 57 -256 q 161 -224 119 -256 l 204 -264 q 61 -325 143 -325 z "},"İ":{"ha":375,"x_min":139,"x_max":451,"o":"m 376 1063 q 339 1078 354 1063 q 324 1118 324 1094 q 347 1171 324 1149 q 399 1193 369 1193 q 437 1178 422 1193 q 451 1139 451 1163 q 429 1085 451 1108 q 376 1063 407 1063 m 139 0 l 310 972 l 407 972 l 236 0 l 139 0 z "},"ı":{"ha":335,"x_min":118,"x_max":336,"o":"m 118 0 l 243 710 l 336 710 l 211 0 l 118 0 z "},"Ĳ":{"ha":1078,"x_min":139,"x_max":1107,"o":"m 139 0 l 310 972 l 407 972 l 236 0 l 139 0 m 674 -17 q 527 31 589 -17 q 442 151 465 78 l 522 185 q 675 71 565 71 q 817 125 763 71 q 893 308 871 179 l 1010 972 l 1107 972 l 989 301 q 947 159 975 219 q 890 66 919 99 q 819 14 860 33 q 747 -11 779 -6 q 674 -17 714 -17 z "},"ĳ":{"ha":736,"x_min":118,"x_max":786,"o":"m 318 856 q 279 871 294 856 q 264 910 264 886 q 286 964 264 942 q 336 986 308 986 q 376 971 361 986 q 392 932 392 956 q 369 878 392 900 q 318 856 347 856 m 713 856 q 674 871 689 856 q 658 910 658 886 q 681 964 658 942 q 731 986 703 986 q 771 971 756 986 q 786 932 786 956 q 764 878 786 900 q 713 856 742 856 m 118 0 l 243 710 l 340 710 l 215 0 l 118 0 m 343 -300 l 313 -219 q 446 -180 407 -211 q 496 -83 485 -149 l 636 710 l 733 710 l 592 -93 q 508 -250 572 -207 q 343 -300 444 -293 z "},"Ĵ":{"ha":717,"x_min":81,"x_max":944,"o":"m 857 1021 l 726 1161 l 547 1021 l 461 1021 l 686 1238 l 793 1238 l 944 1021 l 857 1021 m 313 -17 q 166 31 228 -17 q 81 151 104 78 l 161 185 q 314 71 204 71 q 456 125 401 71 q 532 308 510 179 l 649 972 l 746 972 l 628 301 q 586 159 614 219 q 528 66 558 99 q 458 14 499 33 q 385 -11 418 -6 q 313 -17 353 -17 z "},"ĵ":{"ha":346,"x_min":-78,"x_max":551,"o":"m 464 799 l 333 939 l 154 799 l 68 799 l 293 1015 l 400 1015 l 551 799 l 464 799 m -47 -300 l -78 -219 q 56 -180 17 -211 q 106 -83 94 -149 l 246 710 l 343 710 l 201 -93 q 118 -250 182 -207 q -47 -300 54 -293 z "},"Ķ":{"ha":858,"x_min":139,"x_max":883,"o":"m 682 0 l 489 554 l 297 350 l 236 0 l 139 0 l 310 972 l 407 972 l 324 497 l 769 972 l 883 972 l 561 631 l 782 0 l 682 0 m 371 -339 l 347 -332 q 418 -229 400 -294 q 372 -212 388 -229 q 357 -169 357 -194 q 383 -106 357 -131 q 442 -81 410 -81 q 483 -99 467 -81 q 500 -149 500 -118 q 371 -339 500 -267 z "},"ķ":{"ha":685,"x_min":118,"x_max":699,"o":"m 483 511 l 653 0 l 544 0 l 410 442 l 269 313 l 215 0 l 118 0 l 288 961 l 392 1003 l 292 439 l 585 710 l 699 710 l 483 511 m 290 -339 l 267 -332 q 338 -229 319 -294 q 292 -212 307 -229 q 276 -169 276 -194 q 303 -106 276 -131 q 361 -81 329 -81 q 403 -99 386 -81 q 419 -149 419 -118 q 290 -339 419 -267 z "},"ĸ":{"ha":697,"x_min":121,"x_max":761,"o":"m 564 0 l 438 367 l 242 160 l 214 0 l 121 0 l 246 710 l 339 710 l 265 289 l 657 710 l 761 710 l 517 449 l 671 0 l 564 0 z "},"Ĺ":{"ha":751,"x_min":139,"x_max":714,"o":"m 383 1021 l 288 1021 l 515 1238 l 657 1238 l 383 1021 m 139 0 l 310 972 l 407 972 l 253 93 l 714 93 l 697 0 l 139 0 z "},"ĺ":{"ha":349,"x_min":125,"x_max":624,"o":"m 350 1050 l 254 1050 l 482 1267 l 624 1267 l 350 1050 m 125 0 l 294 961 l 399 1003 l 222 0 l 125 0 z "},"Ļ":{"ha":751,"x_min":139,"x_max":714,"o":"m 139 0 l 310 972 l 407 972 l 253 93 l 714 93 l 697 0 l 139 0 m 336 -339 l 313 -332 q 383 -229 365 -294 q 338 -212 353 -229 q 322 -169 322 -194 q 349 -106 322 -131 q 407 -81 375 -81 q 449 -99 432 -81 q 465 -149 465 -118 q 336 -339 465 -267 z "},"ļ":{"ha":349,"x_min":65,"x_max":399,"o":"m 125 0 l 294 961 l 399 1003 l 222 0 l 125 0 m 89 -339 l 65 -332 q 136 -229 118 -294 q 90 -212 106 -229 q 75 -169 75 -194 q 101 -106 75 -131 q 160 -81 128 -81 q 201 -99 185 -81 q 218 -149 218 -118 q 89 -339 218 -267 z "},"Ľ":{"ha":751,"x_min":139,"x_max":714,"o":"m 417 1021 l 310 1021 l 160 1238 l 246 1238 l 376 1097 l 556 1238 l 643 1238 l 417 1021 m 139 0 l 310 972 l 407 972 l 253 93 l 714 93 l 697 0 l 139 0 z "},"ľ":{"ha":575,"x_min":125,"x_max":683,"o":"m 125 0 l 294 961 l 399 1003 l 222 0 l 125 0 m 683 989 l 681 974 q 521 672 644 779 l 497 692 q 549 819 521 731 q 590 989 576 908 l 683 989 z "},"Ŀ":{"ha":751,"x_min":139,"x_max":714,"o":"m 371 1063 q 333 1078 349 1063 q 318 1118 318 1094 q 341 1171 318 1149 q 393 1193 364 1193 q 431 1178 417 1193 q 446 1139 446 1163 q 424 1085 446 1108 q 371 1063 401 1063 m 139 0 l 310 972 l 407 972 l 253 93 l 714 93 l 697 0 l 139 0 z "},"ŀ":{"ha":635,"x_min":125,"x_max":611,"o":"m 125 0 l 294 961 l 399 1003 l 222 0 l 125 0 m 536 371 q 499 387 514 371 q 483 426 483 403 q 506 479 483 457 q 558 501 529 501 q 597 486 582 501 q 611 447 611 471 q 589 394 611 417 q 536 371 567 371 z "},"Ł":{"ha":751,"x_min":93,"x_max":714,"o":"m 140 0 l 207 378 l 93 301 l 113 407 l 226 485 l 311 972 l 406 972 l 335 568 l 499 682 l 479 575 l 315 458 l 251 93 l 714 93 l 697 0 l 140 0 z "},"ł":{"ha":349,"x_min":90,"x_max":419,"o":"m 106 393 l 207 465 l 294 961 l 399 1003 l 317 538 l 419 610 l 404 528 l 303 456 l 222 0 l 125 0 l 193 383 l 90 311 l 106 393 z "},"Ń":{"ha":940,"x_min":139,"x_max":975,"o":"m 665 1021 l 569 1021 l 797 1238 l 939 1238 l 665 1021 m 139 0 l 310 972 l 400 972 l 713 224 l 736 167 q 746 222 744 213 l 878 972 l 975 972 l 804 0 l 706 0 l 417 692 l 375 792 q 357 690 360 707 l 236 0 l 139 0 z "},"ń":{"ha":750,"x_min":118,"x_max":810,"o":"m 536 799 l 440 799 l 668 1015 l 810 1015 l 536 799 m 118 0 l 243 710 l 340 710 l 326 632 q 524 726 406 726 q 667 672 617 726 q 718 507 718 617 q 708 393 718 447 l 639 0 l 542 0 l 617 428 q 624 500 624 467 q 592 603 624 567 q 501 639 560 639 q 365 581 424 639 q 290 431 306 524 l 215 0 l 118 0 z "},"Ņ":{"ha":940,"x_min":139,"x_max":975,"o":"m 139 0 l 310 972 l 400 972 l 713 224 l 736 167 q 746 222 744 213 l 878 972 l 975 972 l 804 0 l 706 0 l 417 692 l 375 792 q 357 690 360 707 l 236 0 l 139 0 m 382 -339 l 358 -332 q 429 -229 411 -294 q 383 -212 399 -229 q 368 -169 368 -194 q 394 -106 368 -131 q 453 -81 421 -81 q 494 -99 478 -81 q 511 -149 511 -118 q 382 -339 511 -267 z "},"ņ":{"ha":750,"x_min":118,"x_max":718,"o":"m 118 0 l 243 710 l 340 710 l 326 632 q 524 726 406 726 q 667 672 617 726 q 718 507 718 617 q 708 393 718 447 l 639 0 l 542 0 l 617 428 q 624 500 624 467 q 592 603 624 567 q 501 639 560 639 q 365 581 424 639 q 290 431 306 524 l 215 0 l 118 0 m 299 -297 l 275 -290 q 346 -187 328 -253 q 300 -170 315 -187 q 285 -128 285 -153 q 311 -64 285 -89 q 369 -39 338 -39 q 411 -58 394 -39 q 428 -107 428 -76 q 299 -297 428 -225 z "},"Ň":{"ha":940,"x_min":139,"x_max":975,"o":"m 699 1021 l 592 1021 l 442 1238 l 528 1238 l 658 1097 l 838 1238 l 925 1238 l 699 1021 m 139 0 l 310 972 l 400 972 l 713 224 l 736 167 q 746 222 744 213 l 878 972 l 975 972 l 804 0 l 706 0 l 417 692 l 375 792 q 357 690 360 707 l 236 0 l 139 0 z "},"ň":{"ha":750,"x_min":118,"x_max":796,"o":"m 569 799 l 463 799 l 313 1015 l 399 1015 l 529 875 l 708 1015 l 796 1015 l 569 799 m 118 0 l 243 710 l 340 710 l 326 632 q 524 726 406 726 q 667 672 617 726 q 718 507 718 617 q 708 393 718 447 l 639 0 l 542 0 l 617 428 q 624 500 624 467 q 592 603 624 567 q 501 639 560 639 q 365 581 424 639 q 290 431 306 524 l 215 0 l 118 0 z "},"ŉ":{"ha":1081,"x_min":226,"x_max":1049,"o":"m 250 642 l 226 649 q 322 811 306 713 q 262 831 285 811 q 239 885 239 851 q 268 960 239 931 q 338 989 297 989 q 392 965 369 989 q 415 899 415 942 q 369 751 415 819 q 250 642 322 683 m 449 0 l 574 710 l 671 710 l 657 632 q 854 726 736 726 q 998 672 947 726 q 1049 507 1049 617 q 1039 393 1049 447 l 969 0 l 872 0 l 947 428 q 954 500 954 467 q 922 603 954 567 q 832 639 890 639 q 695 581 754 639 q 621 431 636 524 l 546 0 l 449 0 z "},"Ŋ":{"ha":940,"x_min":139,"x_max":975,"o":"m 532 -339 l 501 -258 q 635 -219 596 -250 q 685 -122 674 -187 l 706 0 l 417 692 q 394 744 414 699 q 375 792 375 790 l 357 690 l 236 0 l 139 0 l 310 972 l 400 972 l 713 224 l 736 167 q 740 194 736 171 q 746 222 744 218 l 878 972 l 975 972 l 781 -132 q 685 -297 760 -250 q 532 -339 629 -332 z "},"ŋ":{"ha":750,"x_min":118,"x_max":718,"o":"m 343 -219 q 476 -179 438 -211 q 526 -85 515 -147 l 617 426 q 624 493 624 471 q 590 601 624 564 q 494 639 556 639 q 365 583 424 639 q 290 431 307 526 l 215 0 l 118 0 l 243 710 l 340 710 l 326 632 q 517 726 407 726 q 667 668 617 726 q 718 500 718 610 q 708 393 718 446 l 622 -93 q 548 -242 606 -192 q 374 -300 490 -293 l 343 -219 z "},"Ō":{"ha":961,"x_min":167,"x_max":967,"o":"m 442 1067 l 457 1151 l 897 1151 l 882 1067 l 442 1067 m 489 -17 q 247 93 326 -17 q 167 367 167 203 q 197 581 167 474 q 283 781 226 688 q 433 931 339 874 q 646 989 528 989 q 832 931 757 989 q 937 790 907 872 q 967 606 967 707 q 949 435 967 521 q 892 267 931 349 q 799 123 854 186 q 664 22 744 60 q 489 -17 583 -17 m 489 71 q 658 120 582 71 q 778 249 733 169 q 846 421 822 329 q 869 606 869 513 q 849 747 869 683 q 775 856 828 811 q 646 901 722 901 q 477 852 553 901 q 356 723 401 803 q 288 551 311 643 q 264 367 264 460 q 319 156 264 240 q 489 71 375 71 z "},"ō":{"ha":732,"x_min":122,"x_max":746,"o":"m 290 844 l 306 929 l 746 929 l 731 844 l 290 844 m 374 -17 q 185 66 247 -17 q 122 272 122 149 q 145 430 122 351 q 210 576 168 508 q 324 685 253 643 q 482 726 394 726 q 672 642 610 726 q 733 438 733 557 q 711 281 733 358 q 647 135 689 203 q 533 25 604 67 q 374 -17 461 -17 m 374 71 q 520 130 458 71 q 609 269 582 189 q 636 438 636 350 q 598 580 636 521 q 482 639 560 639 q 336 581 399 639 q 247 441 274 522 q 219 272 219 360 q 258 128 219 186 q 374 71 296 71 z "},"Ŏ":{"ha":961,"x_min":167,"x_max":967,"o":"m 656 1028 q 499 1078 553 1028 q 446 1201 446 1128 q 450 1251 446 1226 l 538 1251 q 535 1224 535 1232 q 663 1114 535 1114 q 774 1152 724 1114 q 835 1251 824 1190 l 926 1251 q 840 1090 908 1151 q 656 1028 772 1028 m 489 -17 q 247 93 326 -17 q 167 367 167 203 q 197 581 167 474 q 283 781 226 688 q 433 931 339 874 q 646 989 528 989 q 832 931 757 989 q 937 790 907 872 q 967 606 967 707 q 949 435 967 521 q 892 267 931 349 q 799 123 854 186 q 664 22 744 60 q 489 -17 583 -17 m 489 71 q 658 120 582 71 q 778 249 733 169 q 846 421 822 329 q 869 606 869 513 q 849 747 869 683 q 775 856 828 811 q 646 901 722 901 q 477 852 553 901 q 356 723 401 803 q 288 551 311 643 q 264 367 264 460 q 319 156 264 240 q 489 71 375 71 z "},"ŏ":{"ha":732,"x_min":122,"x_max":775,"o":"m 504 806 q 348 856 401 806 q 294 979 294 906 q 299 1029 294 1004 l 386 1029 q 383 1001 383 1010 q 511 892 383 892 q 622 930 572 892 q 683 1029 672 968 l 775 1029 q 689 867 757 929 q 504 806 621 806 m 374 -17 q 185 66 247 -17 q 122 272 122 149 q 145 430 122 351 q 210 576 168 508 q 324 685 253 643 q 482 726 394 726 q 672 642 610 726 q 733 438 733 557 q 711 281 733 358 q 647 135 689 203 q 533 25 604 67 q 374 -17 461 -17 m 374 71 q 520 130 458 71 q 609 269 582 189 q 636 438 636 350 q 598 580 636 521 q 482 639 560 639 q 336 581 399 639 q 247 441 274 522 q 219 272 219 360 q 258 128 219 186 q 374 71 296 71 z "},"Ő":{"ha":961,"x_min":167,"x_max":1094,"o":"m 461 1021 l 688 1238 l 831 1238 l 556 1021 l 461 1021 m 725 1021 l 951 1238 l 1094 1238 l 819 1021 l 725 1021 m 489 -17 q 247 93 326 -17 q 167 367 167 203 q 197 581 167 474 q 283 781 226 688 q 433 931 339 874 q 646 989 528 989 q 832 931 757 989 q 937 790 907 872 q 967 606 967 707 q 949 435 967 521 q 892 267 931 349 q 799 123 854 186 q 664 22 744 60 q 489 -17 583 -17 m 489 71 q 658 120 582 71 q 778 249 733 169 q 846 421 822 329 q 869 606 869 513 q 849 747 869 683 q 775 856 828 811 q 646 901 722 901 q 477 852 553 901 q 356 723 401 803 q 288 551 311 643 q 264 367 264 460 q 319 156 264 240 q 489 71 375 71 z "},"ő":{"ha":732,"x_min":122,"x_max":943,"o":"m 310 799 l 536 1015 l 679 1015 l 404 799 l 310 799 m 574 799 l 800 1015 l 943 1015 l 668 799 l 574 799 m 374 -17 q 185 66 247 -17 q 122 272 122 149 q 145 430 122 351 q 210 576 168 508 q 324 685 253 643 q 482 726 394 726 q 672 642 610 726 q 733 438 733 557 q 711 281 733 358 q 647 135 689 203 q 533 25 604 67 q 374 -17 461 -17 m 374 71 q 520 130 458 71 q 609 269 582 189 q 636 438 636 350 q 598 580 636 521 q 482 639 560 639 q 336 581 399 639 q 247 441 274 522 q 219 272 219 360 q 258 128 219 186 q 374 71 296 71 z "},"Œ":{"ha":1215,"x_min":167,"x_max":1263,"o":"m 488 -17 q 339 16 403 -17 q 238 104 275 49 q 184 226 201 160 q 167 365 167 292 q 184 534 167 449 q 240 701 201 619 q 333 847 279 783 q 469 950 388 911 q 649 989 551 989 q 803 949 744 989 l 807 972 l 1263 972 l 1249 885 l 889 885 l 829 547 l 1047 547 l 1031 460 l 814 460 l 749 88 l 1138 88 l 1122 0 l 636 0 l 639 13 q 488 -17 576 -17 m 489 71 q 657 118 578 71 l 786 853 q 646 901 726 901 q 476 851 551 901 q 356 722 400 801 q 288 551 311 642 q 264 372 264 461 q 318 157 264 243 q 489 71 372 71 z "},"œ":{"ha":1193,"x_min":122,"x_max":1207,"o":"m 374 -17 q 185 66 247 -17 q 122 272 122 149 q 145 430 122 351 q 210 576 168 508 q 324 685 253 643 q 482 726 394 726 q 704 585 643 726 q 965 726 806 726 q 1142 663 1076 726 q 1207 464 1207 599 q 1181 315 1207 403 l 715 315 l 715 296 q 756 132 715 190 q 875 74 796 74 q 1039 129 957 74 l 1082 58 q 864 -17 982 -17 q 730 23 786 -17 q 644 131 674 63 q 374 -17 544 -17 m 374 71 q 520 130 458 71 q 609 269 582 189 q 636 438 636 350 q 598 580 636 521 q 482 639 560 639 q 336 581 399 639 q 247 441 274 522 q 219 272 219 360 q 258 128 219 186 q 374 71 296 71 m 728 403 l 1103 403 q 1113 472 1113 440 q 1070 601 1113 563 q 965 639 1028 639 q 810 571 869 639 q 728 403 750 503 z "},"Ŕ":{"ha":879,"x_min":139,"x_max":896,"o":"m 622 1021 l 526 1021 l 754 1238 l 896 1238 l 622 1021 m 894 729 q 824 538 894 619 q 617 442 753 457 l 771 0 l 671 0 l 519 438 l 313 438 l 236 0 l 139 0 l 310 972 l 615 972 q 749 950 692 972 q 836 890 806 928 q 881 813 867 853 q 894 729 894 772 m 568 525 q 747 585 692 525 q 801 726 801 646 q 758 838 801 792 q 617 885 715 885 l 392 885 l 329 525 l 568 525 z "},"ŕ":{"ha":518,"x_min":118,"x_max":726,"o":"m 453 799 l 357 799 l 585 1015 l 726 1015 l 453 799 m 118 0 l 243 710 l 340 710 l 322 610 q 422 697 368 668 q 524 726 475 726 q 607 697 578 726 l 576 603 q 492 629 536 629 q 369 574 432 629 q 286 401 307 518 l 215 0 l 118 0 z "},"Ŗ":{"ha":879,"x_min":139,"x_max":894,"o":"m 894 729 q 824 538 894 619 q 617 442 753 457 l 771 0 l 671 0 l 519 438 l 313 438 l 236 0 l 139 0 l 310 972 l 615 972 q 749 950 692 972 q 836 890 806 928 q 881 813 867 853 q 894 729 894 772 m 568 525 q 747 585 692 525 q 801 726 801 646 q 758 838 801 792 q 617 885 715 885 l 392 885 l 329 525 l 568 525 m 356 -339 l 332 -332 q 403 -229 385 -294 q 357 -212 372 -229 q 342 -169 342 -194 q 368 -106 342 -131 q 426 -81 394 -81 q 468 -99 451 -81 q 485 -149 485 -118 q 356 -339 485 -267 z "},"ŗ":{"ha":518,"x_min":58,"x_max":607,"o":"m 118 0 l 243 710 l 340 710 l 322 610 q 422 697 368 668 q 524 726 475 726 q 607 697 578 726 l 576 603 q 492 629 536 629 q 369 574 432 629 q 286 401 307 518 l 215 0 l 118 0 m 82 -339 l 58 -332 q 129 -229 111 -294 q 83 -212 99 -229 q 68 -169 68 -194 q 94 -106 68 -131 q 153 -81 121 -81 q 194 -99 178 -81 q 211 -149 211 -118 q 82 -339 211 -267 z "},"Ř":{"ha":879,"x_min":139,"x_max":894,"o":"m 656 1021 l 549 1021 l 399 1238 l 485 1238 l 615 1097 l 794 1238 l 882 1238 l 656 1021 m 894 729 q 824 538 894 619 q 617 442 753 457 l 771 0 l 671 0 l 519 438 l 313 438 l 236 0 l 139 0 l 310 972 l 615 972 q 749 950 692 972 q 836 890 806 928 q 881 813 867 853 q 894 729 894 772 m 568 525 q 747 585 692 525 q 801 726 801 646 q 758 838 801 792 q 617 885 715 885 l 392 885 l 329 525 l 568 525 z "},"ř":{"ha":518,"x_min":118,"x_max":713,"o":"m 486 799 l 379 799 l 229 1015 l 315 1015 l 446 875 l 625 1015 l 713 1015 l 486 799 m 118 0 l 243 710 l 340 710 l 322 610 q 422 697 368 668 q 524 726 475 726 q 607 697 578 726 l 576 603 q 492 629 536 629 q 369 574 432 629 q 286 401 307 518 l 215 0 l 118 0 z "},"Ś":{"ha":793,"x_min":126,"x_max":842,"o":"m 568 1021 l 472 1021 l 700 1238 l 842 1238 l 568 1021 m 704 803 q 533 901 654 901 q 392 858 444 901 q 340 744 340 814 q 382 649 340 689 q 483 583 424 610 q 601 523 542 556 q 701 431 660 490 q 743 286 743 371 q 650 63 743 142 q 410 -17 557 -17 q 226 39 301 -17 q 126 181 150 94 l 215 215 q 418 71 268 71 q 583 124 524 71 q 643 278 643 178 q 602 388 643 342 q 502 465 561 435 q 384 526 443 494 q 284 610 325 557 q 243 736 243 663 q 325 917 243 846 q 540 989 407 989 q 701 946 635 989 q 790 840 767 903 l 704 803 z "},"ś":{"ha":619,"x_min":97,"x_max":711,"o":"m 438 799 l 342 799 l 569 1015 l 711 1015 l 438 799 m 331 -17 q 97 107 178 -17 l 171 165 q 333 69 233 69 q 442 101 399 69 q 486 190 486 133 q 453 263 486 232 q 375 315 421 293 q 283 362 329 338 q 205 428 238 386 q 172 531 172 471 q 238 673 172 619 q 404 726 304 726 q 631 618 564 726 l 563 565 q 403 640 501 640 q 303 611 343 640 q 264 533 264 582 q 297 468 264 496 q 376 420 329 440 q 469 374 422 400 q 549 302 517 349 q 582 189 582 256 q 513 40 582 96 q 331 -17 444 -17 z "},"Ŝ":{"ha":793,"x_min":126,"x_max":790,"o":"m 701 1021 l 571 1161 l 392 1021 l 306 1021 l 531 1238 l 638 1238 l 789 1021 l 701 1021 m 704 803 q 533 901 654 901 q 392 858 444 901 q 340 744 340 814 q 382 649 340 689 q 483 583 424 610 q 601 523 542 556 q 701 431 660 490 q 743 286 743 371 q 650 63 743 142 q 410 -17 557 -17 q 226 39 301 -17 q 126 181 150 94 l 215 215 q 418 71 268 71 q 583 124 524 71 q 643 278 643 178 q 602 388 643 342 q 502 465 561 435 q 384 526 443 494 q 284 610 325 557 q 243 736 243 663 q 325 917 243 846 q 540 989 407 989 q 701 946 635 989 q 790 840 767 903 l 704 803 z "},"ŝ":{"ha":619,"x_min":97,"x_max":658,"o":"m 571 799 l 440 939 l 261 799 l 175 799 l 400 1015 l 507 1015 l 658 799 l 571 799 m 331 -17 q 97 107 178 -17 l 171 165 q 333 69 233 69 q 442 101 399 69 q 486 190 486 133 q 453 263 486 232 q 375 315 421 293 q 283 362 329 338 q 205 428 238 386 q 172 531 172 471 q 238 673 172 619 q 404 726 304 726 q 631 618 564 726 l 563 565 q 403 640 501 640 q 303 611 343 640 q 264 533 264 582 q 297 468 264 496 q 376 420 329 440 q 469 374 422 400 q 549 302 517 349 q 582 189 582 256 q 513 40 582 96 q 331 -17 444 -17 z "},"Ş":{"ha":793,"x_min":126,"x_max":790,"o":"m 343 -325 q 229 -275 268 -325 l 292 -237 q 343 -258 310 -258 q 399 -237 375 -258 q 422 -185 422 -217 q 403 -138 422 -156 q 351 -121 383 -121 q 303 -128 317 -121 l 289 -107 l 374 -15 q 214 48 279 -6 q 126 181 149 101 l 215 215 q 418 71 268 71 q 583 124 524 71 q 643 278 643 178 q 602 388 643 342 q 502 465 561 435 q 384 526 443 494 q 284 610 325 557 q 243 736 243 663 q 325 917 243 846 q 540 989 407 989 q 701 946 635 989 q 790 840 767 903 l 704 803 q 533 901 654 901 q 392 858 444 901 q 340 744 340 814 q 382 649 340 689 q 483 583 424 610 q 601 523 542 556 q 701 431 660 490 q 743 286 743 371 q 657 69 743 147 q 433 -17 571 -10 l 388 -76 q 481 -105 451 -76 q 510 -176 510 -133 q 463 -285 510 -244 q 343 -325 415 -325 z "},"ş":{"ha":619,"x_min":97,"x_max":631,"o":"m 239 -325 q 125 -275 164 -325 l 188 -237 q 239 -258 206 -258 q 294 -237 271 -258 q 318 -185 318 -217 q 299 -138 318 -156 q 247 -121 279 -121 q 199 -128 213 -121 l 185 -107 l 274 -11 q 97 107 160 11 l 171 165 q 333 69 233 69 q 442 101 399 69 q 486 190 486 133 q 453 263 486 232 q 375 315 421 293 q 283 362 329 338 q 205 429 238 386 q 172 531 172 472 q 238 673 172 619 q 404 726 304 726 q 631 618 564 726 l 563 565 q 403 640 501 640 q 303 611 343 640 q 264 533 264 582 q 297 468 264 496 q 376 420 329 440 q 469 375 422 400 q 549 303 517 350 q 582 189 582 256 q 513 40 582 96 q 329 -17 443 -17 l 283 -76 q 376 -105 347 -76 q 406 -176 406 -133 q 358 -285 406 -244 q 239 -325 311 -325 z "},"Š":{"ha":793,"x_min":126,"x_max":828,"o":"m 601 1021 l 494 1021 l 344 1238 l 431 1238 l 561 1097 l 740 1238 l 828 1238 l 601 1021 m 704 803 q 533 901 654 901 q 392 858 444 901 q 340 744 340 814 q 382 649 340 689 q 483 583 424 610 q 601 523 542 556 q 701 431 660 490 q 743 286 743 371 q 650 63 743 142 q 410 -17 557 -17 q 226 39 301 -17 q 126 181 150 94 l 215 215 q 418 71 268 71 q 583 124 524 71 q 643 278 643 178 q 602 388 643 342 q 502 465 561 435 q 384 526 443 494 q 284 610 325 557 q 243 736 243 663 q 325 917 243 846 q 540 989 407 989 q 701 946 635 989 q 790 840 767 903 l 704 803 z "},"š":{"ha":619,"x_min":97,"x_max":697,"o":"m 471 799 l 364 799 l 214 1015 l 300 1015 l 431 875 l 610 1015 l 697 1015 l 471 799 m 331 -17 q 97 107 178 -17 l 171 165 q 333 69 233 69 q 442 101 399 69 q 486 190 486 133 q 453 263 486 232 q 375 315 421 293 q 283 362 329 338 q 205 428 238 386 q 172 531 172 471 q 238 673 172 619 q 404 726 304 726 q 631 618 564 726 l 563 565 q 403 640 501 640 q 303 611 343 640 q 264 533 264 582 q 297 468 264 496 q 376 420 329 440 q 469 374 422 400 q 549 302 517 349 q 582 189 582 256 q 513 40 582 96 q 331 -17 444 -17 z "},"Ţ":{"ha":768,"x_min":196,"x_max":858,"o":"m 310 -325 q 196 -275 235 -325 l 258 -237 q 310 -258 276 -258 q 365 -237 342 -258 q 389 -185 389 -217 q 369 -138 389 -156 q 318 -121 350 -121 q 269 -128 283 -121 l 256 -107 l 356 0 l 336 0 l 492 885 l 238 885 l 251 972 l 858 972 l 844 885 l 589 885 l 433 0 l 413 0 l 354 -76 q 447 -105 418 -76 q 476 -176 476 -133 q 429 -285 476 -244 q 310 -325 382 -325 z "},"ţ":{"ha":493,"x_min":88,"x_max":549,"o":"m 201 -325 q 88 -275 126 -325 l 150 -237 q 201 -258 168 -258 q 257 -237 233 -258 q 281 -185 281 -217 q 261 -138 281 -156 q 210 -121 242 -121 q 161 -128 175 -121 l 147 -107 l 240 -7 q 178 108 178 18 q 182 156 178 131 l 264 622 l 147 622 l 163 710 l 279 710 l 324 961 l 428 1003 l 376 710 l 549 710 l 533 622 l 361 622 l 285 188 q 279 136 279 151 q 338 75 279 75 q 446 113 388 75 l 417 11 q 292 -17 361 -17 l 246 -76 q 339 -105 310 -76 q 368 -176 368 -133 q 321 -285 368 -244 q 201 -325 274 -325 z "},"Ť":{"ha":768,"x_min":238,"x_max":858,"o":"m 621 1021 l 514 1021 l 364 1238 l 450 1238 l 581 1097 l 760 1238 l 847 1238 l 621 1021 m 589 885 l 433 0 l 336 0 l 492 885 l 238 885 l 251 972 l 858 972 l 844 885 l 589 885 z "},"ť":{"ha":493,"x_min":147,"x_max":690,"o":"m 690 1167 l 688 1151 q 528 850 651 957 l 504 869 q 556 997 528 908 q 597 1167 583 1086 l 690 1167 m 292 -17 q 206 17 235 -17 q 178 108 178 51 q 182 156 178 131 l 264 622 l 147 622 l 163 710 l 279 710 l 324 961 l 428 1003 l 376 710 l 549 710 l 533 622 l 361 622 l 285 188 q 279 136 279 151 q 338 75 279 75 q 446 113 388 75 l 417 11 q 292 -17 361 -17 z "},"Ŧ":{"ha":768,"x_min":233,"x_max":858,"o":"m 336 0 l 406 393 l 233 393 l 250 486 l 422 486 l 492 885 l 238 885 l 251 972 l 858 972 l 844 885 l 589 885 l 519 486 l 690 486 l 674 393 l 503 393 l 433 0 l 336 0 z "},"ŧ":{"ha":521,"x_min":133,"x_max":582,"o":"m 325 -17 q 240 17 268 -17 q 211 108 211 51 q 215 156 211 131 l 246 331 l 133 331 l 149 418 l 261 418 l 297 622 l 181 622 l 196 710 l 313 710 l 357 961 l 461 1003 l 410 710 l 582 710 l 567 622 l 394 622 l 358 418 l 531 418 l 515 331 l 343 331 l 318 188 q 313 136 313 151 q 371 75 313 75 q 479 113 421 75 l 450 11 q 325 -17 394 -17 z "},"Ũ":{"ha":908,"x_min":185,"x_max":949,"o":"m 740 1057 q 625 1092 689 1057 q 532 1126 561 1126 q 458 1063 474 1126 l 407 1063 q 557 1215 433 1215 q 670 1180 607 1215 q 764 1144 733 1144 q 811 1162 790 1144 q 840 1210 832 1179 l 890 1210 q 740 1057 863 1057 m 471 -17 q 263 53 340 -17 q 185 263 185 124 q 194 371 185 317 l 300 972 l 397 972 l 290 363 q 282 267 282 310 q 474 71 282 71 q 645 135 575 71 q 744 361 715 200 l 851 972 l 949 972 l 842 361 q 717 72 807 161 q 471 -17 626 -17 z "},"ũ":{"ha":749,"x_min":154,"x_max":765,"o":"m 615 835 q 500 869 564 835 q 407 904 436 904 q 333 840 349 904 l 282 840 q 432 993 308 993 q 546 958 483 993 q 639 922 608 922 q 686 940 665 922 q 715 988 707 957 l 765 988 q 615 835 738 835 m 535 0 l 547 68 q 363 -17 483 -17 q 154 203 154 -17 q 164 301 154 239 l 235 710 l 332 710 l 256 276 q 250 214 250 247 q 285 106 250 140 q 378 71 321 71 q 583 274 547 71 l 660 710 l 757 710 l 632 0 l 535 0 z "},"Ū":{"ha":908,"x_min":185,"x_max":949,"o":"m 417 1067 l 432 1151 l 872 1151 l 857 1067 l 417 1067 m 471 -17 q 263 53 340 -17 q 185 263 185 124 q 194 371 185 317 l 300 972 l 397 972 l 290 363 q 282 267 282 310 q 474 71 282 71 q 645 135 575 71 q 744 361 715 200 l 851 972 l 949 972 l 842 361 q 717 72 807 161 q 471 -17 626 -17 z "},"ū":{"ha":749,"x_min":154,"x_max":757,"o":"m 292 844 l 307 929 l 747 929 l 732 844 l 292 844 m 535 0 l 547 68 q 363 -17 483 -17 q 154 203 154 -17 q 164 301 154 239 l 235 710 l 332 710 l 256 276 q 250 214 250 247 q 285 106 250 140 q 378 71 321 71 q 583 274 547 71 l 660 710 l 757 710 l 632 0 l 535 0 z "},"Ŭ":{"ha":908,"x_min":185,"x_max":949,"o":"m 631 1028 q 474 1078 528 1028 q 421 1201 421 1128 q 425 1251 421 1226 l 513 1251 q 510 1224 510 1232 q 638 1114 510 1114 q 749 1152 699 1114 q 810 1251 799 1190 l 901 1251 q 815 1090 883 1151 q 631 1028 747 1028 m 471 -17 q 263 53 340 -17 q 185 263 185 124 q 194 371 185 317 l 300 972 l 397 972 l 290 363 q 282 267 282 310 q 474 71 282 71 q 645 135 575 71 q 744 361 715 200 l 851 972 l 949 972 l 842 361 q 717 72 807 161 q 471 -17 626 -17 z "},"ŭ":{"ha":749,"x_min":154,"x_max":776,"o":"m 506 806 q 349 856 403 806 q 296 979 296 906 q 300 1029 296 1004 l 388 1029 q 385 1001 385 1010 q 513 892 385 892 q 624 930 574 892 q 685 1029 674 968 l 776 1029 q 690 867 758 929 q 506 806 622 806 m 535 0 l 547 68 q 363 -17 483 -17 q 154 203 154 -17 q 164 301 154 239 l 235 710 l 332 710 l 256 276 q 250 214 250 247 q 285 106 250 140 q 378 71 321 71 q 583 274 547 71 l 660 710 l 757 710 l 632 0 l 535 0 z "},"Ů":{"ha":908,"x_min":185,"x_max":949,"o":"m 628 1019 q 537 1059 574 1019 q 500 1154 500 1099 q 556 1279 500 1226 q 683 1332 613 1332 q 774 1294 738 1332 q 811 1200 811 1256 q 754 1074 811 1128 q 628 1019 697 1019 m 640 1092 q 706 1121 678 1092 q 733 1193 733 1150 q 716 1242 733 1224 q 671 1260 699 1260 q 607 1233 635 1260 q 579 1163 579 1206 q 597 1112 579 1132 q 640 1092 614 1092 m 471 -17 q 263 53 340 -17 q 185 263 185 124 q 194 371 185 317 l 300 972 l 397 972 l 290 363 q 282 267 282 310 q 474 71 282 71 q 645 135 575 71 q 744 361 715 200 l 851 972 l 949 972 l 842 361 q 717 72 807 161 q 471 -17 626 -17 z "},"ů":{"ha":749,"x_min":154,"x_max":757,"o":"m 503 797 q 412 837 449 797 q 375 932 375 876 q 431 1057 375 1004 q 558 1110 488 1110 q 649 1072 613 1110 q 686 978 686 1033 q 629 851 686 906 q 503 797 572 797 m 515 869 q 581 899 553 869 q 608 971 608 928 q 591 1019 608 1001 q 546 1038 574 1038 q 482 1010 510 1038 q 454 940 454 983 q 472 890 454 910 q 515 869 489 869 m 535 0 l 547 68 q 363 -17 483 -17 q 154 203 154 -17 q 164 301 154 239 l 235 710 l 332 710 l 256 276 q 250 214 250 247 q 285 106 250 140 q 378 71 321 71 q 583 274 547 71 l 660 710 l 757 710 l 632 0 l 535 0 z "},"Ű":{"ha":908,"x_min":185,"x_max":1069,"o":"m 436 1021 l 663 1238 l 806 1238 l 531 1021 l 436 1021 m 700 1021 l 926 1238 l 1069 1238 l 794 1021 l 700 1021 m 471 -17 q 263 53 340 -17 q 185 263 185 124 q 194 371 185 317 l 300 972 l 397 972 l 290 363 q 282 267 282 310 q 474 71 282 71 q 645 135 575 71 q 744 361 715 200 l 851 972 l 949 972 l 842 361 q 717 72 807 161 q 471 -17 626 -17 z "},"ű":{"ha":749,"x_min":154,"x_max":944,"o":"m 311 799 l 538 1015 l 681 1015 l 406 799 l 311 799 m 575 799 l 801 1015 l 944 1015 l 669 799 l 575 799 m 535 0 l 547 68 q 363 -17 483 -17 q 154 203 154 -17 q 164 301 154 239 l 235 710 l 332 710 l 256 276 q 250 214 250 247 q 285 106 250 140 q 378 71 321 71 q 583 274 547 71 l 660 710 l 757 710 l 632 0 l 535 0 z "},"Ų":{"ha":908,"x_min":185,"x_max":949,"o":"m 432 -325 q 342 -295 378 -325 q 307 -212 307 -265 q 456 -17 307 -94 q 407 -12 431 -17 q 244 73 303 4 q 185 263 185 142 q 194 371 185 317 l 300 972 l 397 972 l 290 363 q 282 267 282 310 q 474 71 282 71 q 645 135 575 71 q 744 361 715 200 l 851 972 l 949 972 l 842 361 q 604 3 789 64 q 442 -85 492 -42 q 392 -193 392 -128 q 410 -240 392 -224 q 453 -256 428 -256 q 532 -224 490 -256 l 575 -264 q 432 -325 514 -325 z "},"ų":{"ha":749,"x_min":154,"x_max":757,"o":"m 468 -325 q 378 -295 414 -325 q 343 -212 343 -265 q 535 0 343 -71 l 547 68 q 363 -17 483 -17 q 154 203 154 -17 q 164 301 154 239 l 235 710 l 332 710 l 256 276 q 250 214 250 247 q 285 106 250 140 q 378 71 321 71 q 583 274 547 71 l 660 710 l 757 710 l 632 0 q 478 -83 528 -31 q 428 -193 428 -135 q 446 -240 428 -224 q 489 -256 464 -256 q 567 -224 528 -256 l 611 -264 q 468 -325 550 -325 z "},"Ŵ":{"ha":1104,"x_min":242,"x_max":1206,"o":"m 876 1021 l 746 1161 l 567 1021 l 481 1021 l 706 1238 l 813 1238 l 964 1021 l 876 1021 m 242 0 l 242 972 l 336 972 l 336 276 l 336 210 q 365 275 356 253 l 678 972 l 751 972 l 819 265 l 825 207 q 844 261 840 249 l 1101 972 l 1206 972 l 847 0 l 761 0 l 686 717 l 682 756 q 664 717 669 729 l 328 0 l 242 0 z "},"ŵ":{"ha":940,"x_min":175,"x_max":1015,"o":"m 765 799 l 635 939 l 456 799 l 369 799 l 594 1015 l 701 1015 l 853 799 l 765 799 m 226 0 l 175 710 l 268 710 l 296 172 l 299 118 q 322 172 315 157 l 560 710 l 628 710 l 683 172 l 689 118 q 710 172 700 149 l 918 710 l 1015 710 l 728 0 l 633 0 l 572 475 l 565 531 q 538 471 544 486 l 319 0 l 226 0 z "},"Ŷ":{"ha":824,"x_min":232,"x_max":933,"o":"m 743 1021 l 613 1161 l 433 1021 l 347 1021 l 572 1238 l 679 1238 l 831 1021 l 743 1021 m 363 0 l 431 389 l 232 972 l 331 972 l 490 472 l 833 972 l 933 972 l 522 379 l 456 0 l 363 0 z "},"ŷ":{"ha":683,"x_min":142,"x_max":760,"o":"m 496 939 l 317 799 l 231 799 l 456 1015 l 563 1015 l 714 799 l 626 799 l 496 939 m 654 710 l 760 710 l 240 -269 l 142 -269 l 294 22 l 165 710 l 265 710 l 349 194 q 357 143 357 147 q 385 194 357 150 l 654 710 z "},"Ÿ":{"ha":824,"x_min":232,"x_max":933,"o":"m 493 1076 q 456 1092 471 1076 q 440 1132 440 1108 q 463 1185 440 1163 q 515 1207 486 1207 q 553 1192 539 1207 q 568 1153 568 1176 q 546 1099 568 1122 q 493 1076 524 1076 m 715 1076 q 677 1092 693 1076 q 661 1132 661 1108 q 685 1185 661 1164 q 738 1207 708 1207 q 776 1192 761 1207 q 790 1153 790 1176 q 767 1099 790 1122 q 715 1076 744 1076 m 363 0 l 431 389 l 232 972 l 331 972 l 490 472 l 833 972 l 933 972 l 522 379 l 456 0 l 363 0 z "},"Ź":{"ha":851,"x_min":94,"x_max":928,"o":"m 631 1021 l 535 1021 l 763 1238 l 904 1238 l 631 1021 m 94 0 l 107 68 l 793 886 l 282 886 l 296 972 l 928 972 l 915 901 l 236 86 l 772 86 l 757 0 l 94 0 z "},"ź":{"ha":667,"x_min":94,"x_max":765,"o":"m 492 799 l 396 799 l 624 1015 l 765 1015 l 492 799 m 94 0 l 106 60 l 543 622 l 231 622 l 246 710 l 692 710 l 682 651 l 239 88 l 581 88 l 565 0 l 94 0 z "},"Ż":{"ha":851,"x_min":94,"x_max":928,"o":"m 618 1063 q 581 1078 596 1063 q 565 1118 565 1094 q 588 1171 565 1149 q 640 1193 611 1193 q 678 1178 664 1193 q 693 1139 693 1163 q 671 1085 693 1108 q 618 1063 649 1063 m 94 0 l 107 68 l 793 886 l 282 886 l 296 972 l 928 972 l 915 901 l 236 86 l 772 86 l 757 0 l 94 0 z "},"ż":{"ha":667,"x_min":94,"x_max":692,"o":"m 479 840 q 442 856 457 840 q 426 896 426 872 q 449 949 426 926 q 501 971 472 971 q 540 956 525 971 q 554 917 554 940 q 532 863 554 886 q 479 840 510 840 m 94 0 l 106 60 l 543 622 l 231 622 l 246 710 l 692 710 l 682 651 l 239 88 l 581 88 l 565 0 l 94 0 z "},"Ž":{"ha":851,"x_min":94,"x_max":928,"o":"m 664 1021 l 557 1021 l 407 1238 l 493 1238 l 624 1097 l 803 1238 l 890 1238 l 664 1021 m 94 0 l 107 68 l 793 886 l 282 886 l 296 972 l 928 972 l 915 901 l 236 86 l 772 86 l 757 0 l 94 0 z "},"ž":{"ha":667,"x_min":94,"x_max":751,"o":"m 525 799 l 418 799 l 268 1015 l 354 1015 l 485 875 l 664 1015 l 751 1015 l 525 799 m 94 0 l 106 60 l 543 622 l 231 622 l 246 710 l 692 710 l 682 651 l 239 88 l 581 88 l 565 0 l 94 0 z "},"ſ":{"ha":435,"x_min":142,"x_max":569,"o":"m 142 0 l 288 831 q 458 989 315 989 q 569 956 519 989 l 556 871 q 460 899 513 899 q 383 815 399 899 l 239 0 l 142 0 z "},"ƒ":{"ha":519,"x_min":0,"x_max":626,"o":"m 29 -296 l 0 -219 q 186 -83 164 -204 l 311 622 l 201 622 l 217 710 l 326 710 l 347 831 q 410 950 361 911 q 518 989 458 989 q 626 956 576 989 l 613 871 q 519 899 565 899 q 472 885 490 899 q 449 857 454 872 q 439 815 443 842 l 419 710 l 583 710 l 568 622 l 404 622 l 286 -44 q 29 -296 244 -282 z "},"Ǎ":{"ha":885,"x_min":75,"x_max":896,"o":"m 669 1021 l 563 1021 l 413 1238 l 499 1238 l 629 1097 l 808 1238 l 896 1238 l 669 1021 m 75 0 l 569 972 l 647 972 l 804 0 l 710 0 l 669 251 l 304 251 l 178 0 l 75 0 m 347 338 l 657 338 l 596 726 q 583 814 586 785 q 543 726 578 801 l 347 338 z "},"ǎ":{"ha":711,"x_min":114,"x_max":786,"o":"m 560 799 l 453 799 l 303 1015 l 389 1015 l 519 875 l 699 1015 l 786 1015 l 560 799 m 513 0 l 522 58 q 318 -17 431 -17 q 169 39 224 -17 q 114 188 114 94 q 200 390 114 322 q 404 458 286 458 q 583 406 508 458 l 594 468 q 601 528 601 503 q 486 642 601 642 q 261 565 379 642 l 249 649 q 493 726 381 726 q 633 682 574 726 q 693 539 693 638 q 686 472 693 511 l 603 0 l 513 0 m 335 68 q 449 99 392 68 q 543 172 506 129 l 567 313 q 403 374 490 374 q 261 329 318 374 q 204 197 204 285 q 238 104 204 140 q 335 68 272 68 z "},"Ǐ":{"ha":375,"x_min":139,"x_max":649,"o":"m 422 1021 l 315 1021 l 165 1238 l 251 1238 l 382 1097 l 561 1238 l 649 1238 l 422 1021 m 139 0 l 310 972 l 407 972 l 236 0 l 139 0 z "},"ǐ":{"ha":335,"x_min":103,"x_max":586,"o":"m 360 799 l 253 799 l 103 1015 l 189 1015 l 319 875 l 499 1015 l 586 1015 l 360 799 m 118 0 l 243 710 l 336 710 l 211 0 l 118 0 z "},"Ǒ":{"ha":961,"x_min":167,"x_max":967,"o":"m 708 1021 l 601 1021 l 451 1238 l 538 1238 l 668 1097 l 847 1238 l 935 1238 l 708 1021 m 489 -17 q 247 93 326 -17 q 167 367 167 203 q 197 581 167 474 q 283 781 226 688 q 433 931 339 874 q 646 989 528 989 q 832 931 757 989 q 937 790 907 872 q 967 606 967 707 q 949 435 967 521 q 892 267 931 349 q 799 123 854 186 q 664 22 744 60 q 489 -17 583 -17 m 489 71 q 658 120 582 71 q 778 249 733 169 q 846 421 822 329 q 869 606 869 513 q 849 747 869 683 q 775 856 828 811 q 646 901 722 901 q 477 852 553 901 q 356 723 401 803 q 288 551 311 643 q 264 367 264 460 q 319 156 264 240 q 489 71 375 71 z "},"ǒ":{"ha":732,"x_min":122,"x_max":783,"o":"m 557 799 l 450 799 l 300 1015 l 386 1015 l 517 875 l 696 1015 l 783 1015 l 557 799 m 374 -17 q 185 66 247 -17 q 122 272 122 149 q 145 430 122 351 q 210 576 168 508 q 324 685 253 643 q 482 726 394 726 q 672 642 610 726 q 733 438 733 557 q 711 281 733 358 q 647 135 689 203 q 533 25 604 67 q 374 -17 461 -17 m 374 71 q 520 130 458 71 q 609 269 582 189 q 636 438 636 350 q 598 580 636 521 q 482 639 560 639 q 336 581 399 639 q 247 441 274 522 q 219 272 219 360 q 258 128 219 186 q 374 71 296 71 z "},"Ǔ":{"ha":908,"x_min":185,"x_max":949,"o":"m 683 1021 l 576 1021 l 426 1238 l 513 1238 l 643 1097 l 822 1238 l 910 1238 l 683 1021 m 471 -17 q 263 53 340 -17 q 185 263 185 124 q 194 371 185 317 l 300 972 l 397 972 l 290 363 q 282 267 282 310 q 474 71 282 71 q 645 135 575 71 q 744 361 715 200 l 851 972 l 949 972 l 842 361 q 717 72 807 161 q 471 -17 626 -17 z "},"ǔ":{"ha":749,"x_min":154,"x_max":785,"o":"m 558 799 l 451 799 l 301 1015 l 388 1015 l 518 875 l 697 1015 l 785 1015 l 558 799 m 535 0 l 547 68 q 363 -17 483 -17 q 154 203 154 -17 q 164 301 154 239 l 235 710 l 332 710 l 256 276 q 250 214 250 247 q 285 106 250 140 q 378 71 321 71 q 583 274 547 71 l 660 710 l 757 710 l 632 0 l 535 0 z "},"Ǽ":{"ha":1168,"x_min":-11,"x_max":1215,"o":"m 813 1021 l 717 1021 l 944 1238 l 1086 1238 l 813 1021 m -11 0 l 703 972 l 1215 972 l 1201 885 l 842 885 l 782 547 l 1014 547 l 997 460 l 767 460 l 701 88 l 1090 88 l 1075 0 l 589 0 l 633 251 l 288 251 l 106 0 l -11 0 m 350 338 l 649 338 l 746 892 q 689 810 743 886 l 350 338 z "},"ǽ":{"ha":1150,"x_min":114,"x_max":1163,"o":"m 738 799 l 642 799 l 869 1015 l 1011 1015 l 738 799 m 318 -17 q 169 39 225 -17 q 114 188 114 94 q 198 389 114 319 q 410 458 282 458 q 583 406 510 458 l 594 468 q 601 525 601 503 q 486 642 601 642 q 261 565 379 642 l 249 649 q 493 726 381 726 q 614 692 565 726 q 679 603 663 658 q 921 726 772 726 q 1101 659 1039 726 q 1163 467 1163 592 q 1136 315 1163 413 l 672 315 q 671 290 671 303 q 713 130 671 186 q 831 74 754 74 q 994 129 914 74 l 1038 58 q 819 -17 936 -17 q 684 26 743 -17 q 600 142 625 68 q 318 -17 486 -17 m 683 403 l 1058 403 q 1068 483 1068 443 q 1027 599 1068 558 q 921 639 986 639 q 774 579 839 639 q 683 403 710 519 m 335 68 q 576 215 460 68 q 572 258 572 254 q 571 308 571 279 q 403 374 497 374 q 260 330 317 374 q 204 197 204 286 q 238 104 204 140 q 335 68 272 68 z "},"Ǿ":{"ha":961,"x_min":107,"x_max":1026,"o":"m 722 1064 l 626 1064 l 854 1281 l 996 1281 l 722 1064 m 107 -17 l 218 119 q 167 365 167 208 q 195 579 167 474 q 279 778 224 685 q 433 931 335 872 q 656 989 531 989 q 865 914 788 989 l 928 989 l 1026 989 l 915 853 q 967 604 967 764 q 950 435 967 519 q 895 269 933 351 q 802 124 857 186 q 663 22 747 61 q 478 -17 579 -17 q 264 58 346 -17 l 203 -17 l 107 -17 m 288 206 l 803 836 q 639 901 742 901 q 472 852 546 901 q 353 723 397 803 q 287 553 310 643 q 264 371 264 463 q 288 206 264 264 m 493 71 q 662 120 588 71 q 780 249 736 169 q 847 417 824 328 q 869 597 869 507 q 843 767 869 704 l 328 136 q 493 71 386 71 z "},"ǿ":{"ha":732,"x_min":71,"x_max":836,"o":"m 563 800 l 467 800 l 694 1017 l 836 1017 l 563 800 m 71 -17 l 165 94 q 122 272 122 168 q 145 430 122 351 q 210 576 168 508 q 324 685 253 643 q 482 726 394 726 q 647 667 581 726 l 697 726 l 785 726 l 690 614 q 733 438 733 538 q 711 281 733 358 q 647 135 689 203 q 533 25 604 67 q 374 -17 461 -17 q 207 42 272 -17 l 158 -17 l 71 -17 m 233 176 l 586 594 q 482 639 546 639 q 336 581 399 639 q 247 441 274 522 q 219 272 219 360 q 233 176 219 218 m 374 71 q 520 130 458 71 q 609 269 582 189 q 636 438 636 350 q 621 532 636 492 l 269 114 q 374 71 308 71 z "},"Ș":{"ha":793,"x_min":126,"x_max":790,"o":"m 704 803 q 533 901 654 901 q 392 858 444 901 q 340 744 340 814 q 382 649 340 689 q 483 583 424 610 q 601 523 542 556 q 701 431 660 490 q 743 286 743 371 q 650 63 743 142 q 410 -17 557 -17 q 226 39 301 -17 q 126 181 150 94 l 215 215 q 418 71 268 71 q 583 124 524 71 q 643 278 643 178 q 602 388 643 342 q 502 465 561 435 q 384 526 443 494 q 284 610 325 557 q 243 736 243 663 q 325 917 243 846 q 540 989 407 989 q 701 946 635 989 q 790 840 767 903 l 704 803 m 332 -339 l 308 -332 q 379 -229 361 -294 q 333 -212 349 -229 q 318 -169 318 -194 q 344 -106 318 -131 q 403 -81 371 -81 q 444 -99 428 -81 q 461 -149 461 -118 q 332 -339 461 -267 z "},"ș":{"ha":619,"x_min":97,"x_max":631,"o":"m 331 -17 q 97 107 178 -17 l 171 165 q 333 69 233 69 q 442 101 399 69 q 486 190 486 133 q 453 263 486 232 q 375 315 421 293 q 283 362 329 338 q 205 428 238 386 q 172 531 172 471 q 238 673 172 619 q 404 726 304 726 q 631 618 564 726 l 563 565 q 403 640 501 640 q 303 611 343 640 q 264 533 264 582 q 297 468 264 496 q 376 420 329 440 q 469 374 422 400 q 549 302 517 349 q 582 189 582 256 q 513 40 582 96 q 331 -17 444 -17 m 254 -339 l 231 -332 q 301 -229 283 -294 q 256 -212 271 -229 q 240 -169 240 -194 q 267 -106 240 -131 q 325 -81 293 -81 q 367 -99 350 -81 q 383 -149 383 -118 q 254 -339 383 -267 z "},"Ț":{"ha":768,"x_min":238,"x_max":858,"o":"m 589 885 l 433 0 l 336 0 l 492 885 l 238 885 l 251 972 l 858 972 l 844 885 l 589 885 m 307 -339 l 283 -332 q 354 -229 336 -294 q 308 -212 324 -229 q 293 -169 293 -194 q 319 -106 293 -131 q 378 -81 346 -81 q 419 -99 403 -81 q 436 -149 436 -118 q 307 -339 436 -267 z "},"ț":{"ha":493,"x_min":147,"x_max":549,"o":"m 292 -17 q 206 17 235 -17 q 178 108 178 51 q 182 156 178 131 l 264 622 l 147 622 l 163 710 l 279 710 l 324 961 l 428 1003 l 376 710 l 549 710 l 533 622 l 361 622 l 285 188 q 279 136 279 151 q 338 75 279 75 q 446 113 388 75 l 417 11 q 292 -17 361 -17 m 213 -339 l 189 -332 q 260 -229 242 -294 q 214 -212 229 -229 q 199 -169 199 -194 q 225 -106 199 -131 q 283 -81 251 -81 q 325 -99 308 -81 q 342 -149 342 -118 q 213 -339 342 -267 z "},"ȷ":{"ha":346,"x_min":-78,"x_max":343,"o":"m -47 -300 l -78 -219 q 56 -180 17 -211 q 106 -83 94 -149 l 246 710 l 343 710 l 201 -93 q 118 -250 182 -207 q -47 -300 54 -293 z "},"ˆ":{"ha":476,"x_min":186,"x_max":669,"o":"m 582 800 l 451 940 l 272 800 l 186 800 l 411 1017 l 518 1017 l 669 800 l 582 800 z "},"ˇ":{"ha":476,"x_min":208,"x_max":692,"o":"m 465 800 l 358 800 l 208 1017 l 294 1017 l 425 876 l 604 1017 l 692 1017 l 465 800 z "},"ˉ":{"ha":476,"x_min":218,"x_max":674,"o":"m 218 846 l 233 931 l 674 931 l 658 846 l 218 846 z "},"˘":{"ha":476,"x_min":226,"x_max":707,"o":"m 436 807 q 280 857 333 807 q 226 981 226 907 q 231 1031 226 1006 l 318 1031 q 315 1003 315 1011 q 443 893 315 893 q 554 931 504 893 q 615 1031 604 969 l 707 1031 q 621 869 689 931 q 436 807 553 807 z "},"˙":{"ha":476,"x_min":379,"x_max":507,"o":"m 432 842 q 394 858 410 842 q 379 897 379 874 q 402 950 379 928 q 454 972 425 972 q 492 957 478 972 q 507 918 507 942 q 485 865 507 888 q 432 842 463 842 z "},"˚":{"ha":476,"x_min":286,"x_max":597,"o":"m 414 750 q 323 790 360 750 q 286 885 286 829 q 342 1010 286 957 q 469 1063 399 1063 q 560 1024 524 1063 q 597 931 597 986 q 540 804 597 858 q 414 750 483 750 m 426 822 q 492 851 464 822 q 519 924 519 881 q 502 972 519 954 q 457 990 485 990 q 393 963 421 990 q 365 893 365 936 q 383 842 365 863 q 426 822 400 822 z "},"˛":{"ha":476,"x_min":63,"x_max":358,"o":"m 188 -325 q 98 -295 133 -325 q 63 -212 63 -265 q 122 -78 63 -136 q 285 14 181 -19 l 358 14 q 201 -81 254 -28 q 147 -193 147 -135 q 165 -240 147 -224 q 207 -256 182 -256 q 286 -224 247 -256 l 331 -264 q 188 -325 269 -325 z "},"˜":{"ha":476,"x_min":200,"x_max":683,"o":"m 533 836 q 419 871 483 836 q 325 906 356 906 q 251 842 267 906 l 200 842 q 350 994 226 994 q 464 959 400 994 q 557 924 528 924 q 604 941 583 924 q 633 989 625 958 l 683 989 q 533 836 656 836 z "},"˝":{"ha":476,"x_min":332,"x_max":965,"o":"m 332 800 l 558 1017 l 701 1017 l 426 800 l 332 800 m 596 800 l 822 1017 l 965 1017 l 690 800 l 596 800 z "},"̒":{"ha":0,"x_min":-106,"x_max":50,"o":"m -40 838 q -87 857 -69 838 q -106 915 -106 876 q -73 1011 -106 961 q 22 1097 -40 1061 l 50 1089 q -21 986 -3 1051 q 24 968 8 986 q 40 926 40 950 q 16 861 40 885 q -40 838 -8 838 z "},"̦":{"ha":0,"x_min":-343,"x_max":-190,"o":"m -319 -339 l -343 -332 q -272 -229 -290 -294 q -318 -212 -303 -229 q -333 -169 -333 -194 q -307 -106 -333 -131 q -249 -81 -281 -81 q -207 -99 -224 -81 q -190 -149 -190 -118 q -319 -339 -190 -267 z "},"Ω":{"ha":986,"x_min":114,"x_max":964,"o":"m 585 0 l 603 99 q 815 358 765 254 q 865 629 865 463 q 813 822 865 743 q 650 901 761 901 q 456 828 536 901 q 340 651 375 756 q 304 428 304 547 q 418 99 304 257 l 400 0 l 114 0 l 129 88 l 354 88 q 246 231 283 142 q 208 431 208 321 q 235 624 208 529 q 316 803 263 719 q 460 938 369 886 q 667 989 551 989 q 806 958 746 989 q 899 876 867 928 q 948 765 932 824 q 964 640 964 706 q 658 88 964 269 l 886 88 l 871 0 l 585 0 z "},"μ":{"ha":749,"x_min":64,"x_max":757,"o":"m 538 0 l 553 81 q 361 -17 481 -17 q 277 5 315 -17 q 222 69 239 26 l 168 -240 l 64 -282 l 239 710 l 336 710 l 260 279 q 251 197 251 226 q 282 108 251 146 q 382 71 313 71 q 511 120 454 71 q 586 274 568 169 l 663 710 l 757 710 l 632 0 l 538 0 z "},"π":{"ha":907,"x_min":83,"x_max":943,"o":"m 153 -28 l 83 38 q 153 85 124 60 q 215 156 182 110 q 274 277 249 201 q 318 458 300 353 l 344 606 l 211 606 l 229 710 l 943 710 l 925 606 l 754 606 l 681 188 q 675 136 675 151 q 733 75 675 75 q 842 113 783 75 l 813 11 q 703 -17 757 -17 q 611 17 646 -17 q 576 108 576 50 q 583 186 576 147 l 657 606 l 435 606 l 419 518 q 322 162 381 294 q 153 -28 264 29 z "},"Ẁ":{"ha":1104,"x_min":242,"x_max":1206,"o":"m 692 1021 l 492 1238 l 635 1238 l 786 1021 l 692 1021 m 242 0 l 242 972 l 336 972 l 336 276 l 336 210 q 365 275 356 253 l 678 972 l 751 972 l 819 265 l 825 207 q 844 261 840 249 l 1101 972 l 1206 972 l 847 0 l 761 0 l 686 717 l 682 756 q 664 717 669 729 l 328 0 l 242 0 z "},"ẁ":{"ha":940,"x_min":175,"x_max":1015,"o":"m 581 799 l 381 1015 l 524 1015 l 675 799 l 581 799 m 226 0 l 175 710 l 268 710 l 296 172 l 299 118 q 322 172 315 157 l 560 710 l 628 710 l 683 172 l 689 118 q 710 172 700 149 l 918 710 l 1015 710 l 728 0 l 633 0 l 572 475 l 565 531 q 538 471 544 486 l 319 0 l 226 0 z "},"Ẃ":{"ha":1104,"x_min":242,"x_max":1206,"o":"m 743 1021 l 647 1021 l 875 1238 l 1017 1238 l 743 1021 m 242 0 l 242 972 l 336 972 l 336 276 l 336 210 q 365 275 356 253 l 678 972 l 751 972 l 819 265 l 825 207 q 844 261 840 249 l 1101 972 l 1206 972 l 847 0 l 761 0 l 686 717 l 682 756 q 664 717 669 729 l 328 0 l 242 0 z "},"ẃ":{"ha":940,"x_min":175,"x_max":1015,"o":"m 632 799 l 536 799 l 764 1015 l 906 1015 l 632 799 m 226 0 l 175 710 l 268 710 l 296 172 l 299 118 q 322 172 315 157 l 560 710 l 628 710 l 683 172 l 689 118 q 710 172 700 149 l 918 710 l 1015 710 l 728 0 l 633 0 l 572 475 l 565 531 q 538 471 544 486 l 319 0 l 226 0 z "},"Ẅ":{"ha":1104,"x_min":242,"x_max":1206,"o":"m 626 1076 q 589 1092 604 1076 q 574 1132 574 1108 q 597 1185 574 1163 q 649 1207 619 1207 q 687 1192 672 1207 q 701 1153 701 1176 q 679 1099 701 1122 q 626 1076 657 1076 m 849 1076 q 810 1092 826 1076 q 794 1132 794 1108 q 818 1185 794 1164 q 871 1207 842 1207 q 909 1192 894 1207 q 924 1153 924 1176 q 901 1099 924 1122 q 849 1076 878 1076 m 242 0 l 242 972 l 336 972 l 336 276 l 336 210 q 365 275 356 253 l 678 972 l 751 972 l 819 265 l 825 207 q 844 261 840 249 l 1101 972 l 1206 972 l 847 0 l 761 0 l 686 717 l 682 756 q 664 717 669 729 l 328 0 l 242 0 z "},"ẅ":{"ha":940,"x_min":175,"x_max":1015,"o":"m 515 854 q 478 870 493 854 q 463 910 463 886 q 485 963 463 940 q 538 985 508 985 q 576 969 561 985 q 590 931 590 954 q 568 877 590 900 q 515 854 546 854 m 738 854 q 699 870 715 854 q 683 910 683 886 q 707 963 683 942 q 760 985 731 985 q 798 969 783 985 q 813 931 813 954 q 790 877 813 900 q 738 854 767 854 m 226 0 l 175 710 l 268 710 l 296 172 l 299 118 q 322 172 315 157 l 560 710 l 628 710 l 683 172 l 689 118 q 710 172 700 149 l 918 710 l 1015 710 l 728 0 l 633 0 l 572 475 l 565 531 q 538 471 544 486 l 319 0 l 226 0 z "},"Ỳ":{"ha":824,"x_min":232,"x_max":933,"o":"m 558 1021 l 358 1238 l 501 1238 l 653 1021 l 558 1021 m 363 0 l 431 389 l 232 972 l 331 972 l 490 472 l 833 972 l 933 972 l 522 379 l 456 0 l 363 0 z "},"ỳ":{"ha":683,"x_min":142,"x_max":760,"o":"m 536 799 l 442 799 l 242 1015 l 385 1015 l 536 799 m 654 710 l 760 710 l 240 -269 l 142 -269 l 294 22 l 165 710 l 265 710 l 349 194 q 357 143 357 147 q 385 194 357 150 l 654 710 z "},"–":{"ha":729,"x_min":164,"x_max":706,"o":"m 164 357 l 179 440 l 706 440 l 690 357 l 164 357 z "},"—":{"ha":836,"x_min":90,"x_max":886,"o":"m 90 357 l 106 440 l 886 440 l 871 357 l 90 357 z "},"―":{"ha":836,"x_min":90,"x_max":886,"o":"m 90 357 l 106 440 l 886 440 l 871 357 l 90 357 z "},"‘":{"ha":331,"x_min":203,"x_max":392,"o":"m 281 642 q 226 665 249 642 q 203 732 203 689 q 249 879 203 811 q 368 989 296 947 l 392 982 q 296 819 313 918 q 358 799 335 819 q 381 746 381 778 q 351 671 381 700 q 281 642 321 642 z "},"’":{"ha":331,"x_min":226,"x_max":415,"o":"m 250 642 l 226 649 q 322 811 306 713 q 262 831 285 811 q 239 885 239 851 q 268 960 239 931 q 338 989 297 989 q 392 965 369 989 q 415 899 415 942 q 369 751 415 819 q 250 642 322 683 z "},"‚":{"ha":331,"x_min":79,"x_max":267,"o":"m 103 -196 l 79 -189 q 175 -26 156 -128 q 115 -6 138 -26 q 92 47 92 14 q 121 122 92 93 q 189 151 150 151 q 244 128 222 151 q 267 61 267 104 q 221 -86 267 -18 q 103 -196 175 -154 z "},"‛":{"ha":331,"x_min":221,"x_max":410,"o":"m 299 640 q 244 722 267 668 q 221 826 221 775 q 258 949 221 908 q 343 989 294 989 q 391 969 372 989 q 410 915 410 949 q 376 840 410 869 q 294 811 343 811 q 299 753 294 781 q 332 649 308 697 l 299 640 z "},"“":{"ha":592,"x_min":203,"x_max":654,"o":"m 281 642 q 226 665 249 642 q 203 732 203 689 q 249 879 203 811 q 368 989 296 947 l 392 982 q 296 819 313 918 q 358 799 335 819 q 381 746 381 778 q 351 671 381 700 q 281 642 321 642 m 542 642 q 487 665 510 642 q 464 733 464 689 q 510 879 464 811 q 629 989 557 947 l 654 982 q 558 819 576 922 q 619 799 596 819 q 642 746 642 778 q 612 671 642 700 q 542 642 582 642 z "},"”":{"ha":592,"x_min":226,"x_max":676,"o":"m 250 642 l 226 649 q 322 811 306 713 q 262 831 285 811 q 239 885 239 851 q 268 960 239 931 q 338 989 297 989 q 392 965 369 989 q 415 899 415 942 q 369 751 415 819 q 250 642 322 683 m 511 642 l 488 649 q 583 811 567 713 q 523 832 546 811 q 500 885 500 853 q 530 960 500 931 q 599 989 560 989 q 653 965 631 989 q 676 899 676 942 q 630 751 676 819 q 511 642 583 683 z "},"„":{"ha":592,"x_min":79,"x_max":528,"o":"m 103 -196 l 79 -189 q 175 -26 156 -128 q 115 -6 138 -26 q 92 47 92 14 q 121 122 92 93 q 189 151 150 151 q 244 128 222 151 q 267 61 267 104 q 221 -86 267 -18 q 103 -196 175 -154 m 364 -196 l 340 -189 q 436 -26 417 -128 q 376 -6 399 -26 q 353 47 353 15 q 382 122 353 92 q 450 151 411 151 q 506 128 483 151 q 528 61 528 104 q 482 -86 528 -18 q 364 -196 436 -154 z "},"†":{"ha":776,"x_min":228,"x_max":778,"o":"m 531 635 l 518 469 l 358 -196 l 351 -196 l 422 469 l 465 635 l 275 608 l 228 608 l 244 703 l 292 703 l 469 675 l 483 815 l 514 989 l 610 989 l 579 815 l 540 675 l 729 703 l 778 703 l 761 608 l 713 608 l 531 635 z "},"‡":{"ha":776,"x_min":136,"x_max":778,"o":"m 638 185 l 686 185 l 669 88 l 621 88 l 442 118 l 431 -22 l 400 -196 l 304 -196 l 335 -22 l 371 118 l 183 88 l 136 88 l 153 185 l 200 185 l 381 156 l 396 322 l 422 469 l 465 635 l 275 608 l 228 608 l 244 703 l 292 703 l 469 675 l 483 815 l 514 989 l 610 989 l 579 815 l 540 675 l 729 703 l 778 703 l 761 608 l 713 608 l 531 635 l 518 469 l 492 322 l 446 156 l 638 185 z "},"•":{"ha":585,"x_min":199,"x_max":558,"o":"m 344 310 q 239 352 279 310 q 199 458 199 394 q 260 604 199 543 q 407 665 322 665 q 516 621 474 665 q 558 514 558 576 q 494 369 558 429 q 344 310 431 310 z "},"…":{"ha":1122,"x_min":160,"x_max":975,"o":"m 206 -17 q 173 -3 186 -17 q 160 29 160 11 q 180 74 160 54 q 225 93 200 93 q 259 79 246 93 q 272 44 272 65 q 252 2 272 21 q 206 -17 232 -17 m 557 -17 q 524 -3 538 -17 q 511 29 511 11 q 531 74 511 54 q 576 93 550 93 q 611 78 597 93 q 625 44 625 64 q 604 1 625 19 q 557 -17 583 -17 m 908 -17 q 876 -3 889 -17 q 863 29 863 11 q 883 74 863 54 q 928 93 903 93 q 962 79 949 93 q 975 44 975 65 q 955 2 975 21 q 908 -17 935 -17 z "},"‰":{"ha":1724,"x_min":218,"x_max":1675,"o":"m 390 494 q 260 552 303 494 q 218 690 218 610 q 244 823 218 757 q 333 939 271 889 q 478 989 394 989 q 607 931 565 989 q 649 793 649 874 q 624 660 649 726 q 537 544 599 594 q 390 494 475 494 m 333 -17 l 238 -17 l 1053 989 l 1149 989 l 333 -17 m 404 575 q 518 638 475 575 q 561 786 561 700 q 536 875 561 842 q 463 908 511 908 q 348 847 389 908 q 307 697 307 785 q 331 609 307 643 q 404 575 356 575 m 908 -17 q 778 40 819 -17 q 736 178 736 97 q 804 382 736 286 q 996 478 872 478 q 1124 421 1082 478 q 1165 283 1165 364 q 1150 184 1165 235 q 1106 88 1135 133 q 1025 13 1076 42 q 908 -17 974 -17 m 1417 -17 q 1288 40 1329 -17 q 1246 178 1246 97 q 1262 277 1246 226 q 1308 374 1278 328 q 1389 449 1338 419 q 1504 478 1440 478 q 1633 421 1592 478 q 1675 283 1675 364 q 1660 184 1675 235 q 1615 88 1644 133 q 1534 13 1586 42 q 1417 -17 1482 -17 m 922 64 q 1036 126 993 64 q 1079 274 1079 188 q 1054 363 1079 329 q 981 397 1029 397 q 865 335 906 397 q 824 188 824 274 q 849 98 824 132 q 922 64 874 64 m 1431 64 q 1546 126 1503 64 q 1589 274 1589 188 q 1563 363 1589 329 q 1489 397 1538 397 q 1374 335 1415 397 q 1333 186 1333 274 q 1358 98 1333 132 q 1431 64 1382 64 z "},"′":{"ha":317,"x_min":186,"x_max":414,"o":"m 288 1014 l 414 1014 l 258 590 l 186 590 l 288 1014 z "},"″":{"ha":583,"x_min":186,"x_max":681,"o":"m 186 590 l 288 1014 l 414 1014 l 258 590 l 186 590 m 453 590 l 554 1014 l 681 1014 l 525 590 l 453 590 z "},"‹":{"ha":436,"x_min":138,"x_max":507,"o":"m 278 0 l 138 356 l 403 710 l 507 710 l 242 356 l 382 0 l 278 0 z "},"›":{"ha":436,"x_min":54,"x_max":424,"o":"m 54 0 l 319 356 l 179 710 l 283 710 l 424 356 l 158 0 l 54 0 z "},"⁄":{"ha":463,"x_min":-136,"x_max":771,"o":"m -136 -17 l 679 989 l 771 989 l -44 -17 l -136 -17 z "},"ⁿ":{"ha":642,"x_min":185,"x_max":676,"o":"m 517 393 l 576 732 q 583 797 583 769 q 494 901 583 901 q 397 860 439 901 q 342 738 356 818 l 281 393 l 185 393 l 288 975 l 383 975 l 371 904 q 440 967 406 946 q 524 989 475 989 q 634 942 592 989 q 676 806 676 894 q 665 700 676 763 l 611 393 l 517 393 z "},"₤":{"ha":835,"x_min":142,"x_max":900,"o":"m 142 0 l 161 110 q 260 197 218 135 q 324 332 303 260 l 193 332 l 207 411 l 335 411 q 336 438 336 417 q 328 503 336 469 l 224 503 l 238 582 l 306 582 q 297 661 297 615 q 391 894 297 799 q 653 989 485 989 q 900 899 803 989 l 849 810 q 806 848 825 833 q 740 879 786 863 q 636 896 693 896 q 463 831 524 896 q 401 671 401 765 q 413 582 401 618 l 669 582 l 656 503 l 435 503 q 440 453 440 472 q 438 411 440 433 l 639 411 l 625 332 l 424 332 q 239 90 382 204 l 775 90 l 760 0 l 142 0 z "},"€":{"ha":935,"x_min":129,"x_max":900,"o":"m 501 -17 q 291 74 354 -17 q 225 322 228 164 l 129 322 l 179 403 l 229 403 q 254 550 232 456 l 169 550 l 219 631 l 279 631 q 438 888 333 788 q 693 989 543 989 q 900 924 817 989 l 849 835 q 675 899 788 899 q 381 631 474 899 l 731 631 l 685 550 l 356 550 q 329 403 335 471 l 600 403 l 554 322 l 326 322 q 370 137 326 200 q 514 74 414 74 q 725 174 635 74 l 792 125 q 669 24 744 65 q 501 -17 593 -17 z "},"℅":{"ha":1393,"x_min":213,"x_max":1350,"o":"m 396 378 q 260 440 307 378 q 213 604 213 501 q 294 883 213 778 q 508 989 376 989 q 584 976 551 989 q 633 950 617 964 q 661 913 650 936 q 674 882 672 890 q 679 858 676 874 l 582 822 q 482 899 568 899 q 351 818 396 899 q 307 613 307 738 q 408 468 307 468 q 491 489 461 468 q 544 551 521 510 l 619 519 q 533 419 592 460 q 396 378 474 378 m 297 -17 l 1113 989 l 1211 989 l 396 -17 l 297 -17 m 1036 -17 q 884 46 939 -17 q 829 217 829 108 q 917 491 829 388 q 1143 594 1006 594 q 1296 532 1242 594 q 1350 360 1350 469 q 1263 85 1350 188 q 1036 -17 1176 -17 m 1051 74 q 1204 149 1151 74 q 1257 350 1257 224 q 1224 464 1257 424 q 1128 504 1192 504 q 981 431 1038 504 q 925 232 925 357 q 958 116 925 158 q 1051 74 992 74 z "},"ℓ":{"ha":633,"x_min":176,"x_max":682,"o":"m 367 -17 q 278 17 314 -17 q 243 114 243 51 q 253 207 243 153 l 276 346 q 192 301 221 313 l 176 381 q 293 442 231 401 l 343 726 q 556 989 389 989 q 647 944 611 989 q 682 814 682 900 q 669 726 682 769 q 642 651 657 683 q 595 583 626 619 q 544 525 564 546 q 485 473 525 504 q 431 433 444 442 q 381 397 418 424 l 347 208 q 340 132 340 164 q 392 74 340 74 q 501 126 443 74 l 518 57 q 367 -17 450 -17 m 536 896 q 478 856 501 896 q 436 707 456 815 l 399 500 q 583 806 583 632 q 536 896 583 896 z "},"№":{"ha":1639,"x_min":153,"x_max":1632,"o":"m 1318 378 q 1166 440 1221 378 q 1111 611 1111 503 q 1199 885 1111 782 q 1426 989 1288 989 q 1578 926 1524 989 q 1632 754 1632 864 q 1545 480 1632 582 q 1318 378 1458 378 m 153 0 l 324 972 l 414 972 l 726 224 l 750 167 q 760 222 758 213 l 892 972 l 989 972 l 818 0 l 719 0 l 431 692 l 389 792 q 371 690 374 707 l 250 0 l 153 0 m 1333 468 q 1485 543 1432 468 q 1539 744 1539 618 q 1506 858 1539 818 q 1410 899 1474 899 q 1262 825 1318 899 q 1206 628 1206 751 q 1240 510 1206 553 q 1333 468 1274 468 m 1050 181 l 1064 257 l 1531 257 l 1517 181 l 1050 181 z "},"™":{"ha":1078,"x_min":158,"x_max":1083,"o":"m 318 386 l 318 900 l 158 900 l 158 972 l 554 972 l 554 900 l 396 900 l 396 386 l 318 386 m 1083 386 l 1006 386 l 1006 732 l 982 678 l 849 375 l 713 678 l 689 735 l 689 386 l 611 386 l 611 972 l 674 972 l 831 606 l 847 565 l 864 606 l 1021 972 l 1083 972 l 1083 386 z "},"Ω":{"ha":986,"x_min":114,"x_max":964,"o":"m 585 0 l 603 99 q 815 358 765 254 q 865 629 865 463 q 813 822 865 743 q 650 901 761 901 q 456 828 536 901 q 340 651 375 756 q 304 428 304 547 q 418 99 304 257 l 400 0 l 114 0 l 129 88 l 354 88 q 246 231 283 142 q 208 431 208 321 q 235 624 208 529 q 316 803 263 719 q 460 938 369 886 q 667 989 551 989 q 806 958 746 989 q 899 876 867 928 q 948 765 932 824 q 964 640 964 706 q 658 88 964 269 l 886 88 l 871 0 l 585 0 z "},"℮":{"ha":1110,"x_min":175,"x_max":1119,"o":"m 654 -17 q 314 122 453 -17 q 175 486 175 261 q 215 708 175 610 q 324 868 256 807 q 478 961 392 929 q 658 993 564 993 q 828 960 749 993 q 972 866 908 928 q 1075 706 1036 804 q 1119 486 1114 608 l 393 486 l 393 182 q 497 99 428 132 q 654 67 567 67 q 990 260 864 67 l 1061 217 q 890 42 985 101 q 654 -17 794 -17 m 908 801 q 799 879 868 849 q 654 910 731 910 q 393 814 496 910 l 393 567 l 908 568 l 908 801 z "},"⅓":{"ha":1025,"x_min":38,"x_max":999,"o":"m 38 -17 l 853 989 l 944 989 l 129 -17 l 38 -17 m 194 393 l 274 843 l 211 843 l 222 903 q 322 979 285 903 l 378 979 l 275 393 l 194 393 m 649 158 q 760 53 672 53 q 851 87 817 53 q 885 174 885 121 q 865 237 885 210 q 810 264 844 264 l 764 264 l 775 333 l 804 333 q 884 368 857 333 q 911 449 911 403 q 892 503 911 481 q 835 526 872 526 q 764 501 799 526 q 707 438 729 476 l 640 463 q 731 558 672 521 q 853 596 789 596 q 958 561 918 596 q 999 467 999 526 q 970 373 999 417 q 896 311 942 329 q 972 194 972 285 q 908 41 972 99 q 747 -17 844 -17 q 628 22 674 -17 q 569 126 583 60 l 649 158 z "},"⅔":{"ha":1243,"x_min":138,"x_max":1217,"o":"m 219 850 q 418 989 275 989 q 540 947 496 989 q 585 838 585 906 q 542 710 585 760 q 388 596 499 660 q 243 467 281 535 l 519 467 l 506 393 l 138 393 q 163 473 146 436 q 197 533 179 510 q 251 586 214 557 q 309 630 288 615 q 383 676 331 644 q 474 750 446 715 q 501 836 501 785 q 480 893 501 868 q 413 918 458 918 q 283 821 321 918 l 219 850 m 256 -17 l 1071 989 l 1163 989 l 347 -17 l 256 -17 m 867 158 q 978 53 890 53 q 1069 87 1035 53 q 1103 174 1103 121 q 1083 237 1103 210 q 1028 264 1063 264 l 982 264 l 993 333 l 1022 333 q 1102 368 1075 333 q 1129 449 1129 403 q 1110 503 1129 481 q 1053 526 1090 526 q 982 501 1017 526 q 925 438 947 476 l 858 463 q 949 558 890 521 q 1071 596 1007 596 q 1176 561 1136 596 q 1217 467 1217 526 q 1188 373 1217 417 q 1114 311 1160 329 q 1190 194 1190 285 q 1126 41 1190 99 q 965 -17 1063 -17 q 847 22 892 -17 q 788 126 801 60 l 867 158 z "},"⅛":{"ha":1014,"x_min":38,"x_max":969,"o":"m 38 -17 l 853 989 l 944 989 l 129 -17 l 38 -17 m 194 393 l 274 843 l 211 843 l 222 903 q 322 979 285 903 l 378 979 l 275 393 l 194 393 m 725 -17 q 608 25 651 -17 q 565 132 565 67 q 692 324 565 269 q 656 361 671 335 q 642 419 642 388 q 698 545 642 494 q 833 596 754 596 q 932 559 894 596 q 969 465 969 522 q 942 378 969 417 q 878 324 914 340 q 947 197 947 288 q 884 44 947 104 q 725 -17 821 -17 m 789 349 q 863 377 835 349 q 892 451 892 406 q 873 506 892 486 q 821 526 854 526 q 747 496 778 526 q 717 418 717 465 q 736 368 717 388 q 789 349 756 349 m 738 53 q 829 91 792 53 q 867 190 867 129 q 843 257 867 229 q 778 285 819 285 q 687 244 725 285 q 649 147 649 203 q 673 78 649 104 q 738 53 697 53 z "},"⅜":{"ha":1215,"x_min":151,"x_max":1169,"o":"m 329 376 q 210 415 256 376 q 151 519 165 453 l 231 551 q 342 446 254 446 q 433 480 399 446 q 467 567 467 514 q 447 630 467 603 q 390 657 426 657 l 344 657 l 357 726 l 386 726 q 465 761 438 726 q 493 842 493 796 q 474 897 493 874 q 417 919 454 919 q 288 831 342 919 l 222 856 q 313 951 254 914 q 435 989 371 989 q 540 954 500 989 q 581 860 581 919 q 552 766 581 810 q 478 704 524 722 q 554 588 554 678 q 490 434 554 492 q 329 376 426 376 m 236 -17 l 1051 989 l 1143 989 l 328 -17 l 236 -17 m 925 -17 q 808 25 851 -17 q 765 132 765 67 q 892 324 765 269 q 856 361 871 335 q 842 419 842 388 q 898 545 842 494 q 1033 596 954 596 q 1132 559 1094 596 q 1169 465 1169 522 q 1142 378 1169 417 q 1078 324 1114 340 q 1147 197 1147 288 q 1084 44 1147 104 q 925 -17 1021 -17 m 989 349 q 1063 377 1035 349 q 1092 451 1092 406 q 1073 506 1092 486 q 1021 526 1054 526 q 947 496 978 526 q 917 418 917 465 q 936 368 917 388 q 989 349 956 349 m 938 53 q 1029 91 992 53 q 1067 190 1067 129 q 1043 257 1067 229 q 978 285 1019 285 q 887 244 925 285 q 849 147 849 203 q 873 78 849 104 q 938 53 897 53 z "},"⅝":{"ha":1192,"x_min":135,"x_max":1146,"o":"m 214 -17 l 1029 989 l 1121 989 l 306 -17 l 214 -17 m 303 376 q 197 399 242 376 q 135 451 151 422 l 189 508 q 238 464 206 482 q 310 446 271 446 q 421 491 379 446 q 463 603 463 536 q 439 674 463 646 q 369 703 415 703 q 238 646 292 703 l 186 664 l 286 972 l 567 972 l 554 896 l 333 896 l 282 739 q 396 772 332 772 q 504 728 464 772 q 544 614 544 685 q 474 446 544 515 q 303 376 404 376 m 901 -17 q 785 25 828 -17 q 742 132 742 67 q 868 324 742 269 q 833 361 847 335 q 818 419 818 388 q 874 545 818 494 q 1010 596 931 596 q 1108 559 1071 596 q 1146 465 1146 522 q 1118 378 1146 417 q 1054 324 1090 340 q 1124 197 1124 288 q 1060 44 1124 104 q 901 -17 997 -17 m 965 349 q 1040 377 1011 349 q 1068 451 1068 406 q 1049 506 1068 486 q 997 526 1031 526 q 924 496 954 526 q 893 418 893 465 q 913 368 893 388 q 965 349 932 349 m 914 53 q 1006 91 968 53 q 1043 190 1043 129 q 1019 257 1043 229 q 954 285 996 285 q 863 244 901 285 q 825 147 825 203 q 849 78 825 104 q 914 53 874 53 z "},"⅞":{"ha":1065,"x_min":86,"x_max":1021,"o":"m 86 -17 l 901 989 l 993 989 l 178 -17 l 86 -17 m 214 393 q 468 896 264 668 l 200 896 l 213 972 l 569 972 l 556 892 q 300 393 354 696 l 214 393 m 776 -17 q 660 25 703 -17 q 617 132 617 67 q 743 324 617 269 q 708 361 722 335 q 693 419 693 388 q 749 545 693 494 q 885 596 806 596 q 983 559 946 596 q 1021 465 1021 522 q 993 378 1021 417 q 929 324 965 340 q 999 197 999 288 q 935 44 999 104 q 776 -17 872 -17 m 840 349 q 915 377 886 349 q 943 451 943 406 q 924 506 943 486 q 872 526 906 526 q 799 496 829 526 q 768 418 768 465 q 788 368 768 388 q 840 349 807 349 m 789 53 q 881 91 843 53 q 918 190 918 129 q 894 257 918 229 q 829 285 871 285 q 738 244 776 285 q 700 147 700 203 q 724 78 700 104 q 789 53 749 53 z "},"←":{"ha":1111,"x_min":63,"x_max":1035,"o":"m 385 272 q 361 283 379 272 l 79 474 q 63 500 63 483 q 79 526 63 515 l 361 718 q 385 729 379 729 q 401 714 401 729 q 393 685 401 707 l 343 539 l 1035 554 l 1035 446 l 343 461 l 393 317 q 401 288 401 292 q 385 272 401 272 z "},"↑":{"ha":588,"x_min":67,"x_max":521,"o":"m 240 0 l 256 686 l 97 632 q 89 631 94 631 q 73 638 79 631 q 67 653 67 644 q 71 665 67 658 l 271 960 q 294 972 279 972 q 318 960 310 972 l 517 665 q 521 653 521 658 q 515 638 521 644 q 499 631 508 631 q 490 632 493 631 l 333 686 l 349 0 l 240 0 z "},"→":{"ha":1111,"x_min":76,"x_max":1049,"o":"m 726 272 q 710 288 710 272 q 718 317 710 292 l 768 461 l 76 446 l 76 554 l 768 539 l 718 685 q 710 714 710 707 q 726 729 710 729 q 750 718 732 729 l 1032 526 q 1049 500 1049 517 q 1032 474 1049 483 l 750 283 q 726 272 732 272 z "},"↓":{"ha":588,"x_min":67,"x_max":521,"o":"m 318 13 q 294 0 310 0 q 271 13 279 0 l 71 307 q 67 319 67 314 q 73 335 67 328 q 89 342 79 342 q 97 340 94 342 l 256 286 l 240 972 l 349 972 l 333 286 l 490 340 q 499 342 493 342 q 515 335 508 342 q 521 319 521 328 q 517 307 521 314 l 318 13 z "},"↔":{"ha":1238,"x_min":63,"x_max":1175,"o":"m 853 272 q 836 288 836 272 q 844 317 836 292 l 893 457 l 344 457 l 393 317 q 401 288 401 292 q 385 272 401 272 q 361 283 379 272 l 79 474 q 63 500 63 483 q 79 526 63 515 l 361 718 q 385 729 379 729 q 401 714 401 729 q 393 685 401 707 l 344 543 l 893 543 l 844 685 q 836 714 836 707 q 853 729 836 729 q 876 718 858 729 l 1158 526 q 1175 500 1175 517 q 1158 474 1175 483 l 876 283 q 853 272 858 272 z "},"↕":{"ha":588,"x_min":65,"x_max":522,"o":"m 319 -219 q 293 -236 308 -236 q 267 -219 278 -236 l 76 63 q 65 86 65 81 q 81 103 65 103 q 110 94 85 103 l 250 46 l 250 782 l 110 733 q 81 725 85 725 q 65 742 65 725 q 76 765 65 747 l 267 1047 q 293 1064 278 1064 q 319 1047 308 1064 l 511 765 q 522 742 522 747 q 507 725 522 725 q 478 733 500 725 l 336 782 l 336 46 l 478 94 q 507 103 500 103 q 522 86 522 103 q 511 63 522 81 l 319 -219 z "},"↖":{"ha":858,"x_min":83,"x_max":817,"o":"m 740 104 l 263 603 l 196 465 q 169 435 182 435 q 149 465 154 435 l 86 792 q 83 811 83 806 q 110 838 83 838 q 129 835 115 838 l 457 772 q 486 751 486 765 q 457 726 486 740 l 317 658 l 817 181 l 740 104 z "},"↗":{"ha":858,"x_min":42,"x_max":775,"o":"m 118 104 l 42 181 l 542 658 l 401 726 q 372 751 372 740 q 401 772 372 765 l 729 835 q 749 838 743 838 q 775 811 775 838 q 772 792 775 806 l 710 465 q 689 435 704 435 q 663 465 676 435 l 596 603 l 118 104 z "},"↘":{"ha":858,"x_min":42,"x_max":775,"o":"m 749 104 q 729 107 743 104 l 401 169 q 372 190 372 176 q 401 215 372 201 l 542 283 l 42 761 l 118 838 l 596 339 l 663 476 q 689 507 676 507 q 710 476 704 507 l 772 150 q 775 131 775 136 q 749 104 775 104 z "},"↙":{"ha":858,"x_min":83,"x_max":817,"o":"m 110 104 q 83 131 83 104 q 86 150 83 136 l 149 476 q 169 507 154 507 q 196 476 182 507 l 263 339 l 740 838 l 817 761 l 317 283 l 457 215 q 486 190 486 201 q 457 169 486 176 l 129 107 q 110 104 115 104 z "},"↳":{"ha":972,"x_min":126,"x_max":910,"o":"m 893 324 q 910 297 910 313 q 893 271 910 281 l 611 81 q 588 69 593 69 q 571 85 571 69 q 579 114 571 89 l 628 254 l 126 254 l 126 972 l 219 972 l 219 340 l 628 340 l 579 482 q 571 511 571 504 q 588 526 571 526 q 611 515 593 526 l 893 324 z "},"↴":{"ha":972,"x_min":126,"x_max":910,"o":"m 894 453 q 910 436 910 453 q 899 413 910 431 l 708 131 q 682 114 697 114 q 656 131 667 114 l 464 413 q 453 436 453 431 q 468 453 453 453 q 497 444 475 453 l 636 397 l 636 886 l 126 886 l 126 972 l 728 972 l 728 397 l 865 444 q 894 453 890 453 z "},"↵":{"ha":972,"x_min":63,"x_max":846,"o":"m 753 972 l 846 972 l 846 254 l 344 254 l 393 114 q 401 85 401 89 q 385 69 401 69 q 361 81 379 69 l 79 271 q 63 297 63 281 q 79 324 63 314 l 361 515 q 385 526 379 526 q 401 511 401 526 q 393 482 401 504 l 344 340 l 753 340 l 753 972 z "},"↶":{"ha":1090,"x_min":63,"x_max":951,"o":"m 345 888 q 395 938 345 888 q 599 989 444 989 q 852 888 753 989 q 951 615 951 786 l 951 0 l 860 0 l 860 615 q 786 828 860 753 q 599 904 713 904 q 411 829 485 904 q 338 615 338 754 l 338 557 l 475 604 q 504 613 500 613 q 519 596 519 613 q 508 572 519 590 l 318 290 q 292 274 308 274 q 265 290 275 274 l 74 572 q 63 596 63 590 q 78 613 63 613 q 107 604 85 613 l 246 557 l 246 615 q 345 888 246 786 z "},"↷":{"ha":1090,"x_min":139,"x_max":1028,"o":"m 1013 613 q 1028 596 1028 613 q 1017 572 1028 590 l 825 290 q 799 274 814 274 q 772 290 783 274 l 582 572 q 571 596 571 590 q 586 613 571 613 q 615 604 590 613 l 753 557 l 753 615 q 679 829 753 754 q 492 904 606 904 q 304 828 378 904 q 231 615 231 753 l 231 0 l 139 0 l 139 615 q 238 888 139 786 q 492 989 338 989 q 745 888 646 989 q 844 615 844 786 l 844 557 l 983 604 q 1013 613 1006 613 z "},"↸":{"ha":858,"x_min":83,"x_max":817,"o":"m 83 886 l 83 972 l 817 972 l 817 886 l 83 886 m 740 10 l 263 508 l 196 371 q 169 340 182 340 q 149 371 154 340 l 86 697 q 83 717 83 711 q 110 743 83 743 q 129 740 115 743 l 457 678 q 486 657 486 671 q 457 632 486 646 l 317 564 l 817 86 l 740 10 z "},"↹":{"ha":1147,"x_min":126,"x_max":1021,"o":"m 638 515 q 614 526 632 515 l 332 717 q 315 743 315 726 q 332 769 315 758 l 614 961 q 638 972 632 972 q 654 957 654 972 q 646 928 654 950 l 596 782 l 1021 797 l 1021 689 l 596 704 l 646 560 q 654 531 654 535 q 638 515 654 515 m 126 529 l 126 958 l 224 958 l 224 529 l 126 529 m 510 -278 q 493 -262 493 -278 q 501 -233 493 -258 l 551 -89 l 126 -104 l 126 4 l 551 -11 l 501 135 q 493 164 493 157 q 510 179 493 179 q 533 168 515 179 l 815 -24 q 832 -50 832 -35 q 815 -76 832 -67 l 533 -267 q 510 -278 515 -278 m 924 -264 l 924 179 l 1021 179 l 1021 -264 l 924 -264 z "},"↺":{"ha":1175,"x_min":139,"x_max":1078,"o":"m 1049 903 q 1078 882 1078 896 q 1049 857 1078 871 l 915 792 q 1036 486 1036 663 q 904 169 1036 300 q 588 38 772 38 q 271 169 403 38 q 139 486 139 300 q 269 803 139 668 l 335 738 q 231 486 231 629 q 335 234 231 339 q 588 129 440 129 q 840 234 735 129 q 944 486 944 339 q 850 726 944 624 l 788 596 q 761 565 774 565 q 740 596 746 565 l 678 922 q 675 942 675 936 q 701 968 675 968 q 721 965 707 968 l 1049 903 z "},"⇚":{"ha":1111,"x_min":63,"x_max":1035,"o":"m 1035 590 l 360 590 l 339 528 l 1035 528 l 1035 472 l 339 472 l 361 410 l 1035 410 l 1035 354 l 381 354 l 393 317 q 401 288 401 292 q 385 272 401 272 q 361 283 379 272 l 79 474 q 63 500 63 483 q 79 526 63 515 l 361 718 q 385 729 379 729 q 401 714 401 729 q 393 685 401 707 l 379 646 l 1035 646 l 1035 590 z "},"⇛":{"ha":1111,"x_min":76,"x_max":1049,"o":"m 1032 526 q 1049 500 1049 517 q 1032 474 1049 483 l 750 283 q 726 272 732 272 q 710 288 710 272 q 718 317 710 292 l 731 354 l 76 354 l 76 410 l 750 410 l 772 472 l 76 472 l 76 528 l 772 528 l 751 590 l 76 590 l 76 646 l 732 646 l 718 685 q 710 714 710 707 q 726 729 710 729 q 750 718 732 729 l 1032 526 z "},"⇜":{"ha":1111,"x_min":63,"x_max":1035,"o":"m 908 543 l 1035 543 l 1035 457 l 864 457 l 836 543 l 774 349 l 701 349 l 639 542 l 576 349 l 504 349 l 469 457 l 344 457 l 393 317 q 401 288 401 292 q 385 272 401 272 q 361 283 379 272 l 79 474 q 63 500 63 483 q 79 526 63 515 l 361 718 q 385 729 379 729 q 401 714 401 729 q 393 685 401 707 l 344 543 l 514 543 l 540 458 l 603 654 l 675 654 l 738 458 l 800 654 l 872 654 l 908 543 z "},"⇝":{"ha":1111,"x_min":76,"x_max":1049,"o":"m 1032 526 q 1049 500 1049 517 q 1032 474 1049 483 l 750 283 q 726 272 732 272 q 710 288 710 272 q 718 317 710 292 l 767 457 l 642 457 l 607 349 l 535 349 l 472 542 l 410 349 l 338 349 l 275 543 l 247 457 l 76 457 l 76 543 l 203 543 l 239 654 l 311 654 l 374 458 l 436 654 l 508 654 l 571 458 l 597 543 l 767 543 l 718 685 q 710 714 710 707 q 726 729 710 729 q 750 718 732 729 l 1032 526 z "},"⇞":{"ha":588,"x_min":67,"x_max":521,"o":"m 490 632 l 340 685 l 340 483 l 508 483 l 508 397 l 340 397 l 340 264 l 508 264 l 508 178 l 340 178 l 340 0 l 249 0 l 249 178 l 81 178 l 81 264 l 249 264 l 249 397 l 81 397 l 81 483 l 249 483 l 249 685 l 97 632 q 89 631 94 631 q 73 638 79 631 q 67 653 67 644 q 71 665 67 658 l 271 960 q 294 972 279 972 q 318 960 310 972 l 517 665 q 521 653 521 658 q 515 638 521 644 q 499 631 508 631 q 490 632 493 631 z "},"⇟":{"ha":588,"x_min":67,"x_max":521,"o":"m 499 342 q 515 335 508 342 q 521 319 521 328 q 517 307 521 314 l 318 13 q 294 0 310 0 q 271 13 279 0 l 71 307 q 67 319 67 314 q 73 335 67 328 q 89 342 79 342 q 97 340 94 342 l 249 288 l 249 489 l 81 489 l 81 575 l 249 575 l 249 708 l 81 708 l 81 794 l 249 794 l 249 972 l 340 972 l 340 794 l 508 794 l 508 708 l 340 708 l 340 575 l 508 575 l 508 489 l 340 489 l 340 288 l 490 340 q 499 342 493 342 z "},"⇠":{"ha":1111,"x_min":63,"x_max":1035,"o":"m 393 685 l 344 543 l 485 543 l 485 457 l 344 457 l 393 317 q 401 288 401 292 q 385 272 401 272 q 361 283 379 272 l 79 474 q 63 500 63 483 q 79 526 63 515 l 361 718 q 385 729 379 729 q 401 714 401 729 q 393 685 401 707 m 603 457 l 603 543 l 760 543 l 760 457 l 603 457 m 878 543 l 1035 543 l 1035 457 l 878 457 l 878 543 z "},"⇡":{"ha":582,"x_min":67,"x_max":521,"o":"m 517 665 q 521 653 521 658 q 515 638 521 644 q 499 631 508 631 q 490 632 493 631 l 339 685 l 339 533 l 247 533 l 247 683 l 97 632 q 89 631 94 631 q 73 638 79 631 q 67 653 67 644 q 71 665 67 658 l 271 960 q 294 972 279 972 q 318 960 310 972 l 517 665 m 247 267 l 247 431 l 339 431 l 339 267 l 247 267 m 247 0 l 247 164 l 339 164 l 339 0 l 247 0 z "},"⇢":{"ha":1111,"x_min":63,"x_max":1035,"o":"m 1018 526 q 1035 500 1035 517 q 1018 474 1035 483 l 736 283 q 713 272 718 272 q 696 288 696 272 q 704 317 696 292 l 753 457 l 613 457 l 613 543 l 753 543 l 704 685 q 696 714 696 707 q 713 729 696 729 q 736 718 718 729 l 1018 526 m 63 457 l 63 543 l 219 543 l 219 457 l 63 457 m 338 457 l 338 543 l 494 543 l 494 457 l 338 457 z "},"⇣":{"ha":588,"x_min":67,"x_max":521,"o":"m 339 972 l 339 808 l 247 808 l 247 972 l 339 972 m 339 706 l 339 542 l 247 542 l 247 706 l 339 706 m 499 342 q 515 335 508 342 q 521 319 521 328 q 517 307 521 314 l 318 13 q 294 0 310 0 q 271 13 279 0 l 71 307 q 67 319 67 314 q 73 335 67 328 q 89 342 79 342 q 97 340 94 342 l 247 289 l 247 439 l 339 439 l 339 288 l 490 340 q 499 342 493 342 z "},"⇤":{"ha":1083,"x_min":126,"x_max":1007,"o":"m 126 144 l 126 854 l 224 854 l 224 144 l 126 144 m 638 272 q 614 283 632 272 l 332 474 q 315 500 315 483 q 332 526 315 515 l 614 718 q 638 729 632 729 q 654 714 654 729 q 646 685 654 707 l 596 539 l 1007 554 l 1007 446 l 596 461 l 646 317 q 654 288 654 292 q 638 272 654 272 z "},"⇥":{"ha":1083,"x_min":76,"x_max":957,"o":"m 860 144 l 860 854 l 957 854 l 957 144 l 860 144 m 446 272 q 429 288 429 272 q 438 317 429 292 l 488 461 l 76 446 l 76 554 l 488 539 l 438 685 q 429 714 429 707 q 446 729 429 729 q 469 718 451 729 l 751 526 q 768 500 768 517 q 751 474 768 483 l 469 283 q 446 272 451 272 z "},"∂":{"ha":824,"x_min":115,"x_max":825,"o":"m 376 -17 q 185 53 254 -17 q 115 243 115 124 q 219 503 115 401 q 474 606 324 606 q 630 563 567 606 q 710 451 693 519 q 732 599 732 532 q 660 816 732 739 q 476 899 588 893 l 514 989 q 747 870 668 971 q 825 606 825 769 q 798 391 825 497 q 719 192 771 285 q 578 41 667 99 q 376 -17 489 -17 m 386 76 q 575 151 499 76 q 651 335 651 226 q 600 466 651 419 q 463 513 549 513 q 284 438 357 513 q 211 249 211 364 q 258 124 211 172 q 386 76 304 76 z "},"∆":{"ha":913,"x_min":89,"x_max":818,"o":"m 89 0 l 583 972 l 661 972 l 818 0 l 89 0 m 238 90 l 708 90 l 617 679 q 597 814 600 786 q 533 679 583 779 l 238 90 z "},"∏":{"ha":992,"x_min":119,"x_max":1008,"o":"m 707 -194 l 896 875 l 404 875 l 215 -194 l 119 -194 l 325 972 l 1008 972 l 803 -194 l 707 -194 z "},"∑":{"ha":869,"x_min":60,"x_max":932,"o":"m 60 -197 l 74 -115 l 526 400 l 271 888 l 285 969 l 932 969 l 915 875 l 392 875 l 643 403 l 200 -101 l 769 -101 l 753 -197 l 60 -197 z "},"−":{"ha":910,"x_min":210,"x_max":863,"o":"m 210 522 l 863 522 l 863 428 l 210 428 l 210 522 z "},"∕":{"ha":463,"x_min":-136,"x_max":771,"o":"m -136 -17 l 679 989 l 771 989 l -44 -17 l -136 -17 z "},"∙":{"ha":331,"x_min":167,"x_max":336,"o":"m 235 397 q 185 419 204 397 q 167 472 167 442 q 197 541 167 510 q 267 572 228 572 q 317 550 297 572 q 336 497 336 528 q 306 428 336 460 q 235 397 275 397 z "},"√":{"ha":774,"x_min":175,"x_max":869,"o":"m 869 972 l 417 0 l 321 0 l 175 454 l 268 454 l 381 107 l 771 972 l 869 972 z "},"∞":{"ha":1383,"x_min":163,"x_max":1396,"o":"m 414 178 q 233 247 303 178 q 163 435 163 315 q 269 713 163 610 q 526 817 375 817 q 697 751 636 817 q 792 572 758 686 q 946 753 864 690 q 1143 817 1028 817 q 1326 747 1256 817 q 1396 558 1396 678 q 1290 281 1396 385 q 1033 178 1183 178 q 764 418 824 178 q 414 178 610 178 m 439 265 q 742 496 590 265 q 521 729 669 729 q 335 652 411 729 q 258 450 258 575 q 308 315 258 365 q 439 265 358 265 m 1038 265 q 1223 341 1147 265 q 1299 542 1299 417 q 1249 678 1299 628 q 1119 729 1200 729 q 813 496 968 729 q 1038 265 883 265 z "},"∫":{"ha":613,"x_min":58,"x_max":692,"o":"m 178 -194 q 58 -164 108 -194 l 71 -92 q 165 -111 126 -111 q 228 -89 210 -111 q 253 -29 246 -67 l 404 831 q 574 989 432 989 q 692 956 639 989 l 679 883 q 586 906 613 906 q 523 882 542 906 q 497 821 504 858 l 346 -36 q 178 -194 318 -194 z "},"≈":{"ha":910,"x_min":214,"x_max":861,"o":"m 214 510 q 256 638 214 588 q 386 688 297 688 q 553 644 449 688 q 697 600 657 600 q 773 625 743 600 q 806 688 803 650 l 861 688 q 819 560 861 610 q 689 510 776 510 q 526 553 629 510 q 378 597 422 597 q 302 573 332 597 q 269 510 272 549 l 214 510 m 214 264 q 256 393 214 342 q 386 444 297 444 q 553 401 449 444 q 697 357 657 357 q 773 381 743 357 q 806 444 803 406 l 861 444 q 819 315 861 367 q 689 264 776 264 q 526 308 629 264 q 378 351 422 351 q 302 327 332 351 q 269 264 272 303 l 214 264 z "},"≠":{"ha":910,"x_min":215,"x_max":861,"o":"m 500 315 l 431 171 l 331 171 l 400 315 l 215 315 l 215 415 l 456 415 l 518 536 l 215 536 l 215 636 l 569 636 l 633 758 l 732 758 l 668 636 l 861 636 l 861 536 l 617 536 l 553 415 l 861 415 l 861 315 l 500 315 z "},"≤":{"ha":910,"x_min":211,"x_max":864,"o":"m 861 267 l 211 501 l 211 599 l 861 836 l 861 725 l 336 551 l 861 375 l 861 267 m 211 0 l 211 93 l 864 93 l 864 0 l 211 0 z "},"≥":{"ha":910,"x_min":211,"x_max":864,"o":"m 211 267 l 211 375 l 736 551 l 211 725 l 211 836 l 861 599 l 861 501 l 211 267 m 211 0 l 211 93 l 864 93 l 864 0 l 211 0 z "},"◊":{"ha":856,"x_min":196,"x_max":836,"o":"m 376 -17 l 196 486 l 554 989 l 656 989 l 836 486 l 478 -17 l 376 -17 m 592 924 l 283 486 l 438 49 l 747 486 l 592 924 z "},"◌":{"ha":928,"x_min":178,"x_max":919,"o":"m 519 794 q 513 800 519 794 q 507 825 507 806 q 519 857 507 844 q 549 869 531 869 q 578 857 567 869 q 590 825 590 844 q 578 794 590 806 q 549 783 567 783 q 519 794 531 783 m 381 800 q 392 832 381 819 q 424 844 404 844 q 453 832 442 844 q 465 800 465 819 q 453 770 465 782 q 424 758 442 758 q 393 770 406 758 q 381 800 381 782 m 642 770 q 636 776 642 770 q 631 800 631 782 q 643 831 631 818 q 672 843 656 843 q 704 831 692 843 q 717 800 717 819 q 704 770 717 782 q 672 758 692 758 q 642 770 654 758 m 275 731 q 287 760 275 749 q 318 772 299 772 q 348 761 336 772 q 360 731 360 750 q 349 699 360 711 q 318 688 338 688 q 287 699 299 688 q 275 731 275 711 m 749 699 q 743 705 749 699 q 738 731 738 711 q 749 761 738 750 q 779 772 761 772 q 810 760 799 772 q 822 731 822 749 q 810 699 822 711 q 779 688 799 688 q 749 699 760 688 m 820 594 q 814 600 820 594 q 808 624 808 606 q 820 655 808 642 q 850 668 832 668 q 881 655 868 668 q 893 624 893 642 q 881 594 893 606 q 850 582 868 582 q 820 594 832 582 m 217 593 q 210 599 217 593 q 204 624 204 606 q 216 654 204 642 q 247 667 228 667 q 278 654 267 667 q 290 624 290 642 q 277 593 290 606 q 247 581 264 581 q 217 593 229 581 m 178 499 q 190 530 178 518 q 222 542 203 542 q 253 530 242 542 q 264 499 264 518 q 253 469 264 481 q 222 457 242 457 q 190 469 203 457 q 178 499 178 481 m 833 499 q 844 530 833 518 q 875 542 856 542 q 906 530 893 542 q 919 499 919 518 q 906 469 919 481 q 875 457 893 457 q 844 469 856 457 q 833 499 833 481 m 217 343 q 210 349 217 343 q 204 374 204 356 q 216 404 204 392 q 247 417 228 417 q 277 404 265 417 q 289 374 289 392 q 277 343 289 356 q 247 331 265 331 q 217 343 229 331 m 807 375 q 819 405 807 393 q 850 417 832 417 q 881 405 868 417 q 893 375 893 393 q 881 344 893 356 q 850 332 869 332 q 819 344 831 332 q 807 375 807 356 m 287 238 q 281 244 287 238 q 275 268 275 250 q 288 299 275 286 q 318 311 300 311 q 348 299 336 311 q 360 268 360 288 q 348 238 360 250 q 318 226 336 226 q 287 238 299 226 m 738 268 q 749 299 738 288 q 779 311 761 311 q 810 299 797 311 q 822 268 822 286 q 810 238 822 250 q 779 226 799 226 q 749 238 761 226 q 738 268 738 250 m 381 199 q 393 228 381 217 q 425 240 406 240 q 455 228 443 240 q 467 199 467 217 q 454 167 467 181 q 425 154 442 154 q 393 167 406 154 q 381 199 381 179 m 644 167 q 638 173 644 167 q 632 197 632 179 q 644 228 632 215 q 674 240 656 240 q 704 228 692 240 q 717 197 717 217 q 704 166 717 178 q 674 154 692 154 q 644 167 656 154 m 519 141 q 513 147 519 141 q 507 172 507 153 q 519 203 507 192 q 549 215 531 215 q 578 203 567 215 q 590 172 590 192 q 578 141 590 153 q 549 129 567 129 q 519 141 531 129 z "},"":{"ha":0,"x_min":-179,"x_max":7,"o":"m 7 1014 l 4 999 q -156 697 -32 804 l -179 717 q -128 844 -156 756 q -86 1014 -100 933 l 7 1014 z "},"ﬁ":{"ha":769,"x_min":133,"x_max":826,"o":"m 349 622 l 239 0 l 142 0 l 251 622 l 133 622 l 149 710 l 267 710 l 289 838 q 460 989 315 989 q 569 956 514 989 l 556 871 q 463 899 506 899 q 383 815 399 899 l 364 710 l 526 710 l 511 622 l 349 622 m 753 856 q 714 871 729 856 q 699 910 699 886 q 721 964 699 942 q 771 986 743 986 q 811 971 796 986 q 826 932 826 956 q 804 878 826 900 q 753 856 782 856 m 553 0 l 678 710 l 775 710 l 650 0 l 553 0 z "},"ﬂ":{"ha":783,"x_min":133,"x_max":833,"o":"m 560 0 l 729 961 l 833 1003 l 657 0 l 560 0 m 349 622 l 239 0 l 142 0 l 251 622 l 133 622 l 149 710 l 267 710 l 289 838 q 460 989 315 989 q 569 956 514 989 l 556 871 q 463 899 506 899 q 383 815 399 899 l 364 710 l 526 710 l 511 622 l 349 622 z "}}}
